<?xml version="1.0" encoding="utf-8"?>
<!-- Generator: Adobe Illustrator 26.0.0, SVG Export Plug-In . SVG Version: 6.00 Build 0)  -->
<svg version="1.1" id="Capa_1" xmlns="http://www.w3.org/2000/svg" xmlns:xlink="http://www.w3.org/1999/xlink" x="0px" y="0px"
	 viewBox="0 0 1500 1500" style="enable-background:new 0 0 1500 1500;" xml:space="preserve">
<style type="text/css">
	.st0{display:none;}
	.st1{fill:#040201;}
	.st2{fill:#060402;}
	.st3{fill:#050301;}
	.st4{fill:#0A0503;}
	.st5{fill:#060401;}
	.st6{fill:#060302;}
	.st7{fill:#F4C030;}
	.st8{fill:#F1BD2F;}
	.st9{fill:#EDBA2E;}
	.st10{fill:#D8AB2B;}
	.st11{fill:#80563C;}
	.st12{fill:#865C40;}
	.st13{fill:#93190B;}
	.st14{fill:#92190B;}
	.st15{fill:#F9640C;}
	.st16{fill:#F8630C;}
	.st17{fill:#94AA0B;}
	.st18{fill:#342904;}
	.st19{fill:#362C04;}
	.st20{fill:#3B3004;}
	.st21{fill:#423805;}
	.st22{fill:#342B04;}
	.st23{fill:#322604;}
	.st24{fill:#3C3305;}
	.st25{fill:#3C3205;}
	.st26{fill:#100B01;}
	.st27{fill:#2C2103;}
	.st28{fill:#4F4706;}
	.st29{fill:#5E5D07;}
	.st30{fill:#241C03;}
	.st31{fill:#493D05;}
	.st32{fill:#2F2604;}
	.st33{fill:#8C960A;}
	.st34{fill:#8C9A0A;}
	.st35{fill:#94A80B;}
	.st36{fill:#906E4E;}
	.st37{fill:#AC907A;}
	.st38{fill:#A68265;}
	.st39{fill:#8E694D;}
	.st40{fill:#906D52;}
	.st41{fill:#A89381;}
	.st42{fill:#89684A;}
	.st43{fill:#926F50;}
	.st44{fill:#906B4F;}
	.st45{fill:#A1786D;}
	.st46{fill:#96755A;}
	.st47{fill:#A79281;}
	.st48{fill:#8F6754;}
	.st49{fill:#745840;}
	.st50{fill:#835D3B;}
	.st51{fill:#8B684A;}
	.st52{fill:#DAAA90;}
	.st53{fill:#9A775C;}
	.st54{fill:#C48F74;}
	.st55{fill:#8C6A4B;}
	.st56{fill:#B3988D;}
	.st57{fill:#B48867;}
	.st58{fill:#513B28;}
	.st59{fill:#2F0804;}
	.st60{fill:#230603;}
	.st61{fill:#6E4813;}
	.st62{fill:#58390F;}
	.st63{fill:#55360E;}
	.st64{fill:#40280B;}
	.st65{fill:#674612;}
	.st66{fill:#362904;}
	.st67{fill:#362B04;}
	.st68{fill:#605907;}
	.st69{fill:#463B05;}
	.st70{fill:#171106;}
	.st71{fill:#453B05;}
	.st72{fill:#2A2303;}
	.st73{fill:#916A56;}
	.st74{fill:#454005;}
	.st75{fill:#433A05;}
	.st76{fill:#51330D;}
	.st77{fill:#4B300C;}
	.st78{fill:#312104;}
	.st79{fill:#2D1F03;}
	.st80{fill:#302204;}
</style>
<g id="Capa_2_00000168117743069331229680000004405853105682530200_" class="st0">
</g>
<g id="Capa_1_00000136405189640310961240000010281938175267407243_">
	<path class="st1" d="M803.4,343.5c1.1,12.6,18.2,7.9,20,19.7c1.4,2.8-0.4,3.6-2.5,4.2c-8.1-2-17.4,0.4-23.4-9.2
		c-3-4.8-24,4-23.4,10.2c1.6,15.5-7.2,28-8.7,42.3c-0.2,7.2,6.3,2.7,8.7,5.3c-0.9,18.2,9.2,35.5,3.5,54.1c-2.8,9-7.2,19.8-15.3,20.4
		c-9.5,0.7-13.7-11-18.1-19.3c-2-3.8-2.5-8.2-4.3-12.4c4.2,15,2.1,28.9-4.1,43c-3.6,8.3-5.3,18.4-1,28c2.5,5.5,0.5,10.2-3.8,14.1
		c-4.2,3.8-7.1,9.6-11.5,12.3c-17.6,10.9-23.6,30.1-33.3,46.7c-3.4,5-3.4,10.7-3.2,16.5c0.1,6.2-0.3,12.6-5.5,17.2
		c-3,3.3-6,6.8-9,10.1c-17.3,1.2-29.8,10.6-41.1,23.7c-6,7-10.8-0.6-13.7-6c-4.3-8.2-8.1-13.7-14.6-1.7c-2.5,4.6-8.4,3.2-13.2,4.6
		c2.5,6.1,14,9.1,6.2,17.4c-4.8,5-10.8,8.8-13.4,13.7c13.3,2.8,25.9,7.4,35.2,19.3c2,4,3,8.2,2.3,12.7c-1.5,5-3.1,9.9-9.4,10.1
		c-2.7-0.4-4.7-2.5-7.3-3c-17.7,1.1-17.7,1.5-14.5,18.8c3.3,18.2,5.9,36.4-7.4,52.5c-6.1,7.4-7.2,17.5-10.5,26.4
		c-7.2,19.4-4,35.3,12.4,47.9c7.3,4.4,11.3,10.5,7.2,19.1c-3.9,8.2-1.9,21.8-16.7,20.7c-1.9-0.1-4.8,0-5.2,1.2
		c-6.9,18.5-27,15-38.9,25.1c-4.8,4.1-5.2,7.6-0.3,11.5c1.8,1.5,5,2.4,5.2,4.5c1.6,19.1,16.7,20.3,29.7,24.1
		c0.9,1.1,1.2,2.4,1.1,3.8c-1.1,3.3-4,5.2-5.8,8c-9.2,13.9-6.7,16.9,6.9,26.1c18.3,12.4,39.6,17.9,57.7,29.4
		c11.8,7.5,25.9,16.8,29.7,33.7c1.3,5.6,6,7.1,10.6,8c9.9,2,15.7,7.7,16.7,18.3c0.4,4.5,3.1,6.9,7.3,7.2
		c20.8,1.5,34.6,16.5,50.3,27.9c0.9,2,1,4,0.4,6.1c-6.8,9.2-17.6,9.9-27.1,12.8c-7.8,2.4-8.6,5.7-4.8,12c2.5,4.1,4.6,8.3,4.8,13.3
		c0.1,2.4,0.9,6,2.9,6.1c14.5,0.3,21.6,14.9,35,18c18.1,4.2,29.8,33.1,20.3,47.2c-0.6,0.2-1.3,0.4-1.9,0.6
		c-10.6-3.8-2.9-19.3-14.5-23.7c-3.4-1.3-7.2-7.4-11.7-8.7c-14.9-4.2-24.1-17.3-37.4-24.2c-8.2-4.3-5.1-16.9-8.5-25.5
		c-4.2-10.4-9.6-18.7-18.7-23.4c-8.5-4.5-12.2-16.1-23.3-16.2c-14.7-8.9-32.3-6.3-47.6-13.4c-5.9-2.8-11.8-5.4-17.2-9
		c-10.7,0.3-14.9-9.7-22-14.9c-9.4-6.9-18.8-13.6-28.8-0.7c-1.7,2.2-4.8,3.5-7.5,3.4c-15-0.9-30.5,2-44.8-5.5l0,0
		c-7.5-3-15.9-3.1-22.6-8.4c-10.6-1.5-16-7.1-20.5-17.9c-3.4-8.1-12.3-16.4-23.6-16.2c-7.6,0.2-13.2-3.1-18.3-8.5
		c-11.4-11.9-23.5-21.9-39.5-28.3c-17.3-6.9-27.2-25.1-40.2-38.4c-2.7-2.8-2.5-8.5,1-10.2c7.7-3.7,10.5-16.2,21.6-13.2
		c3.5,1,6.5,3.8,10.4,1.7c2.2-5-3-5-4.6-7.3c-9.2-12.9-4.4-24,1.9-36.8c10.5-21.3,24.1-33.8,48.5-30.3c10.9,1.6,19.5-2.2,25-13.3
		c7.7-15.6,16.5-30.7,26.9-44.6c1.4-1.9,0.6-5.5,0.8-8.4c5.7-9.1,6-16.9-1.2-26.4c-3.7-4.9-11.5-12.6-4.2-21.4
		c2.9,0.1,5.2,1.6,7.2,3.6c4.3,4.4,7.9,9.4,12.6,13.4c11.2,9.4,11.9,22.6,1.4,33.3c-6.6,6.7-11.3,14-11.8,23.7
		c-0.5,2.2-1.7,3.8-3.3,5.2c-7,5.2-11.7,12.3-15.5,20.1c-4,8.2-8,16.2-13.9,23.2c-6.2,7.5-4.9,23.5,1.4,31c5,6,11.2,3.4,16.9,2
		c7-1.7,15.6-8,20.5,0.1c5.6,9.2,14,19.3,10,31.5c-3,8.9-0.6,10.8,7,9c10.3-2.4,18.5-0.6,23.2,10.2c1.5,3.3,4,5.3,7.6,5.5
		c14.5,0.8,19.9,10.4,21.9,23.5c0.7,4.7,1.8,9.4,3.3,13.4c1.4,1.1,2.5,0.3,1.9-0.5c-6.6-9.5,15-22.1-2.9-29.8
		c-10.9-4.7-10.3-18.3-20.1-24.7c-8.9-5.9-6.9-26.4,1.9-33.7c5.4-4.4,11-10.5,17.1-12c13.1-3.1,21.2-13.7,32.5-19.2
		c9.3-4.5,8.4-9.3,2.2-16.3c-5.9-6.7-12.3-13.2-15.3-22.2c-1-5-0.9-10.1-0.4-15.2c2.6-21.5,7-42.4,19.3-60.7
		c3.9-5.8,0.5-12.2,0.9-18.2c1-13.4-4.8-26-4.2-39.6c0.4-7.5-7.4-11.5-13.4-15.3c-0.8-1.1-1.4-2.3-1.8-3.7
		c-0.5-7.7-1.6-15.2-6.7-21.6c-7-8.7-6.1-18.8,0.1-26.7c5.4-6.8,5.4-12.6,2.8-19.8c-3.3-9,0.8-20.7-6.5-27.5c-6.9-6.5-17-0.5-25.6-2
		c-11.6-1.9-18.9-8-20.6-20.1c-1-7.2-2.7-14-6.5-20.3c-11.9-20-6.8-37.3,13.6-48.1c2.8-1.5,6.6-1.1,9.1-5.7
		c-12.3-7.8-16.7-23.4-31.2-30.7c-13.7-6.9-14.5-18.8-5.9-31.8c8.3-12.5,7.5-22-2.5-33.2c-3.5-3.9-7.8-6.9-11-11.1
		c0.9,11.9,6.7,21.7,12.9,31.3c2.8,4.3,4.9,8.9,0.4,12.9c-8.4,7.3-12.7,17.7-19.3,26.3c-4.9,6.4-9.1,12.8-19.5,9.7
		c-5.1-1.5-7.1,6.8-10,10.8c-3.5,4.9-4.1,11.2,0.5,16c11.5,11.7,15.3,29.2,28.7,39.8c6.8,5.3,8.6,15,5.6,24
		c-4.7,14.1-3.1,27.1,4.3,39.6c1.4,2.4,2.1,5.3,3,8.1c1.8,5.5,1.7,12.2-2.4,14.8c-14.2,9.2-9.3,22.4-7.4,34.5
		c2.2,13.7,2.5,27.5,6.4,41.2c5.4,19.2-4.9,39.8-20.6,46.8c-1.3-0.3-2.5-0.9-3.5-1.9c-0.7-9.5,10-11.7,11.6-21.2
		c4.1-24.7-2.4-48.6-2.5-72.9c0-3.3-3-5.2-5.2-7.7c-5.4-6.1-4.9-13.8,1.5-18.7c3.8-2.9,11.8-2.7,11.7-8.2c-0.2-7-2.8-14.8-6.5-20.8
		c-5.9-9.7-12.6-17.2-0.5-28c5.1-4.6,2.6-15.6-3-19.5c-16.3-11.5-21.1-31.4-33.8-45.4c-6.2-6.8-2.7-15.1-0.1-22.9
		c2.4-7.2,7-13.1,8.9-20.7c2.3-8.8,9.8-7.7,15.8-3.2c3.5,2.6,5.5,3.8,9-0.2c7.2-8.1,5.7-21.5,16.1-27.6c0.3-0.2-0.4-4.3-1.6-5
		c-11-7-6.8-20.9-13.1-30.3c-4.4-6.6-1.2-14.8,5.9-18.3c5.6-2.8,9.5,1.6,13.5,6.5c8.5,10.4,18.2,19.6,27.4,29.4
		c2.6,1.7,0.6,5.5,3.2,7.2c-1.7-2.5-2.2-5-0.4-7.8c0.1-7.4,1.2-14-7.1-19.5c-7.5-5-2-17.1,8.1-20.2c22.3-6.9,39.8-19.3,46.8-43.9
		c3-10.3,21.7-21.6,33.3-19.5c11.5,2.1,13.8-3.5,10.9-12.4c-4.2-13.2-0.6-25.2,4-36.7c3.4-8.6,0.5-16.8,1.7-25.2
		c2-14,3.9-26.5,19.7-32.4c7.5-2.8,14.1-10.9,19.2-17.3c12.5-16,26.8-14.2,42.6-9.6c4,1.2,7.9,2.8,12,3.4c5.3,0.8,8-0.5,8.1-7.7
		c0.4-21.4,13.1-28.7,32.5-19.6c16.4,7.7,42.7,1.9,56.8-8.8c16.8-12.7,33.1-26.9,54.1-32.7c6.4-1.7,13.6-3.8,15-12.5
		c-1-6,1.6-10.6,5.5-14.6c1.2-7.6,4.9-12,12.9-11.4c9.2,0.7,15.7-4.5,20.2-11.8c4.9-7.8,10.6-9.2,18.8-6.3
		c15.4,5.4,31.1,8.8,38.1,27.8c3.3,9.1,3,13.3-4.6,18.8c-11.8,8.6-22.2,19.2-35.4,25.7c-12.3,7.2-26.8,10.9-35.7,23.5
		c-3.2,2-2.4,5.6-3.3,8.6c0.4,11.6-4.3,18.1-15.8,21.5c-12.9,3.8-18.3,16.7-24.2,27.9c-9.9,18.8-14.4,39.5-17,60.2
		c-2.3,18.5-10.1,33.6-21,49.2C796.3,341.4,801,339.4,803.4,343.5z"/>
	<path class="st2" d="M821.1,366.3c0.8-1,1.5-2.1,2.3-3.1c7,8.7,11.9,18,13.7,29.8c1.3,8.5,4.6,17.5,12.5,22.7
		c8.1,5.3,5.8,15.6,10.3,22.5c4.2,7,1.6,13.4-1.2,20.2c-5.1,12.6-6.4,25.6,0.2,38.4c10.2,1.7,15,7.9,17.3,18.4
		c2,9.2,8,13.5,19.1,12.8c19-1.2,38.2,0,57.1,1.8c7,0.7,12.4-0.5,18.5-3.2c12.1-5.5,23.9-5,35.3,2.9c5.6,3.9,11.1,6.5,19.1,3.6
		c12.8-4.7,19.9,7.5,25.4,15.3c11.3,16.2,22.2,32.5,36.3,46.4c6.8,6.7,13.4,10.9,22.3,1.8c7.7-8,18.2-3,26.4-1.1
		c17,3.9,32.9-0.8,49.2-2.7c12.4-1.5,24.6-3.2,37.1-7c18.1-5.5,30.4,6.7,35.2,25.6c2.5,7,1.4,13-4.3,18c-3.5,3.1-7.9,6.6-7.6,11.5
		c1.2,15.2-6.6,26.8-11.8,40c-5.8,14.6-4.5,32-3.4,48c1,14.1,2.3,28.5,6.2,42.2c0.9,11.6,4.9,20.8,13.2,29.9
		c9.1,9.9,14.1,23.7,20.9,35.8c1.6,7.8-3.2,12.4-8.3,16.5c-5.5,4.4-10.2,9.7-15.4,14.2c-6.3,5.4-4.2,9.2,1,13.2
		c-1.6,11.5,8.8,15.1,14.4,20.6c15.3,14.8,20.4,34.4,26.8,53.5c5.6,16.7,10.1,33.8,17.8,49.7c4.3,22.9,2,26.7-17.2,28.5
		c-10.4,1.8-14.2-6-13.3-13.6c2.7-24-5.9-42.5-22.6-57.9c-1.4-1.3-2.3-2.9-2.5-4.9c-0.2-2.3,0-4.5,2-7.5
		c-9.4,10.7-21.6,15.5-30.6,25.6c-7.1,8-17.1,1.5-25.1-3.2c-3.7-2.8-5.8,4.5-9.5,1.6c-6.7-6.8-3.9-13.3,1.3-18.9
		c5.3-5.7,10.2-1.9,14.6,2c5.1,4.5,9.1,4.2,14.4-0.7c10-9.3,22.6-14.9,33.2-23.6c8.4-6.9,17.5-1.4,15.7,9.8
		c-2,12.6,2.5,20.4,10.3,29.2c8.8,9.9,10.1,23.4,10.4,36.6c0.1,3.7-0.8,7.8,2.5,10.8c1.2,1,2.8,0.9,3.7-0.4c2.7-4,2.2-8.6,0.5-12.4
		c-8.9-19.6-15.7-40.1-21.1-60.9c-5.6-21.2-20-34.8-33.8-49.3c-3.8-3.9-7.5-6.6-12.8-7.7c-10.2-2.2-12-7.8-4.1-15.4
		c9.2-8.8,16.6-19.5,26.5-27.5c5.1-4.1,4.8-7.7,3.3-14.5c-4.1-17.7-22.4-25.7-25.6-43.4c-0.4-2.3-1.6-4.5-2.3-6.8
		c-5.9-19.7-10.9-39.5-8.6-60.6c0.9-8.1,0.9-16.4-0.3-24.5c-2-13.5,1.7-23.3,10.2-35c9.9-13.5,9.7-33.4,16.3-50
		c3.9-9.9-10.4-17.3-23.1-13c-28.4,9.7-57.5,13.8-87.3,9.3c-8.2-1.2-15.5-1.8-21.7,5.4c-6.2,7.1-12.7,2.5-19.1-0.4
		c-3.3-1.4-5.9-3.9-8.7-6.1c-14.2-12.6-25.7-27.7-35.5-44.1c-6.8-11.4-16-15.7-29.1-18.5c-20.1-4.4-38.4-6.7-59.2-1.4
		c-14.2,3.6-31.3,0.5-47-1.2c-7.5-0.8-14.8-0.3-22,1.7c-2.2,0.5-4.3,0.5-6.5,0c-2.1-0.7-3.9-1.9-5.5-3.5c-2.1-2.1-3.8-4.5-5.3-7
		c-2.7-3.4-5.7-6.6-6.6-10.9c-1.5-6.9-5-10.8-12-12c-7.8-1.4-12.2-7.2-13.4-14.8c-2.1-13.4-2.7-27.5,2.5-39.8
		c6.4-15.1,2.5-26.7-7.4-36.6c-12.4-12.4-17-27-16.7-44.1C818.8,370.2,819,367.9,821.1,366.3z"/>
	<path class="st3" d="M1080.7,1348.8c-2.8,16.3-5.6,32.5-8.4,48.8c1.3,11.3-3.8,21.4-6.1,32c-0.9,3.8-1.8,7.7-2.7,11.6
		c-2.9,7.7-0.7,15.8-2.4,23.8c-2.9,13.6-6.7,16-19.9,10.9c-2.7-7-9.7-9.2-14.4-13.9c-7.2-9.2-19.2-3.3-27.4-9.3
		c-16.8-8.7-19.5-15.3-7.6-30.5c14.9-18.9,21.9-42.7,37.9-61c8.1-9.2-4.7-10.3-8.2-14.9c-12-9.7-25.8-16.2-38.9-23.7
		c-7.5-4.3-15.5-4.3-23.7,0.8c-8.1,5-17.4,5.9-26.7,2.3l0,0.1c-12.2-9.4-23.7-11.9-37.4-1.2c-8.1,6.3-19.4,7.5-29.5,9.9l-0.1,0.1
		c-17.8,0.6-35.7,1.3-53.5,0.5c-8.5-5.6-13.6-15.8-24.2-18.4c-7.7-7.3,0.1-15.2-0.9-22.7c0.6-9.8-6.5-10.7-13.1-12.1
		c-1.1-0.7-2.1-1.5-3-2.4c-1-4.3-6.2-6.3-5.9-11.4l0,0c31.8-7.5,36.8,4.1,38.5,31c0.9,14.8,8,22.1,22.7,20.3c6-0.8,12-2.4,18-0.8
		c21.4,5.8,39.1-1.9,54.8-16.1c4.8-4.4,9.6-5,15.3-1.8c6.1,3.5,13,5.4,19.2,8.7c7.1,3.8,15.3,4.5,21.5,0.3c13.3-9,25.6-4.8,36.8,2.2
		c15.5,9.6,32.6,15.8,47.4,26.8c8.5,6.3,9.2,12.4,5.1,20.7c-4.3,8.6-9.7,16.5-15.4,24c-10.8,14.1-17.1,30.9-26.9,45.5
		c-3.5,5.3-1.3,11.4,4.3,9.8c17.6-5.1,25.5,6.8,34.4,18c1.4,1.8,3.4,3.2,7.7,4.2c14.3-77.1,29.8-154,42.1-231.5
		c0.5-4.3-3-7.3-3.5-11.3c0.3-6.9-0.8-13.2-4.9-19c-3.6-5-7.2-10.8-6.2-17.2c1.9-12.1-5-18-13.7-22.4c-15.3-7.8-21-20.8-21.1-37.5
		c0-12,0.1-24.1,0-36.1c0-9,3.6-14.7,12.2-16.6c10.5-2.3,20.6-5.8,30.6-10c5.8-2.4,10.8-1.5,15.9,1.8c7.9,5.2,9.7,0.7,9.7-6.6
		c0-11.7-5.4-17.9-16.7-18.1c-8.8-0.2-17.6-1.3-26.4-1.5c-5.2-0.2-9.1-1.8-10.7-7.3c-0.7-16.1-3.1-32.2,1.6-48.1
		c4.5-4.1,8.9-4.2,13.2,0.3c1.6,9.3,0,18.6-0.4,27.9c-0.3,6.2-2.4,13.5,5.4,17.2c5.1,0.1,10.2,0.3,15.2,0.3c23.2,0.1,23.2,0,32.4,23
		c3,6.7,0.8,13.5-0.7,19.7c-2.4,10-10.6,14-19.5,11c-11.4-3.8-21.9-1-32.9,0.7c-8.6,1.4-14.1,5.6-14.7,14.3
		c-1.2,15.5-2.7,31.2,0.9,46.7c10,9.3,26.6,11.1,30.4,27.5c2.9,12.3,4.9,24.9,11.8,35.8c10.4,42-1.9,82.1-10.4,122.3
		C1085.8,1333.7,1087.1,1342.5,1080.7,1348.8z"/>
	<path class="st4" d="M460,146.3c-18.3-1.3-13.9-19.3-14.1-27.5c-0.3-12.5-2.2-29.7,14.5-37c5.3-2.3,1.4-6.4,0-9.7
		c-2.4-5.7-1.6-11.2,4.1-13.1c4.8-1.6,9.6-1.3,15,3.3c22.4,19.5,16.6,43.1,11,67C483.5,141.2,472.5,145.1,460,146.3z"/>
	<path class="st5" d="M1032.4,953.2c-9.5,1.5-19.3,1.5-27.6,7.7c-2.5,1.9-6.4,3.6-9.1,3c-18.5-4.2-31.3,8.3-45.8,15.7
		c-18.5,9.4-25.8,22.5-23.5,44.8c0.5,4.8-2.5,3.6-4.3,5.1c-9.7,8.7-19.1,17.7-28.5,26.8c-4.2,4-7.9,8.4-6,15c0.8,0.5,1.1,1,0.8,1.5
		s-0.5,0.7-0.8,0.7c-15-9.3-28.9-18.9-36.9-36.8c-6.7-15-25-15.2-34.5-2.5c-12.1,16.3-32.5,12.8-43.1-10.2
		c-6.6-14.2-17.3-24.3-25-37c-0.8-0.4-1-0.8-0.9-1.3c0.2-0.5,0.4-0.8,0.7-0.8c6.2-14.1,1.9-29,2.9-43.5c1.3-19.8,2.5-21.2,20.8-19.4
		c14.6,1.5,29,0.9,39.1-13.1c1.3-1.8,3.5-4,5.5-4.2c20-1.7,34.5-16.2,52.1-23.4c1.3-0.5,2.6-1.7,3.7-1.5c32.2,5,64.8-8,96.5,1.1
		c12.5,3.6,24.4,0.3,36.4,2.8c0.3,1.4,0.7,2.2,1.3,2.4c2.3,0.8,7.3-7.1,14.8-23.6c-15.4,13.6-30.8,27.3-46.1,40.9
		c11.4,3.9,17.5,9.7,20.5,18.6c2,5.9,6.4,7.5,12.1,7.4c9.3-0.2,18.5-0.2,27.8,0c4.4,0.1,10-2.3,12.8,2.9c3.4,6.2-3.6,7.6-5.9,11.2
		c-1.3,2-2.3,4.1-3.5,6.2C1036.6,951,1034.5,952.1,1032.4,953.2z"/>
	<path class="st6" d="M393.1,149.8c-0.1,1.8-0.3,3.5-0.4,5.2c-3.5,5.7-6.6,11.3-4.5,18.7c1.3,4.7-0.4,9.8-3.6,13.4
		c-7.7,8.6-9.7,19.4-11.3,30.3c-2.6,16.9-10,31.8-18.2,46.2c-2.6,4.6-5.3,10.8-12.7,8.1c-15.5-4.6-22.3-27-12.5-41.5
		c9.4-13.8,8.9-33.7-1.1-47.6c-4.1-5.7-3.7-11.2-0.3-17.2c5.1-8.9,7.6-18.7,4.8-29c-1-3.7-0.9-7.3,1.1-9.5
		c16.3-17.7,16.3-45.1,35.5-61.4c11.5-9.8,18.9-10.5,28.2,1.8c5.8,7.6,19.6,9.9,15.1,24.3c-0.7,2.4-2.2,4.4-4.3,5.3
		c-12,5.3-16.3,14-13.3,27.5C397.3,132.8,393,141.2,393.1,149.8z"/>
	<g id="amarillo">
		<path class="st7" d="M658.5,444.4c22.8,10.9,27.3,22,18.9,48c-1.1,3.5-5.3,7.9-0.9,9.7c13.7,5.6,11.5,19.1,15.3,29.6
			c4,11,9.2,11.7,18.1,3.9c4-3.5,7.6-14.3,13.8-7.3c7.3,8.1-4.5,9.3-7.8,13.9c-7.5,10.2-21.7,14.9-26.4,24.2
			c-7.3,14.6-17,30-18.3,46.5c-1.5,19.3-3.5,25.2-21.1,25.1c-8.5,0-14.3,3.1-17.9,10.8c-4.1,8.8-7.5,9.8-12.9,0.5
			c-7.3-12.5-19.9-11-29.3-0.2c-5.6,6.5-14.4,13.7-24.4,10.4c-7.7-2.5-12.2-20-7.7-28.8c2.8-5.3,2.1-7.8-2.2-10.4
			c-0.8-0.5-2.3-0.6-2.5-1.2c-6-22.1-23.4-13.6-36.6-13.4c-8.8,0.1-13.5-4.5-13.6-10.5c-0.4-12.7-7.1-22-12-32.4
			c-2.4-5.1-2.2-8.4,3.5-9.4c4.2-0.7,5.5-3.3,5.6-6.9c0.2-7.2,5-7.5,9.8-6.5c7.8,1.6,12.6,0.2,14.7-9.2c1.9-8.6-1-14.2-7.3-18.1
			c-12.9-7.8-17.8-24.2-32.5-30.4c-6.9-2.9-10.7-10.1-1.8-17.5c2.3-1.9,2.5-6.7,4.2-11.5c2.6,6.8,4.5,13.4,12.6,11.1
			c7.5-2.1,7.5-10.4,6.3-14.1c-4.1-12.8,1.7-28.1-10.2-39c-5.4-4.9,0.3-7.4,4.7-7.9c8.6-1,16.2-5.9,21.8-11
			c7.2-6.8,7.6,0.1,10.5,2.8c15.5,11.7,17.2,18.9,8.9,36.2c-9,18.8-17.6,37.7-15.3,59.5c0.5,1.2,1,2.5,1.5,3.7
			c2.3,9.3,8.3,13,17.4,12.3c4.1-0.3,8.3-0.5,12.4,0.1c11.8,1.7,20.4-2.4,25.6-13.6c1-1,2.1-1.8,3.2-2.5c14.3-5.1,19.4-20,28.9-30.1
			C627.8,447.8,643,446.7,658.5,444.4z"/>
		<path class="st7" d="M533.2,386.1c6.9-10.1,13.3-20.1,18-31.8c5.5-14,25.5-15.9,39-8.7c10.2,5.5,16.7,15.5,27.9,19.6
			c5.7,2.1,13.1,7.8,3.2,15.8c-3.4,2.7-11.7,3.4-9.7,7.4c4.2,8.6,0.3,19.9,8.5,26.4c5.5,4.4,10.1,14.5,19.6,3.8
			c3.4-3.9,9.1-0.4,13.3,3.8c5.7,5.8,4.5,10.9,0.2,16.4c-1.6,8.3-8.9,10.9-14.5,10.5c-18.4-1.1-24.2,15.2-33,25.7
			c-6.1,7.3-11.7,14.1-19.8,18.6l0.3-0.2c-11.8,21.6-31.6,13.8-49,13.9c-7.6,0.1-7.8-9.8-12.7-13.9l0.1,0.1
			c-1.2-24.4,7.8-45.8,18.6-66.6c4.6-8.8,4.2-18-2.4-24.6C535.6,397.4,534.6,392,533.2,386.1z"/>
		<path class="st7" d="M721.8,1150.9c-27.8,16.5-40.5,13.3-55.3-10c-2.2-3.4-3.8-8.3-9.4-4.3c-1,0.7-3.2,1-3.8,0.4
			c-19.1-19.2-46.8-7.4-67.5-20.3c-4.7-2.9-9.3-6.6-12.7-10.9c-7.6-9.4-16.7-15.2-27.7-20.1c-9-3.9-13.6,1-14.1,5.7
			c-1,9.4-6.1,8-11.5,7.3c-8.6-1.2-17-1.4-25.8-0.7c-8.2,0.7-15-1.6-16.9-13.9c-1.9-12.2-6.9-23.1,2.7-34.1c1.8-2.1,2.9-7.3,1.6-9.5
			c-10-17.4,16-21.8,12.4-37.7c-0.8-3.3,9,2.2,14.2-1.1c3.2-2,7.3,1.6,7.8,5.9c0.6,4.8,1.9,9.3,2.8,13.9
			c3.5,17.7,11.2,23.5,28.3,18.5c9.4-2.8,16.9-4.1,22,6.9c1.5,3.3,4.8,6.5,8.8,6.3c13.8-0.6,23.5,12.1,37.1,12.2c5,0,5.4,5,6.4,8.3
			c1.9,6.4,4,11.9,11.6,12.1c3.7,0.1,4.9,2.9,4.9,5.7c-0.1,12.7,8.6,15.9,18,17.3c6.6,1.1,8.8,4.4,10.2,10.9
			c2.5,11.1,7.9,17.4,21.6,16.4C699,1135.7,705.8,1150.4,721.8,1150.9z"/>
		<path class="st7" d="M731.1,372.1c-21.7-10-41.9-22.8-62.5-34.9c-9.4-5.5-5.2-12.4-6.5-18.7c-2-9.3-12.4-17.8-2.6-28.8
			c1.9-2.1-1.8-7.3-4.3-8c-11-2.9-5.7-10-4.5-16c1-2.2-0.2-5.2,1.3-6.9c14.3-16,10.5-35.3,9.6-54c7.6-2.3,14.5,1.2,21.7,2.5
			c13.8,2.5,19-1.9,20-15.8c0.7-9.8,11.2-16.8,20.2-11.5c8.8,5.2,17.6,4.4,26.7,4.7c-3.4,15.9,3.4,31,3.9,46.6
			c0.3,10.8-3.5,19.5-12.7,25.2c-3.4,2.6-7.2,3.5-11.3,2.1c-0.9-0.4-1.6-1-2-1.8c-0.1-0.2-0.3-0.4-0.5-0.5c-0.2,2.9-1.2,5.6-2.5,8.1
			c-9.5,18.5-9.5,18.5,3.9,32.6c0.9,1,1.7,2,2.5,3.1c7.7,17.7,7.5,18-9,24.1c-6.7,2.5-9.6,5.6-3.4,12.1c6.7,6.9,8.9,16.7,14.6,24.4
			C737.4,365.9,736.7,366.5,731.1,372.1z"/>
		<path class="st7" d="M756.9,184.7c11.8,1.1,20.6-3.6,29.9-11.6c16.5-14.3,34.1-27.5,55.8-33.6c13.9-3.9,22.9-14.8,24.8-29.9
			c1-7.5,1.5-10.2,8.6-4.6c5.2,4.2,10.3,3.2,12.8-4.1c2.7-8,10.4-17.6,14.6-17.5c11.4,0.1,24.3,3.2,32.4,13
			c12,14.5,9.7,13.4-3.6,27.2c-12,12.4-25.9,17.7-40.9,21.4c-13.6,3.4-20.2,11.6-23.6,24.8c-2.9,11-7.1,19.7-20.9,22.6
			c-12.5,2.6-19.6,16.4-23.5,28.1c-4,12.2-10.1,21.8-18.2,30.8c-5.4,3.6-10.7,2.9-16-0.4c1.9-10.7-1.2-19-9.5-26.5
			c-4.7-4.3-8.5-7.9-15-7.6c-4.5,0.2-9.2,0.4-13.2-2.5C745.5,202.8,747,192.9,756.9,184.7z"/>
		<path class="st7" d="M790.7,250.7c4.9-3.2,9.7,1.3,14.5,0.4c2.3,10.4-0.4,20.5-1.2,30.8c-1.9,23.7-12.7,43.2-26.7,59.6
			c-11.9,13.9-15.7,27.4-17.1,45.2c-0.8,10.4-12.5,20.7-3.8,32.4c7.8,10.6,5.4,24.2,12,35.2c3.8,6.3,1.9,16.1-4.5,18.5
			c-6.6,2.5-7.2-7.2-10.7-11.6c-13.5-17.3-9.3-38.7-13.7-57.9c-2.1-9.1-3.7-18.8-4.6-28.3c2.2-16.2-9.5-26.3-16.5-38.2
			c-4.8-8.1-4.8-11.6,3.6-13.6c17.2-4.2,18.3-8.2,6.4-23.5l0.2,0.2c-5.3-8.3-16.6-14.9-10-26.9c3.1-5.7,5.4-12.8,11.4-16.6
			c3.3-0.2,6.9,1.1,9.5-2.3c18.1-3.8,11.8-19.9,14.3-31.3c0.5-2.1-0.3-4.4,1.8-5.9c6.1-1.7,13.8-5.5,18.2-0.6
			c5.8,6.4,11.9,12.5,17.5,19.1c2.2,2.7-0.3,6.1-2.1,9C787.6,246.9,786.3,249.7,790.7,250.7z"/>
		<path class="st8" d="M650,261.6c-10.3-7-26-7.9-25.5-26.9c0.5-14.6,20.5-33.5,33.7-30.1C669.5,225.8,664,244.4,650,261.6z"/>
		<path class="st9" d="M566.9,665.6c13.1,15.3-0.2,25.6-4.7,38.2c-6.2-5.4-3.8-17.9-15-19.4c-1.4-0.2,0.4-7.2,3.7-9.4
			C556.4,671.4,562.1,668.4,566.9,665.6z"/>
		<path class="st10" d="M605.4,725.6c-10.6-3.8-19.3,5-28.8-0.9c-3.4-2.1-6-3.4-1.9-6.7C581.5,712.3,596.3,715.5,605.4,725.6z"/>
		<path class="st7" d="M975.7,889.7c-8.8,11.7-9.8,19.9,3.5,25.2c2.9,1.2,4.3,3.3,5.7,5.9c8.2,15.1,22.2,17.5,37,17.8
			c4,0.1,8-2,12.1,0.8c-0.5,1.4-0.9,3.8-1.5,3.9c-16.7,1.9-31.3,13-48.7,11.9c-7.6-0.5-14,1-20.4,6.6c-7.2,6.3-15.2,12.7-25.8,12.7
			c-4.4,0-7.2,2.8-9.3,7.3c-5.4,11.7-10.7,23.4-12.7,36.3c-1.1,7.4-3,12.7-11,16.1c-6.9,3-12.2,10.1-18,15.6
			c-9.7,9.2-16.1,9-20.8-3.9c-6.2-17.1-19.7-22.8-33.8-27.8c-6.9-2.5-15-2.3-19.9,5.3c-3.6,5.5-9.8,15.2-13,12.6
			c-7.9-6.4-20.7-8.3-23.2-20.7c-1.6-7.8-4.7-14.2-10.3-19.4c-5.7-5.2-7.7-11.5-6.8-19.2c0.4-3.8,0-7.7,0.1-11.5
			c0.2-11.1-3.3-24.4,1.5-32.5c5.1-8.7,18.9-0.8,28.8-2.9c10.1-2.1,20.4-2.7,26.3-13.4c0.8-1.5,2.9-3.3,4.3-3.3
			c17,0.4,28.8-11.6,42.3-19.1c8.2-4.6,16.2-1.2,24.1-2.7c21.2-4.1,42.7-3.3,63.9-5.9C959.7,884.1,965.6,895,975.7,889.7z"/>
	</g>
	
		<image style="overflow:visible;enable-background:new    ;" width="423" height="530" id="ciudades_x5F_amarillo" xlink:href="D2FCDD31.png"  transform="matrix(2.2094 0 0 2.6114 202.5436 57.0416)">
	</image>
	<g id="rojo">
		<path class="st11" d="M672.5,28"/>
		<path class="st12" d="M803.4,343.5c-6.4-2.1-11.2,2.9-18.3,4.6c2.4-9.6,8.5-15.2,13.2-21.9c11.2-16,13-35.8,15.5-54
			c3.6-26.3,15.1-47.4,29.5-67.9c1.5-2.2,4.5-5.1,6.4-4.8c13.6,1.8,17.2-8,20.7-18.2c7.7,17.8,3.9,26.4-13.5,32.1
			c-4.3,1.4-9.4,3.1-11.3,7.5c-9.2,20.6-26,38.1-27.3,61.9c-1.1,19.6-3.9,38.2-14.2,55C803.2,339.2,803.6,341.5,803.4,343.5z"/>
		<path class="st13" d="M443.4,778.5c-1.4-1.9-4.2-3.1-3-6.4c16.3-10.5,22.7-33.9,17.1-52.4c-3.8-12.5-4-26.3-5.5-39.5
			c-0.6-5.6,1.1-11.5-3.7-16.3c-2.4-2.4-2.1-6.4,0.9-7.2c20.8-5.9,16.1-21,8.3-32.2c-9.7-13.9-5.7-26.5-1.6-39.3
			c3.4-10.5-2.5-16.2-7.7-22.2c-6.8-7.7-17.8-11.7-16.9-25.5c0.2-2.8-5.1-6.4-8.3-9c-10.8-8.4-7.1-18.3-0.7-26
			c4.1-5,9.4-7.7,1.7-16.5c9.7,1.3,10.3,14.6,18.4,8.5c4.7-3.6,8.2-9,11.7-14.1c2.9-4.2,4-11.7,7.6-13.2
			c16.5-6.6,10.2-16.7,3.2-24.6c-7.7-8.7-4.9-21.6-13.4-29.4c-1.5-1.4-0.6-3.7,1-4.9c2.2-1.6,4.1-1.2,6,1
			c7.9,9.2,15.8,18.5,23.9,27.5c3,3.3,4.6,6.6,0.8,9.7c-7,5.6-6.9,15.2-12.8,21.8c-5.4,6,4,22.1,14.5,24.7
			c7.3,1.8,11.2,4.7,12.9,12.5c1.5,7,8.1,10.1,13.7,13.6c2.9,1.8,5.8,4.3,5.3,7.8c-0.6,4-4.5,3.7-7.8,4.3
			c-22.7,4.3-30.9,23.6-19.4,44.2c3.2,5.6,6.7,10.8,6.8,18.4c0.3,15.6,5.4,20,20.7,20.4c4.2,0.1,8.4,0.4,12.5,0.1
			c12.3-1.1,18.4,4.8,18.4,18.1c0,2.4-0.4,4.8,0,7.1c2,11.3,9.9,22.3-3.6,33.1c-4.7,3.8-4.8,13.6,2.5,20.4c6,5.7,7.8,13.9,5.1,22.5
			c-11.7,12.2-12.7,31.7-27.4,42c-3.5,2.4-0.9,6.9,0.2,10.6c4.1,13.2,2.5,15-10.5,18.6c-16.8,4.7-30.2-5.7-45-9.8
			c-6.5-1.8-12.2-5.1-17.1,2.3c-0.8,1.1-1.9,1.9-3,2.6C447.2,780.7,445.3,779.6,443.4,778.5z"/>
		<path class="st13" d="M552.1,869.3c6.1,7.7,11.2,16.6,18.4,23c9.9,8.8,3.4,12.8-3.3,16.4c-3.1,1.7-7.5,1.8-9.7,5
			c-9.2,13.3-25.5,14.5-37.7,22.9c-9.1,6.2-9.5,13.6-10.9,21c-1.2,6.2,1.3,13.6,9.4,15.4c3.1,0.7,5.6,2,5.2,5.5
			c-1.2,10.1,5.4,13.7,12.7,16.1c8.9,2.9,9.6,8.8,4.9,15.2c-5.4,7.3-6.1,14.4-1.3,22.3c-7.6,1.9-11.7,0.1-12.6-7.6
			c-0.8-6.6-2.2-13.1-3.3-19.6c-0.7-4.1-4.3-9.2-6.4-8.6c-18.7,5.9-19.6-22.4-36.2-19.7c-4.1,0.7-8.1,1.4-12.2,1.9
			c-2.7,0.3-6.1,1.2-7.7-1.5c-1.8-3.2-0.2-6.6,2.2-9.2c5.5-5.7,1.6-10.1,0.4-16.6c-4.1-22.5-16-17.6-29.9-13.6
			c-5.7,1.6-14.3,6.9-16.5-5.2c-2.2-11.9-13.3-23.8,1.2-35.7c7.2-5.9,9.7-15.8,14.2-24c3.9-7.1,5.8-16.4,15.7-18
			c7.6,3.9,15.1,6.9,23.5,1.8c2.4-1.5,6-2,7.9-0.2c8.9,8.7,19.2,5.7,29.6,5.4c6.6-0.2,11.8-1,15.1-7.4c4-7.7,10.1-8.5,17.7-6.2
			c8,2.4,9.2,8.3,8.7,15.5C550.8,865.8,550.9,867.7,552.1,869.3z"/>
		<path class="st13" d="M639.3,273.8c-5.2,10.5,6.4,15.5,7.6,25.3c3.1,25.2,8.6,52.1,40.3,58.2c5.4,1,10,6.5,14.9,10.1
			c1.9,1.4,3.2,4.4,5.2,4.7c17.3,3.1,23,13.3,24,31.4c0.8,14.7,5.9,28.7-2.1,43.1c-2,3.7-2.2,10-0.6,14.1
			c6.2,15.7-0.2,30.5-3.8,44.7c-2.5,10.3-13.2,16.8-21.5,23.4c-3.5,2.8-4.9-3.4-5.4-6c-1.2-6.1-1.2-12.4-1.7-18.5
			c-0.2-2.9-1.2-7.4-3.8-6.8c-14.8,2.9-7.9-6.1-6.5-12c4.3-19.1-0.7-32.7-16.1-42.6c-4.9-3.1-8-5.1-0.9-9.7
			c9.7-6.3,15.7-14.7,9.5-27.3c-4-8.2,5.8-17.3-1.7-25.9c-3.7-4.2-6.1-9.3-11.8-11.5c-9.1-3.5-14.8-11.6-15.2-20.6
			c-0.7-19-14.4-25.1-26.8-32.5c-4-2.4-7.1-3.6-6.4-9c0.3-2.2,0-5.6-1.4-6.7c-21.3-16.1-13.3-37.1-8.7-57.2c0.7-3.2,2.9-8,7.4-7.3
			c4.4,0.7,2.8,5.4,3.1,8.4c0.9,9.2,8,12.5,14.3,16.2C636.9,262.8,642.2,265.7,639.3,273.8z"/>
		<path class="st13" d="M449.1,781.8c-0.1-0.5-0.2-1.1-0.2-1.6c4.2-6.2,10.3-6.8,16.2-4.4c10.3,4.3,21.8,4.2,31.8,10.3
			c9.2,5.7,19.3,0.3,27.6-3.7c5.3-2.5,3.5-10-0.4-15.1c-4.5-5.9-3.6-10.2,3.2-13.6c8.8-4.4,11-13.9,13.5-22.2
			c2.1-6.9,4.9-11,11.6-12.4c12.6-2.6,18.6,10.8,17.2,15.7c-4.4,15.3,4.1,28.3,4.2,42.7c0.1,11.2-3.3,18.6-7.7,26
			c-8.9,14.8-9.4,31.7-13.9,47.5c-3.1,1.8-5.1-1.2-7.7-1.8c-8.4-2-17.4-6.2-20.4,7.6c-0.4,1.7-2.3,4-3.8,3.9
			c-12.1-0.6-24.7,8.4-36.4-0.9c-4.2-3.3-8.1-5-12.6-2.1c-8.8,5.6-14.8,2.3-19.6-5.8c-4.9-11.7,2.8-19,9.6-25.4
			c10.3-9.7,10.6-19.8-0.1-27.9C455.4,794.5,450.9,789,449.1,781.8z"/>
		<path class="st13" d="M407.4,84.8c-8,4.5-14.6,6.8-19.6,12.1c-8,8.5-8,17.3-4.9,28.7c2.6,9.7,5,21.8-4.4,30.8
			c-0.9,0.9-1.6,2.5-1.6,3.8c-1.5,26.1-17.2,48.1-19.8,73.8c-0.6,5.9-1.9,11.6-5.8,15.9c-4,4.4-5.9,15.3-13.4,10.7
			c-6.6-4-9.6-14.8-4.3-21.9c8.6-11.8,9.3-24.6,9.2-38.1c0-8.3,4.9-17.8-7.5-22.3c-4.4-1.6-1.3-6.4-0.3-10.1
			c3.1-10.7,10.4-20.8,4.9-32.9c-0.4-0.8-0.5-2.3-0.1-2.8c18.1-19.2,15.2-51.9,40.1-66.9c5.1-3.1,8.8-1.4,10.4,2.5
			C393.6,75.8,400.2,79.2,407.4,84.8z"/>
		<path class="st14" d="M479.4,75.2c14.7,14,12.1,41.7-4,52c-0.8,0.5-1.5,1.1-2.3,1.6c-17,12.5-18.3,11.9-22.4-8.4
			c-3-15,4.5-28.2,19.1-31.4C477.5,87.3,475.4,80.2,479.4,75.2z"/>
		
			<image style="overflow:visible;enable-background:new    ;" width="284" height="509" id="ciudades_x5F_rojo" xlink:href="D2FCDD32.png"  transform="matrix(2.9194 0 0 2.4043 45.3112 90.1289)">
		</image>
	</g>
	<g id="naranja">
		<path class="st15" d="M450.8,942.2c2.9,12.7,6.5,23.5,1.7,35.5c-2.3,5.7,2.1,9.8,8.6,9.8c2.3,0,4.9-0.7,6.9,0.1
			c7.3,2.8,15.1-6.3,22,1.3c-9,7.2-0.7,23.3-14.3,28.6c-5.3,2.1-5.9,8.2-4.4,13.8c2.6,10.3,2.8,19.4-6.8,26.9
			c-5.9,4.7-4.2,10.9,1,16c3.3,3.2,5.2,7.8,3.2,11.6c-2.8,5.2-8.4,1.9-12.8,2c-5.5,0.1-7.9-4.1-7.5-8.4c0.9-8.8-1.7-13.5-10.5-14.4
			c-1.9-0.2-4.7-2.6-5.1-4.4c-2.3-11.2-7.9-12-17.1-7.8c-4.1,1.9-9.7,1.6-13.1-4.4c-5.1-9.2-17.5-12.2-19.5-24.4
			c-0.1-0.8-2.5-1.9-3.5-1.6c-23.5,5.8-30.9-16.4-44.2-27.8c-3.5-3-12.2-6.2-9-12.8c3.7-7.6,11.1-10.4,20.1-6.9
			c3.7,1.4,9.2,3.5,12.4-2.1c3.1-5.6-0.3-11.8-3-14.6c-15.9-15.9-2.9-28.8,3.8-41.4c8.1-15.2,21.8-19.3,38.2-16
			c4.6,0.9,6.5,2,6.2,6.8c-0.7,9.3,3.2,17.8,4.5,26.6c1.7,11.7,8.7,14.3,17.6,13.3C434.5,946.7,443,946.7,450.8,942.2z"/>
		<path class="st16" d="M595.5,294.9c7.6,6.6,14.8,10.6,13,21.5c-0.8,4.5,4.3,6.5,8.9,7.1c14.3,1.9,20.7,12.6,24.1,25.3
			c3.3,12.1,8.3,22.3,19.8,27.7c7.4,3.5,10.4,8.6,8.3,17.2c-2.4,9.8,8.6,21.6-4.4,30.3c-7.9-10.1-16-19.7-31.3-12.4
			c-3.2,1.5-8.9-2.4-10.5-7.5c-1.8-5.6-1.9-10.9,2.6-16c11.4-13,9.7-24.1-5.1-31.5c-5.5-2.7-10.1-6.6-15.3-9.4
			c-8.1-4.3-14.4-8.5-9-19.6c1.5-3.2,1.8-8.2-1.1-10.9C587.3,309.1,594.6,303.1,595.5,294.9z"/>
		
			<image style="overflow:visible;enable-background:new    ;" width="176" height="337" id="ciudadades_x5F_naranja" xlink:href="D2FCDD33.png"  transform="matrix(2.8103 0 0 2.6457 153.1941 337.3961)">
		</image>
	</g>
	<g id="verde_00000021837095109837547290000003721790660256164274_">
		<path class="st17" d="M1100.1,1222.8c-9.7,53.3-19.6,106.5-28.9,159.8c-4.8,27.2-12.1,54-13.9,82.8c-11.9-5.4-17.8-15.7-25.3-24.2
			c-4.4-5-8.1-8.8-15-2.9c-5.8,4.9-12.5-0.1-16.3-3.3c-5-4.1,0.8-9.3,3.4-13.6c13.7-22.2,26.1-45.3,41.6-66.4
			c4.7-6.3,5.7-10.8-4.4-18.2c-17.4-12.7-37.5-19.1-54.8-31.2c-5.2-3.6-12.3-5.4-15.4-2.5c-18.6,17.2-35.7,5.4-51.3-3.4
			c-9.1-5.1-12.5-1.6-16,4.1c-3.1,5.1-8.3,5.2-11.8,8c-21.3,17-46.3-1.9-68.3,8.8c-6.8,3.3-8.1-9.2-15.4-9.8
			c-13.3-1.2-3.6-7.7-3.1-13.1c0.7-7.6-1.1-15.9-3.3-23.3c-2.8-9.3-9.3-11.3-18.4-8.1c-4.1,1.5-8.2-4.2-13.2-2.9
			c7.8-10.4,3.1-19.1-2.6-28.6c-5.3-8.9-8.7-19-22.1-15.3c-3.6,1-5-3.7-7.4-5.8c-5.6-4.6-9.9-11.1-18.9-10.3c-6,0.5-10.8-3.4-9.1-11
			c0.6-2.9,0.7-5.2-0.9-8.1c-9.3-17-9.1-17,8-22.7c7.5-2.5,14.9-5.3,22.3-8.1c8.3-4.2,16.4-3.5,23.1,2.8c7.7,7.3,18.2,2.6,26.1,7.9
			c1.5,1.1,3.2,3.1,4.6,2.6c12.3-4.5,25-0.1,37.4-2.3c7.4,4.5,14.3,13.8,23.4,2.6c1.2-1.5,3.5-1.7,5.2-0.9
			c13.2,5.9,12.5-5,14.4-12.7c6.5-10.2,14.7-17.3,27.5-15.9c10.1,1.1,11.2-7.4,13.3-12.6c-1.5,9.9-8.2,13.3-19.1,12.9
			c-10.3-0.4-16.5,7.4-21.8,15.7c-1.7,8.1-1.8,18.1-14.6,12.3c-1.7-0.8-3.9-0.2-5.1,1.2c-7.7,9.5-14.4,3.4-21.2-1.4
			c-13.9-2.4-27.8,0-41.8,0.1c-15.5-3.7-29.4-12.9-45.5-14.8c-2.3-0.3-4.3-1.6-6-3.2c-9.6-7.4-21.4-11.1-30.5-19.6
			c-3.5-3.3-10-7.1-13.6-5.8c-14.2,4.8-14.5-5.8-17-14.4c-0.4-1.4-0.1-3.8-0.8-4.1c-14-6.5-26.7-13.8-33.4-29.9
			c-0.9-2.2-8.5-5.6-10.8-11.2c-2.7-6.4-8.7-7.7-14-10.9c-14-8.4-33.6-4.1-43.5-22.2c-2.8-5-12.7-6.1-19.6-8.3c-3.2-1-8-1.3-6.1-5.4
			c4.4-9.6,2.4-23.6,16.3-27.2c2.2-3,4.2-6.2,7.1-8.6c-2.4,1.7-4.1,4.5-7.1,5.4c-8.3,0.2-16.6,0.4-24.2-4.4c-3.4-2.1-6-3.7-5.8-8.5
			c0.4-7.4,0.2-14.6-10.6-13.5c-2.5,0.2-4.5-4.1-2.7-6.7c2.6-3.8-1.4-11.6,5.2-11.7c6.3,0,9.1-1.9,10.8-7.8c1.5-5.5,5-5.8,9.7-2.7
			c5.6,3.7,10.8,8.2,11.6-5c0.2-4.2,6.9-15.3,17.3-9.7c1.8,1,4.3,1.4,5-0.3c3.3-8.2,6.8-16.4,8.8-25c1.2-5.3-5.3-5.6-8.2-8.3
			c0.3-9.3,8.3-13.3,12.5-19.9c3-3.1,4.6-7.1,6.3-11c6.8-15.8,19.2-22.5,35.5-19.4c1.8,0.3,3.5,0.8,5.1,1.9c12,8.3,17,7.3,23.5-6.3
			c4-8.3,8.6-15.8,15.6-21.5c2.5-2.1,5.5-4.5,8.8-2.5c4.5,2.7,1.6,6.6,0.6,10.1c-2.3,4.1-6,8-6,12.8c-0.5,22.6-14.1,35.6-30.9,46.2
			c-5.2,3.3-8.6,7.7-9.3,13.6c-1.5,13-10.1,20.9-18.7,31.2c8.8-9.2,16.1-17.3,18.3-28.7c1.6-8.2,4.5-15.2,13-16.6
			c8.8-1.4,16.4,2.7,22.4,9.3c5.7,6.3,4.4,13.2,0,19.8c-1.9,2.9-3.2,5.7-2.3,9.4c4.2,17.1,5.9,34.9,12.6,51.4
			c0.7,1.1,1.4,2.2,2.2,3.2c19.5,10.2,40.6,14.1,62.1,16c10.4,9.5,20.2,19.7,25.4,33.4c3.9,10.2,12.7,15.1,20.5,20.7
			c6.9,4.9,12-1,16.4-6.2c12.4-14.6,31.3-16.6,40.3-0.2c9.4,17.2,24.6,26.3,37.1,39.1c6.4,12.7,17.2,21.1,27.2,30.4
			c3.7,3.4,7.5,5.5,12.5,5.2c3.7-0.3,8.1-0.6,9.5,3.9c1.7,5.4-3.2,6.7-4.3,7.5c16.2-9,31.1-3.8,40.1,16.4
			c3.1,6.9,6.3,12.2,15.3,11.6c5.9-0.4,11.7,2.9,17.2,5.3c1.2,0.6,2.2,1.4,3.1,2.4c4.2,6.7,14.2,6.5,16.9,15.1
			c1.1,9.8,1.8,19.6,1,29.5c-0.4,5,1.5,8.4,5.1,10.9c4.2,2.9,6.8,0,9.1-3.3c4.3-6.2,8.2-5.1,11.7,0.8c9.8,3.2,19.2,7.7,28.9,11.2
			C1092.5,1216.1,1096.9,1218.4,1100.1,1222.8z"/>
		<path class="st17" d="M826.9,361.7c-0.6,22.4,8.1,39.9,23.6,55.7c7.6,7.7,8.2,18.7,2.3,31.2c-6.6,14-5.8,30.8-1.2,46.4
			c0.4,1.3,1.7,3.3,2.4,3.2c20.1-2.4,19.6,17.2,27.6,27.6c-15.4,17.6-33.4,14.2-52.3,7.6c-11.5-4-7.4-14.5-8.5-21.8
			c-3.3-22.4-7.2-27.6-24.6-29c6.9-1.4,14,3.4,20,10.6c6.4,7.6,5.8,17.9,5,25.8c-1.2,11.4,4.9,13.5,11.9,15.6
			c16.4,4.9,20.2,12,14.5,29c-2.9,8.5-2.9,21-19.2,12.3c6.2,20.2-7.7,31-18.5,39.2c-9.1,6.8-22.6,7.9-31.1,17.9
			c-1.2,1.4-3.6,0-3.9-2.3c-0.2-1.3-0.2-2-0.7-1.5c-0.7,0.8-0.1,1.2,0,1.4c0.8,2,3.1,4.1,3.8,2.9c8.5-13.8,26.3-11,36.2-22.5
			c6.9-8.1,16.7-14.1,15.7-27.1c-0.1-1.7,1.7-3.7,3.6-3.9c16.4-2.2,14-16,15.3-27c0.8-6.3,1.3-11.5,8.7-12.3
			c5.4-0.5,9.2-4.5,13.4-7.2c4.8-3.1,8.9-4.8,13.9-1.3c0.9,0.9,1.9,1.8,2.8,2.7c-4.3,17.5-5.6,36.3-20,49.4
			c-6.8,6.2-10.4,13.2-6.2,22.6c1.3,3,2,7.2,0.2,9.7c-6.7,9-1.5,14.2,5.1,19.1c0.6,1.3,1.3,2.7,1.2,4.1
			c-0.7,9.7-28.1,35.8-37.1,33.4c-9.3-2.4-14,3.7-14.1,9.2c-0.1,14.2-11.8,23.3-12.8,37.1c-0.6,9.3-7.6,10.6-14.2,5.3
			c-10.8-8.7-24.9-14.6-21-34.3c2.2-10.8-13.6-29.9-23.5-33.4c-4.3-1.5-6.2,1-7.6,4c-5.1,10.6-10.7,8.5-18.8,2.8
			c-8.8-6.3-17.7-11.4-13.5-24.8c3.1-9.9,10.2-13.8,17.7-7.2c10.7,9.3,21.4,4.6,32.4,3.9c4.4-0.3,5.1-3.5,4.8-7.2
			c-0.7-8.4,3.8-13.8,9-18.2c-4.5,1.8-5.7,7.3-8.6,11.2c-3,4,3.1,12.3-4.8,13.1c-9.9,1-19.2,6.7-30.1-1.5
			c-13.2-9.8-26.8-18.6-36.3-32.6c0-0.7,0-1.4-0.1-2c9.4-14,7-35.4,27.7-42.9c8.3-3,11.9-15.4,20.3-21.1c2.2-1.5,2-4.1,1-6.5
			c-6.7-15.3-2.8-29,4.3-43.1c5.3-10.4,1.1-21.6-1.9-32.2c-0.9-3.3-2.7-7.7,0.4-9.1c4.8-2.2,6.2,3.5,7,6.6
			c3.7,13.4,9.3,25.5,19.5,34.5c6.6-7.7,12.9-16,14.7-26.9c0.4-2.2,2.8-5.7,2.3-6.1c-13.7-12-2.7-27.8-6-41.2
			c-3.5-1.5-8,1.2-10.8-3.1c-0.6-2.8-2.6-7-1.6-8c10.8-11,8.5-25.1,9.2-38.5c0.3-5.4,2.8-7.6,7.9-7.6c4.2,0,8.2-0.9,11.7-3.7
			c6.2-4.8,12-9.1,12.7,4.5c0.2,4.3,4.6,6.2,8.5,3.7C821.9,354.6,824.1,358.7,826.9,361.7z"/>
		<path class="st17" d="M597.2,864.9c-4.7,5.7-9.3,11.3-14,17c-6.8-7.3-18.4-14.4-18-23.4c0.7-16.7,3.2-34,11-49.4
			c5-9.7,10.4-19.2,15.5-28.8c1.7-3.2,4.7-7.5-3.1-5.5c-1.9,0.5-3.4-2-2.6-3.9c3.9-10,3-18.7-3.1-28c-2.5-3.9-1.8-11.2,7.2-11.6
			c5.7-0.2,11.2-4.4,17.4-2.2c4.3,3,1.2,6.2-0.4,8.4c-5.2,7.5-5.4,16.6-8,24.9c3-9.6,2.4-21,12-27.6c4.8-0.9,6.9-4.6,8.4-8.9
			c2.3-5.2,3.2-11.4,2.7-16.5c-1.4-14.7,5.4-22.7,17.3-27.9c1-1,2-1.8,3.1-2.6c4.1-2.7,8.8-3,13.4-3.3c13.1-0.9,17.3,3,15.8,16.5
			c-2.2,19.7-5,39.2-9.1,58.6c-1.6,7.5,6.7,15.5,15.3,14.4c2.7-0.3,5-2.6,7.9-2.7c3.4,3.7,3.4,8.3,3.7,12.9c0.5-4-0.7-7.8-2-11.6
			c-3.2-3.4-5.9,0.3-8.8,0.8c-10.6,1.5-16.2-6.5-14.9-17.1c2.6-22.3,8.9-43.9,8-67c-0.5-13.3,4.7-27,7.7-40.4
			c1.7-7.7,10.1-7.1,16.3-8.6c1.4-0.3,2.8-0.3,4.2-0.1c5.9,1.7,5.8,6.4,5.6,11.5c-0.3,9.4,13.8,25.8,22.5,26.3
			c3.7,0.2,6.1-2.3,7-5.8c3-11,7.9-9.1,14.9-3.3c13.1,10.7,25.4,21.3,18.8,41.4c-1,2.9-1.4,6.4,1.8,7.5
			c11.3,3.8,16.3,15.9,27.4,20.7c11.1,4.8,4.8,15.8,3.4,24.3c-1.5,9-7.9,7.8-14.1,6.2c-3.2-0.8-6.3-1.5-9.6-0.8
			c-7.8,1.7-12.3-1.4-14.1-9.6c-0.8-3.6,0.7-10.2-5.9-9.3c-5.2,0.7-11.3,5.1-10.2,10.1c2.8,12.1-4.5,18.7-10.4,26.5
			c-3.1,5.9-7.7,8.4-14.2,7.3c-8.3-14.8-4.8-29.5,1.1-43.9c2.8-6.8,4.6-13.2,1.9-20.8c-6.8,2.8-9.6,7.7-9,13.8
			c0.8,8.8-2,17.1-2.2,25.7c-0.1,8.8-4.1,15.5-11.4,20c-2.3,3.2-2.2,7.1-2.8,10.9c-0.3,11.6-12.9,7.5-17.5,14.9
			c-5.2,8.2-13.3,14.2-16,24.6c-1.3,4.9-6.2,8.2-10.3,11.4c-3.2,2.5-8.9,3.2-9.9-0.3c-4.8-17.2-17.7-7.2-26-7.4
			c-9.1-0.2-16.5,7.9-18.5,18.6C601.7,856.6,597.5,859.9,597.2,864.9z"/>
		<path class="st17" d="M616.7,714.3c-4.5-12-19.5-7.7-25.6-17.8c-1.2-2-3.6,1.7-4.5,3.7c-0.9,2.2-1.5,5.2-4.5,3.4
			c-3-1.8-4.7-8-3.8-8.3c7.3-2.6,5.3-14.1,13.9-14.8c3.8-0.3,6.5-2.7,6.2-6.3c-0.3-3.4-3.5-5.5-6.6-6.6c-2.8-1-8.5,3.8-7.5-3.8
			c0.5-3.8,3.9-7.3,8.1-6.2c8.2,2.1,12.7,2.4,12.4-9.4c-0.1-5.3,7.8-4.2,12.1-1c1.7,1.3,2.5,3.9,3.7,6c7.4,13.9,12.6,14.3,20.5,0.3
			c6-10.6,12.6-17.5,25.2-10.5c3,1.6,5.2-0.7,6.5-3.5c7.6-0.8,7,4.9,6.3,9.5c-0.7,5.2-1.5,10.4-2.7,15.6c-1.8,7.8-5.2,12-14.3,11.6
			c-6.8-0.3-15.2-1.5-20.3,6.2l0.2-0.2c-1.8,2.4-4.6,3.1-7.2,3.6c-8.8,1.8-12.7,6.5-11.9,16.4C623.1,706.1,626.9,715,616.7,714.3z"
			/>
		<path class="st18" d="M641.8,682.5c2.8-9.8,11.1-7.6,17.9-8.7c4.9-0.8,12.3,2.8,13-6.1c0.7-9.3,11-18.7,0.1-28.1
			c2.6-3.1,5.2-6.2,7.8-9.3c5.8,0.6,12.2-2.6,17.2,2.9c-16.3,1.9-16.3,14.9-19,27.5c-6.3,29.8-5.1,60.8-13.6,90.3
			c-2.9,9.9,6.8,10.6,13,10.9c3.7,0.2,7.6-4.1,10.8,1.3c-0.7,1.5-1.6,1.8-2.8,0.6c-9.7,11.5-18-2-27.2-1.8c-2.2,0-1.7-3.5-0.8-6
			c7.2-19.8,8.9-40.8,11.3-61.6c1.8-15.7-0.5-17.4-15.8-15.2C649.7,679.8,645.8,681.4,641.8,682.5z"/>
		<path class="st18" d="M616.7,714.3c3-0.8,4.6-2.3,3.9-6.1c-2.9-17.3,5.5-25,21.4-25.9c-20.1,7.6-14,29.5-22.3,43.6
			C618.7,722.1,617.7,718.2,616.7,714.3z"/>
		<path class="st17" d="M723.4,783.7c2.8-3.5,9.3-1.4,10.6-7.2c1-3,3.4-4.7,5.9-5.7c6.9-2.8,9-7.4,6.6-14.6
			c-2.3-7.1,0-12.8,6.9-14.7c6.9-1.8,10.3,3.6,11.6,9.5c1.7,8.2,5.5,10.5,12.7,6.8c2.7-1.4,5.4-0.2,8.1,0.5
			c13.6,3.5,13.2,3.4,16.2-11.4c1.2-6-3.6-17.1,9.6-15.6c4,8.8,12.8,13.8,16.6,22.9c1.5,3.6,5.5,4.3,8.5,3.3
			c9.9-3.4,21.5,0.3,30.2-8c3.2-3,8.2-4.8,11.7-2.7c10.4,6.1,16.2,0,22.5-7c2.6-2.9,4.9-7.4,10.4-5.7c1.5-0.4-1.3,1.5-0.9-0.3
			c0.2-0.9-0.2-0.8-1.2-0.5c-4.8,1.3-7.7,5.4-10.7,8.9c-5.1,5.8-10.2,9.4-18.1,4.9c-3.8-2.1-9.1-1.8-11.9,1.3
			c-8.1,8.9-19.3,5.3-28.7,8.8c-4.6,1.7-10.1,1.1-12.8-5.3c-3.2-7.6-11.2-11.6-14.3-19.3c-10.8-9.3-12.2-22.2-2.5-31.7
			c4.2-4,5.9-6.5,4.3-13.1c-2.3-9.4,6.7-16.1,15.9-13.7c8.4,2.2,12-5.7,16.9-10c4.5-3.8,7.6-8.2,13.7-10.9c8.1-3.5,9.9-12,2.5-19.7
			c-4.9-2.5-6.8-5.8-4.3-11.6c2.1-4.7,4-9.8,1.1-15.1c-1.6-2.9-3.9-6.2,0.5-8.5c3.6-1.9,6,1,8.4,3.3c2.7,2.5,5.2,6.8,9.3,4.7
			c21.8-10.7,46.2-9.5,68.9-16.1c14.8-2.6,29.2,3.8,44,1.9c5.9-0.8,12,0.8,17.7-2.1c1.2-0.8,2.5-1.4,3.8-1.8
			c18.5-4.2,32.1,5.5,45.2,16.8c0.8,1.2,1.4,2.4,1.8,3.8c0.2,3.6-0.2,7.1-2,10.3c-4.7,7-7.4,15.2-13.6,21.4
			c-5.6,5.5-11.6,9.5-19.2,10.3c-13.1,1.3-21.7,9.9-28.5,20.1c-3.3,4.9-6.4,9.1-11.4,11.9c-8.4,2.4-14.4,6.8-16.9,16.5
			c-2.3,9-10.6,12.9-18.3,16.3c-7.8,3.5-15.4,7.2-23.4,10.2c8.2-3,16.1-6.8,24.1-10.3c7.2-3.2,15.1-7,17.3-15.4
			c2.7-10.1,9.2-14.6,17.7-17.7c11-5.6,13.3-20.4,24.9-25.5c2.9-1.3,4.9-5.2,8.1-5.2c21.6,0,30.7-15.7,39.1-32.5
			c2.3-8.5,7.1-13.3,16.2-11.1c8.1,1.9,15.3-3.2,23.2-3c9.3,3.7,15.1-0.1,22.8-6.5c7.7-6.4,19.3,0.4,29.1,1.5
			c14.9,1.7,28.9-3.4,43.2-3.7c15.1-0.3,28.3-8.1,42.9-9.2c6.5-0.5,13.6,1.1,14.1,8.2c0.5,7.4,11.5,15.5-1.6,23.2
			c-8.1,4.8-8.7,15.8-6.9,24.5c1.7,8.2,0,13.8-6.6,16.6c-11.6,4.8-11.3,14.6-10.4,24.2c1.3,14.8-0.9,29.8,0.4,44.1
			c1.5,15.7,2.2,32.4,9.1,47.3c-2.6,6.3-7.8,8.2-13.8,8.6c-17.6-4.2-32-0.4-48,10.6c-15.9,11-36.1,16.7-56.9,14.5
			c-10.8-1.2-20.5,0.6-31.5,5.9c-13,6.3-23.9,17.7-38.9,19.8c-4.7,12-15,20.8-16.4,35.1c-0.8,8.7-10.6,10.7-18.6,11.8
			c-11.5,3.3-22.4,1.9-34-1c-25.5-6.3-51.5-4.6-77,1.1c-8.9,2-17.8-3.5-26,1.2c-19.6,11.4-42.2,16.3-60.1,31.5
			c-8.9,7.5-20.7,8.2-31.9,7.9c-19.9-0.6-20.2-0.6-20.5,20.1c-0.1,8.2,0.2,16.3-0.1,24.5c-0.2,5.1,0.5,10.8-4.9,14.1
			c-23.7,2.9-44.3-8.3-65.9-15.3l0.1,0.2c-7.1-14.2-6.9-30.4-11.9-45.2c-2-5.8-3.6-13.4,1.1-20.6c7.8-11.8,5.3-18.2-7.6-24.3
			c-13.9-6.6-13.5-6.1-2.2-15.8c7.1-6.1,12.5-14.4,13.2-24.1c0.6-8.6,2.9-15.9,8.1-22.3c3.6-5.1,5.8-11.4,11.3-15
			c6.3-4.8,6.4-15.9,16.3-16.9C720.1,781.2,721.9,782.1,723.4,783.7z"/>
		<path class="st17" d="M1220.1,780.7c4.6-1.9,9.2-3.8,13.8-5.8c6.4,9.3,4.7,22.8,18.6,29.2c7.4,3.4,5.9,19.5,14.4,27.2
			c1.4,1.2-3.5,7.1-7.1,9.6c-12.9,9-20.7,23.2-32.6,33.3c-1.2,1-1.3,3.3-2.6,7c20.9-9.7,24.5,11.4,34.8,19.2
			c19.5,14.7,24,39.4,30.6,61.6c3.8,12.8,8.6,25.1,14,37c2.6,5.7,0,10.1,0.7,15.1c0.7,5.4-5.8,4.9-9.4,5.6c-5.4,1.1-5.8-3.3-5.8-7.4
			c0-12,1.1-24.1-4.2-35.4c-2.2-4.7-3.4-9.9-8.2-13c-8.7-5.6-11.5-13-7.2-23.4c1.6-3.9,3.5-9.6-2.2-12.8c-4.8-2.7-7.4,1.2-10.8,3.8
			c-7.6,5.9-13.4,14.8-24,15.7c-1.2,0.1-2.7,1.3-3.3,2.5c-8.9,15.4-17.6,12.4-26.7,0.1c-1.4-1.9-4-2.8-5.6,0.4
			c-2.8,5.7-8.6,11.1-2,17.9c-1.3,8-7.6,5.9-12.1,5.7c-29.9-1.1-59.8,2.1-89.8-1.9c-9.2-1.2-19.9-0.3-29.6,2.1
			c-0.2,17.3-0.3,34.6-0.5,52c-10.6-6.2-5.9-16.8-6.1-25.4c-0.2-10.9-0.9-20.8-10.7-27.3c1.4-6.9,6-2.6,8.8-3
			c-15-3.8-17.4-8.3-13.9-25.7c0.9-2.8,2.5-5.1,4.1-7.5c3.7-5.6,1.1-7.8-4.3-8.3c-1.8-0.2-3.8-0.6-5.6-0.1
			c-23.8,6.2-37.7-9.2-51.5-25c-4.5-5.2-2.2-8.7,2.2-11.7c6.7-4.5,14.4-6.7,21.6-10c11.1-4.2,24.3-6.2,21.3-23.9
			c-0.3-2,0.8-4.4,2.3-4.9c10.4-3.4,8.3-14.6,12.8-21.7c8.2,0.2,14.1-4.7,21.1-8c16.4-7.7,31.5-22.8,52.3-14.8
			c6.9,2.7,14.1-0.5,20.3-2.9c15.1-5.7,32.5-5.8,44.3-19.8c7.5-8.8,18-5.3,27.5-5.8C1213.4,780.5,1216.7,785.1,1220.1,780.7z"/>
		<path class="st17" d="M892.7,534.7c21-8.4,42.7-1.8,64-1.8c7.5,0,14.1,0.4,20.7-3.1c10.8-5.8,21.2-5.5,31.5,1.2
			c4.4,2.8,9.4,6.1,14.3,4.7c17.4-5.2,26.3,6.3,33.2,18.8c9.4,16.9,22.1,30.6,35,44.3c3.7,10-4.6,10.2-9.4,10.3
			c-7.9,0.1-16.1,1.2-23.8-1.9l0.2,0.2c-12.3-13.2-25.7-23.4-44.9-17.4l0.2-0.1c-14.9,6.4-30.4,4.6-45.7,2.9c-7.6-0.8-15-4.1-22.8-1
			c-15.8,6.1-33.2,3.5-49.1,9.5c-3.8,1.4-8.6,1.2-11.8,3.8c-8.7,7-12.5,1.5-17.8-5.2c-5.4-6.9-5-11.7,1.4-16.7
			c7.4-5.9,10.6-13.5,12.1-23.2C881.4,550.6,886.2,541.9,892.7,534.7z"/>
		<path class="st19" d="M885,532.3c-12.7-1.8-19.9,10.8-31.3,12.8c-2.8,0.5-2.3,6-1.9,9.2c0.9,7.5-1.2,17.8-4.7,20.2
			c-17.1,11.2-21.1,32.6-35.7,45.2c-1,0.9-2.5,2-3.6,1.8c-9.8-1.3-16.9,2-22.7,10.6c-2.2,3.2-8.2,6.8-12.2,1.8
			c-5.2-6.6,2.8-8.7,4-14c5.1,5.2-1.8,7.9,0.5,12.2c5-2.5,8.1-7,11.3-11.3c1.3-1.8,2.2-5.8,4.4-4.7c13.4,6.6,16.9-6.3,24.6-12
			c10.3-7.7,10-17.4,8.3-28.1c-0.4-2.7-3.5-5.6-0.5-7.7c3.6-2.5,6.1,0.8,7.8,3.6c5.2,8.3,7.9,6,10-2c1.7-6.7,5.1-12.7,3.9-20.5
			c-1-6-3.7-11.1-8-11.3c-16.6-1-21.1-10.1-21.3-25.9c-0.3-23.2-10-30.1-31.8-25.1c5-8.3,18.4-9,25.6-2.7
			c11.4,10,12.4,23.2,12.8,36.9c0.1,2.2-1.3,4.4,0.5,6.7c2.9,3.6,34.1,10.8,37.4,7.7c5.7-5.3,12.9-6.6,19.5-9.7
			C882.8,528,883.8,530.2,885,532.3z"/>
		<path class="st20" d="M892.7,534.7c-4.2,12-11.3,22.8-13.2,35.9c-0.7,4.7-4.2,10-7.9,12.9c-5.9,4.7-9.3,7.4-3.5,15.4
			c5.3,7.3,8.8,7.6,16.7,3.7c18.4-9,39.3-7.7,58.9-12.3c1.2,0.7,2.8,0.9,3,2.8c-15.8,9.8-34.7,3.3-51,10.8c-2.1,1-4.5,0.9-6.7,1.7
			c-16,6-16,6.1-28-5.7c5.5,7.3,3.7,15,0.7,21.8c-2.5,5.9,0.5,8.6,3.4,12.1c0.9,0.5,1.2,1,1,1.5c-0.3,0.5-0.5,0.8-0.8,0.8
			c-7.2-3.5-21.6-3.5-7.8-17.3c2.4-2.4,2.4-6.8,0.7-9.6c-7.1-11.6-2.8-20.7,6.7-26.6c14.1-8.8,9.1-26.3,17.7-37.3
			c2.3-2.9,3.3-6.8,4.9-10.3C889.4,534.9,891,534.8,892.7,534.7z"/>
		<path class="st17" d="M1047,971.5c13.7,1.6,14.5,11.1,14.3,22.7c-0.2,10.6-3.1,21.7,2.1,32c13.8,0.3,27.7,0.6,41.6,1
			c11.6,0.4,12,11.3,13.9,18.6c1.4,5.5,1.9,14.9-3.4,18.3c-3.7,2.4-10-2.2-14.7-6.1c-8.9-7.4-15,6.5-23.8,4.7
			c-2.1-0.4-4.8,2.8-7.4,3.7c-6.5,2.1-15.9-0.8-19,5.8c-2.9,6.4-1.3,15-1.4,22.7c-0.1,8.7-0.4,17.4,0.1,26c0.8,12,5,21.4,16,28.2
			c10.2,6.3,25.2,10.4,18.4,29.7c-1.4,4,3.6,12.3,7.8,16.1c6.9,6.2,5.7,12.2,2.9,19.1c-0.6,0.8-1.5,1.6-2.2,1.3
			c-11.6-3.7-22.2-11.3-35.2-9.3c1.2-6.4-0.2-9.8-7.7-8.7c-12.9,1.8-19.4-4.9-17.2-18.7c1-6.4,0-12.1-0.7-18
			c1.2-5.1-1.7-5.2-5.3-4.7c-5.3,0.8-9.8-0.1-12.7-5.4l0.2,0.2c-8-4.4-15.9-9.4-25.7-7.5c-8.8,1.7-9.3-8.5-9.4-11.1
			c-0.4-14-12.1-18.2-19.8-20c-28.4-6.8-51.5-20.2-67-46.2c-2.2-8.9,3.4-14.6,8.3-20.2c4.3-5,9.3-9.6,14.6-13.4
			c7.9-5.8,13.4-11.7,13.6-23.1c0.1-9.9,5.4-19.3,9.6-28.5c1-2.2,2.2-5.1,4.3-5.5c14.5-2.7,25.4-15.2,39.2-17.4
			c14.8-2.3,29.1-5.2,43.1-10.2c4.2-1.5,9-2.8,13.6-0.5C1039.6,955.6,1043.4,963.5,1047,971.5z"/>
		<path class="st21" d="M692.2,812.4c-4.1,8-6.9,16.2-8.6,25.4c-2.3,12.5-8.9,23.6-21.3,28.8c1.8,4.6,5.2,5.1,8,6.3
			c16.9,7.2,18.3,11.6,9.9,28.6c-3.9,7.9-1.1,15.8,0.7,23.7c3,13.4,5.8,26.9,8.6,40.3c-12-17.9-10.6-39.8-16.4-59.6
			c-0.5-1.7,1.2-4.6,2.7-6.3c3.9-4.5,7.9-9.4,3.6-15.2c-5.3-7.2-13.5-10.7-22-10c-6.7,0.6-8.9,6.9-10.2,13.7
			c-2.8,15.2-14,24.8-24.6,38.1c0.3-8.5,4.1-11.9,7-16c5.6-7.9,12.2-14.8,13.3-26.1c1.1-11,11.8-17.2,19.7-23.1
			c11.3-8.6,17.9-18.5,18.4-32.9c0.2-6.7,2.9-12,8.1-16C690.1,811.3,691.1,811.3,692.2,812.4z"/>
		<path class="st22" d="M893.3,1068.9c-0.2-0.7-0.2-1.4,0-2.2c7.4,7.1,15.6,13.4,21.9,21.3c6.1,7.8,13.3,9.9,22.2,12.5
			c13.9,4.1,26.7,12.5,39.9,19.1c0.1,22.6,19.5,19,31.8,24.8c3,1.4,4.7,2.7,4.4,6.1c-9.9,1.8-17.9-7.9-29.1-4.1
			c-4.5,1.5-7.1-10.1-9.7-15.7c-6.5-13.8-19.7-20.5-33.4-14.3c-4.1,1.8-7.8,2.6-12.8,1.4c3.8-4.7,11.8-2.7,13.6-9.8
			C916.9,1106.7,903.5,1089.9,893.3,1068.9z"/>
		<path class="st23" d="M692.2,812.4c-1.1,0-2.1-0.1-3.2-0.1c0.4-2.3,0.9-4.5,1.7-8.6c-9,5.7-15.7,11.6-18.8,20.8
			c-2.2,6.6-6.4,11.5-10.9,16.3c-4.8,5.1-11.5,6-16.6,2.3c-19.2-13.5-30.2-10.2-40.4,12.8c-1.5,3.4-4.4,6-6.7,9
			c-0.8-15.7,11.1-33.5,24.4-34.7c6.4-0.6,12.7-0.2,19-2.3c3.5-1.2,6.4,0.8,7.1,4.9c2.6,14.8,9.2,7,12.8,1.6
			c7.9-11.6,14.8-23.8,24.1-34.7c4.3-5.1,14.8,0.8,13.7-10c9.6-0.1,12.7,3,5.1,11.2C699.6,804.7,695.9,808.6,692.2,812.4z"/>
		<path class="st24" d="M1057.7,1205.5c-0.5,0-1,0.1-1.5,0c-2-6.8-4-7.2-7.1-0.4c-1.8,4.1-4.5,10.2-9.8,6.6
			c-4.9-3.4-13.1-7.7-11.3-14.5c2.8-10.5-1.7-21.1,2.1-31.2c-1.5-3.7-2.2-7,3.6-6.5c4.6,9-0.9,18.7,2.3,28.2
			c2.4,7.1,3.3,11.1,11.6,6.8c3.6-1.8,9.4-2.2,12.7,2.2C1062.8,1200.1,1057.9,1202.3,1057.7,1205.5z"/>
		<path class="st25" d="M753.7,980.3c0.1,0.7,0.2,1.4,0.2,2.1c-11.9,0.7-23.1-0.2-35-3.8c-6.5-2-13.6-5.2-20.8-6.2
			c-3.5-0.5-9-0.2-8.7-6.8C711.1,969,731.3,979.6,753.7,980.3z"/>
		<path class="st22" d="M873.9,1153.4c0.4-11.5,9.4-16.7,17.3-16.8c11.6-0.2,19.2-2.5,22.9-14.5c0.6-1.9,3.5-3,5.5-4.6
			c-6,19.1-5.9,19.3-24.3,21.8c-9.4,1.3-14,10-21.6,14L873.9,1153.4z"/>
		<path class="st22" d="M831.8,1165c11.9,9.4,23.5-4.7,35.8-0.7c4.8,1.5,1.3-8.7,6.2-10.9l-0.2-0.1c0.3,10.4,1.8,22-14.7,15
			c-1.3-0.6-4,0.1-5,1.1c-10.1,12.2-16,3.6-22-4.6L831.8,1165z"/>
		<path class="st26" d="M1033.7,1159.5c-3.2,1-3.3,3.8-3.6,6.5c-4.4-1.4-5.3-8.2-11.7-7c-7,1.3-4.3-5-5-8.6
			c4.9,3.7,9.8,3.4,15.2,0.5c3.7-1.9,7.7,0.3,9.4,3.5C1039.8,1157.8,1036.5,1158.9,1033.7,1159.5z"/>
		<path class="st18" d="M865.4,636.2c0-0.8,0-1.6-0.1-2.3c11.9,4,3,11.6,2.7,17.5c-0.2,5.6-2.3,8.2-9,5.7c-5.3-2-6.3,6-10,8.1
			c-7,4-9.4,21.6-23.2,8.2c-1.5-1.5-11.4,7.1-8.2,14.9c2.4,5.9,0.9,9.8-2.8,12.5c-13.2,9.6-8.7,19.8-1.8,30.4
			c-0.4,0.3-0.8,0.7-1.2,1c-7.1-0.8-6.9,4.5-7.4,9.3c-0.6,4.7-1.2,9.5-1.9,14.2c-1.2,7.9-2.7,15.3-12.4,6.6
			c-1.6-1.4-4.6-2.7-6.4-2.2c-12.2,3.6-20,0.1-23.1-13.3c-0.7-2.8-4.2-3.9-7-2.7c-3.7,1.6-7.1,4.9-5.2,8.8
			c8.2,16.6-5.8,18.1-14.3,23.5c-0.4-4.6,2.2-7.2,5.8-8.8c5.5-2.5,6.5-7,4.2-11.8c-3.8-7.7,0.9-11.8,5.6-15.7
			c3.9-3.2,8.1-7.1,13.7-5.1c5.9,2.1,1.7,7.5,2.8,11.1c1.8,5.8,1.1,14.5,12,9.3c6.1-2.9,12.4,3,19.2,3.3c1-4.6,1.8-9.3,2.9-14
			c1.8-7.2,1.7-13.1-7.2-15.2c-11.6-2.7-13.7-18.6-26.5-20.6c-3.3-0.5,0-6.8,0.9-10.3c3.5-13.2-11.9-39.1-24.3-41.1
			c-2.2-0.4-3.6,0.8-4.4,2.6c-2.5,5.6-5.2,14.5-12,10.3c-9.5-5.7-23.8-8.1-23.7-24.5c0-4.9,2.2-11.1-5.4-12.7
			c2.9-2.1,6.4-3.7,8.5-6.5c4.1-5.4,3.4-10.7-3.8-11.7c-10.2-1.3-14.5-6.3-13-16.7c3.7,9.2,15.5,8.8,19,14.6
			c5,8.2,12.4,12,18.4,18.1c9.4,9.5,19.5,1.5,29.1,1.7c3.7,0.1,0.7-4.7,1.3-7c2-7.4,5.7-14.5,12.2-18.4c3.9-2.3,7.9,0.5,9.9,7
			c-10.7-5.9-13.7,1.6-16.1,9c-1.9,5.6-0.7,17.5-4.8,16.1c-10.6-3.6-21.9,7.3-31.5-3.2c-3-3.3-7-7.1-13.4-4.3
			c-6.8,3-5.1,9.3-5.4,13.4c-1,13,12.5,13.4,19.1,19.6c5.4,5,5.5-4.6,8-7.7c4.4-5.6,7.2-9.5,14.9-1.6c7,7.2,15.5,12.8,19.9,22.5
			c1.9,4.3,5.6,9,3.4,13.5c-5.3,11.1,1.2,16,8.3,22c5.2,4.5,10.8,11.5,16.6,10.8c6.8-0.8,1.9-10.8,5.2-16.2
			c2.2-3.8,1.2-9.5,6.7-11.5c4.1-1.5,3.5-3.8,2.1-7.8c-3.5-9.7,5.1-14.2,9.6-20.4c4.4-6,6.7-0.2,9.6,2.3c0.8,0.7,2.7,1.2,3.5,0.8
			c10.6-6.4,15.2-20,28.4-23.7C866.4,647.3,865.6,640.5,865.4,636.2z"/>
		<path class="st27" d="M723.4,783.7c-2-0.1-4-0.2-6.1-0.2c-1.6-1.3-2.2-3.2-2.4-5.2c-0.4-1.6,1-3.2,0-4.8c-0.6,2.1-1.3,4.1-2.7,5.8
			c-4.5,3.8-8.6,4.7-11.9-1.6c14.6-10.7,13-27.5,12.6-42.3c-0.2-10,5.3-14.7,9.9-20.5c2.5-3.1,7.5-2,8.2,3.1
			c0.7,5.6,2.4,13-0.2,16.9C720.4,750.3,722.4,766.9,723.4,783.7z"/>
		<path class="st28" d="M700.4,777.7c3.5,2,7,3.6,10.5,0c2.2-1.8,4.3-1.9,6.5,0c0,1.9,0,3.8,0,5.6c-9.1,2-5.5,15-14,17.4
			c5-7,0-9.1-5.1-11.2C698.2,785.5,696,781,700.4,777.7z"/>
		<path class="st29" d="M686.2,763.7c0.9-0.2,1.9-0.4,2.8-0.6c5.1,7.2,7.2,14.2-1.8,21.3C686.8,777.2,686.5,770.4,686.2,763.7z"/>
		<path class="st30" d="M1220.1,780.7c1.7,1.4,5.1,3.4,4.8,4.2c-1.1,3.3-3.4,2.9-6.5,1.6c-13.1-5.4-25.5-8.5-36.6,5.7
			c-4.1,5.2-10.8,9.9-19.4,8.9c-10.1-1.3-16.3,9.7-27.7,9.2c-7.6-0.3-15.7,2.7-24,0.6c-16.9-4.3-28.5,8.7-42.3,14.5
			c-7.8,3.3-14.1,11.2-23.9,7.4c-2.5,1-3.5,0.2-3-2.6c6.6-2.4,16.7,1.8,18.3-10.3c0.1-0.6,1.5-1.2,2.3-1.3
			c20.1-2.9,36.8-23.6,59.6-12c7.4,3.7,13.2-3.1,19.1-5.1c12.5-4.2,26.4-4.3,37-15.5C1189.6,773.8,1205.4,777.8,1220.1,780.7z"/>
		<path class="st20" d="M812.9,731.1c5.5,6.9,13.7,11.5,16.8,20.5c1.2,3.3,4.7,4,7.1,3c10.1-4.3,22.4,0.1,31.4-8.5
			c1.3-1.2,3.8-2.8,5-2.3c14.5,6.5,23.5-2.1,32.7-11.5c1.6-1.7,5.3-1.5,9.3,1.2c-6.8,0.7-10.7,4.6-14.2,8.8c-6,7.4-12,13.6-22.3,6.8
			c-2.7-1.8-7.2-1-9.2,1.4c-8,9.8-19.8,6.8-29.7,9.4c-9.7,2.6-22.3-10.8-28.1-27.7C812.1,731.7,812.5,731.4,812.9,731.1z"/>
		<path class="st31" d="M985.7,682.5c6.7-10.6,12.3-22.1,23.9-28.3c2-1.1,3.8-3.7,5.8-3.8c20.8-1.1,31.4-17,42.9-31.5l-0.2-0.2
			c-4.1,19.5-16.5,31.1-34.8,34.6c-11.3,2.2-19.5,10.2-25.1,20.3c-3,5.5-6,9.5-12.7,8.7L985.7,682.5z"/>
		<path class="st20" d="M985.5,682.3c-8,5.7-13.6,13.2-17.4,22.5c-3.3,8.1-11.7,9.9-19,13c-9.6,4.1-18.9,9-31.8,15.2
			c2.6-4.7,7.4-11.9,14.2-12.6c34-3.4,84.3,161.6,79.1,163.9c-5.4,2.4-46.1-178.1-41.5-192.4c1.5-4.5,4.5-6.9,4.5-6.9
			c3.1-2.5,7.3-3.2,12.1-2.6C985.6,682.5,985.6,682.4,985.5,682.3z"/>
		<path class="st32" d="M1041.6,830.3c1,0.8,2,1.7,3,2.6c-1.1,8.3,2.4,19-10.5,21.1c-0.9,0.2-2.4,2.2-2.3,3.1
			c3.4,17.9-9.8,21.8-21.2,27.2c0-1.7,0-3.4,0-5.1c8.9-4.1,17.4-6,16.1-21.2C1025.9,849.3,1038.2,840.8,1041.6,830.3z"/>
		
			<image style="overflow:visible;enable-background:new    ;" width="488" height="514" id="ciudades_x5F_verde" xlink:href="D2FCDD34.png"  transform="matrix(2.2573 0 0 2.6711 188.5264 66.2001)">
		</image>
		<path class="st33" d="M715.9,758.3c4-12.4-1.7-27.6,10.3-39.4C731.6,735.8,716.9,745.3,715.9,758.3z"/>
		<path class="st34" d="M717.4,777.8c-2.2,0-4.3,0-6.5,0c1.2-4.2,0.2-9.3,5-12.1C720.2,769.3,719.9,773.4,717.4,777.8z"/>
		<path class="st35" d="M697.8,633.2c-5.7-1-12.3,3.3-17.2-2.9c6.7-5,6.1-12.7,4.9-19.3c-1-5.6-0.4-9.2,4-12.3l-0.2-0.2
			c2,5.7,3.4,12.7,10.2,13.5c7.3,0.9,10.5,4.3,10.5,11.4c0,8.6-7.3,7.8-12.4,9.9L697.8,633.2z"/>
	</g>
	<path class="st36" d="M1074.9,1024.7c-3.8-0.1-8.6-0.8-8.6-5.1c0-12.8-4.5-26,2.8-38.2c5.8-4.7,12.6-6.5,19.6-5.5
		c30.1,3.9,60.3,0.2,90.4,2.2c9.6,0.6,12.8-6.5,18.6-10.5c11.3,8.2,20.7,14.9,30.4-4.4c3.8-7.4,17.9-10,26.7-17.9
		c-0.4,6.3-0.7,11.3-1.1,16.4c-6,2.7-10.4,7.6-15.5,11.6c-7.4,5.9-13.8,17.6-25.8,6.5c-2-1.8-7.2-1.7-8.9,1.3
		c-5.8,10.2-16.1,8.5-24.3,9c-28.2,1.6-56.3,5.1-84.6,3.8C1074.5,992.9,1068.3,1003.3,1074.9,1024.7z"/>
	<path class="st37" d="M342.4,271.7c17.1-12.5,21.6-32.3,26.9-51.4c3.5-12.6,2.9-26.5,13.7-36.4c3.2-3,4.5-8.1,2.9-13.4
		c-2.2-7.1,1.1-12,6.9-15.5c-1.9,10.2-3.9,20.7-2.1,30.9c1.8,9.5-7.6,12.7-8.5,20.1c-2.7,22.2-10.2,42.5-19.6,62.6
		c-3.2,6.8-9.3,6.5-13.6,10C346.1,280.8,342.9,275.9,342.4,271.7z"/>
	<path class="st38" d="M1236.5,771.2c-8.4-12.4-6.1-27.3-8-41c-1.9-13.6-2.7-28.4-0.5-41.3c3.3-19.3,14.5-36.6,17.1-57
		c0.8-6.3,13.5-9.8,12.2-20.5c7.3,9.5,7.4,18.8-0.7,27.9c-2.2,2.4-5.3,5-5.7,7.9c-5.3,35.6-28.8,68.5-14.7,106.9
		C1238.2,759.6,1237.5,765.5,1236.5,771.2z"/>
	<path class="st39" d="M1055.7,1140.4c-7.9-18.7-2.4-38.4-3.6-57.6c-0.1-1.4,1.9-4.1,3.1-4.2c14.2-0.6,27.1-10.7,42.3-4.6
		c15.1,6.1,21.3,1.8,23.6-14.7c0.5-3.8,1-7.6,1.5-11.3c2,7.6,4.7,15.1,5.8,22.9c1.7,12.9-6.3,19.9-17.9,15.3
		c-16.3-6.4-31.6-1.8-46.9,3.3c-5.8,1.9-8.1,7-7.9,13.6C1055.9,1115.5,1055.6,1128,1055.7,1140.4z"/>
	<path class="st40" d="M1080.7,1348.8c6.7-37.4,14.7-74.6,18.8-112.5c1.2-10.9-3.7-21.6-1.7-32.6c11.2,29,12.6,58,1.8,87.7
		c-5.5,15.2-10.8,30.8-10.7,47.4C1089.1,1345.4,1083.7,1345.7,1080.7,1348.8z"/>
	<path class="st41" d="M482.5,1105.9c12.7,1.9,25.7-1.4,38.4,2c4.6,1.2,9.2,0.1,13.1-3.2c13.9-11.9,17.1-11.4,29.7,4
		c-9.6-4.8-17.2,0.4-25.3,4.8C516.6,1125.1,494.9,1121.9,482.5,1105.9z"/>
	<path class="st42" d="M932.3,1325.5c10.6-1.7,21.6-0.2,30.6-9.3c4.6-4.6,11.8-1,17.1,1.7c13.5,6.9,24.7,18.2,39.9,21.9
		c2.2,0.5,2.3,3.9,1.7,6.4c-10-1.3-17.4-8.3-25.4-13.5c-8.8-5.6-16.4-9.5-26.2-1.7C956.1,1342.1,944.2,1332.4,932.3,1325.5z"/>
	<path class="st43" d="M1247.8,880.8c-3.9-0.9-7.8-1.9-12.2-2.9c8.1-17.6,27.8-23.5,35-40.9c8.5,8.5,8.2,16.1-1.5,23.8
		C1261.5,866.8,1256.4,875.8,1247.8,880.8z"/>
	<path class="st44" d="M393.1,149.8c-0.8-13.1-2.9-26.3-2.1-39.3c0.8-12.8,13.4-14.1,22.1-18.8c6.4,6.2,6.8,11.4-2.4,14.7
		c-16.8,6.1-9.9,23.2-14.9,34.7C394.7,143.8,396.9,147.8,393.1,149.8z"/>
	<path class="st45" d="M859.1,496.8c-6.4,0.3-8-4.2-7.7-9.4c0.7-12-3.4-24.9,6.7-35.2c3.5-3.5,1.4-9.2,1.8-13.9
		c11,8.6,6.7,21.7,3.7,29.9C860.1,477.9,860.3,487.2,859.1,496.8z"/>
	<path class="st46" d="M865.4,1334.3c12.3-8,26.8-11,39.4-19.4c7.5-5,21.9-2.8,27.5,10.7c-18-3.6-34.7,3.9-51.9,6.7
		C875.4,1333.2,870.4,1333.7,865.4,1334.3z"/>
	<path class="st47" d="M585.7,1123.6c8.2,0.2,14.3,5.8,21.5,8.4c3.9,1.4,8.6,4.1,11.8,2.9c13.6-4.8,22,4.3,31.4,11.1
		c-22.4,6.2-39.7-9.5-59.4-14.8C588.8,1130.6,587.4,1126.2,585.7,1123.6z"/>
	<path class="st48" d="M873.7,172.7c5.4-18.4,20.4-21.1,35.7-23.5c5.8,7.6,1.2,11-5.3,11.6c-7.6,0.6-12.6,3.8-16.3,10.5
		C884,178.1,878.2,169.7,873.7,172.7z"/>
	<path class="st49" d="M1041.3,1475.7c10.6,2.6,15.9-0.9,17.7-12.8c1-7.2-0.6-15.4,4.6-21.8c0.6,12.8-2.2,25.8,1.8,38.5
		c2,6.1-1,7.8-6.3,7.3c-7.8-0.7-15.7-1.4-24.2-2.2C1037.5,1481.2,1042,1480.4,1041.3,1475.7z"/>
	<path class="st50" d="M460,146.3c10.2-5.7,20.3-11.4,30.5-17c1.5,11.5,1.4,20.4-13.2,24.3C467.5,156.2,464.1,152.8,460,146.3z"/>
	<path class="st51" d="M1289.6,1033.1c13.9-4.2,19-14.1,17.2-28.5c8.5,7.4,0.8,21.7,11.1,28.3c-3.9,4.6-7.8,9.9-14.2,10
		c-4.2,0.1-10.7,3.5-11.8-5.2C1291.8,1036.1,1290.5,1034.6,1289.6,1033.1z"/>
	<path class="st52" d="M443.4,778.5c-3.5,9.8,3.7,18.6,8.2,22.2c14.6,11.5,6.9,17.8-2.5,25.2c-3.7-18.3-10.1-36.1-10.8-55
		c0.9,0.2,1.6,0.6,2.1,1.3C442.7,773.7,444.1,775.5,443.4,778.5z"/>
	<path class="st53" d="M811.8,1334.9c17.8-6.8,35.7-3.9,53.5-0.5c-13.5,7.5-29,3.5-43,8.1C817.3,1344,814.5,1338.6,811.8,1334.9z"/>
	<path class="st54" d="M770.5,1279.2c0.9-0.1,1.7,0.1,2.5,0.4c6.1,4.1,11.5,9,16.6,14.2c2.7,2.7,3.3,5.4,0.2,8.4
		c-4.2,4.1-4.5,9-2.2,14.2c-2.8,1.2-5.6,2.3-9.1,3.8C780.1,1305.5,775.2,1292.4,770.5,1279.2z"/>
	<path class="st55" d="M999.5,1452.5c9.4,2.3,22.7-7.7,27.4,9.3C1015.9,1464.7,1005.6,1465.3,999.5,1452.5z"/>
	<path class="st56" d="M1066.2,1429.5c0-11.1,3.9-21.4,6.1-32c2.9,0.3,6,1.2,4.4,5C1073.1,1411.5,1072.3,1421.6,1066.2,1429.5z"/>
	<path class="st41" d="M460,1097.5c10-4.3,15.1,5.6,22.6,8.4c-5,0-10-0.3-15,0.1C461.2,1106.5,459.7,1103,460,1097.5z"/>
	<path class="st57" d="M859.5,106.3c0.2,5.7-2.1,10.4-5.5,14.6c-3.4-0.5-10.2-1-9-3.1C848,112.5,852.3,106.8,859.5,106.3z"/>
	<path class="st58" d="M496.2,435.3c0.8,6.3,5,12.3,1.3,20.1c-6.4-6-3.2-13.3-4.1-19.6C494.4,435.7,495.3,435.5,496.2,435.3z"/>
	<path class="st59" d="M552.3,719.2c-10.5,4.2-8.6,15.9-13.1,23.8c-5.6,9.8-19.3,16.2-10.4,33.4c4.8,9.2-20.8,17-34.3,11.8
		c-14.4-5.5-29-14.6-45.7-8c3.4-10.5,8.4-12,19.2-8.1c15.2,5.5,29.7,15.6,47.8,11c9.6-2.4,10.8-5.7,6-13.3
		c-5.4-8.6-4.8-14.9,5.2-19.2c7.2-3.1,9.1-11.5,10.5-17.5c2.2-9.3,7.1-14,14.5-17.5C552.1,716.7,552.2,718,552.3,719.2z"/>
	<path class="st60" d="M451.5,852c6.8,2.9,12.8,10.1,21.1,2.9c1.3-1.2,5.6-1.1,6.6,0c9.1,11.4,21,3.1,31.3,5
		c4.6,0.8,10.8-0.1,11.6-5.5c2.8-18.9,14.3-8.5,22.8-7.7c2.5,0.2,4.8,2.8,7.1,4.3c0,6.1,0,12.1,0.1,18.2c-2.7-2.6-2-6.2-2.4-9.5
		c-0.9-8.7-8.1-7.6-13.5-9.6c-6.3-2.4-6.6,2.9-8.7,6.3c-1.7,2.8-3.9,7.6-5.7,7.5c-12.8-0.7-26.4,9.8-38.4-1.6
		c-4.8-4.5-8.4-4.5-13.3-1.2c-9.4,6.2-16.4,2.9-21.5-6.4C449.5,854,450.5,853,451.5,852z"/>
	<path class="st61" d="M533.2,386.1c1.6,7.1,8.1,11.1,10.7,16.9c4.1,9,6,18.3-0.6,28.9c-11.4,18.4-15.4,40.1-19,61.6
		c-6.4-5.4-3.7-12.5-2.1-18.3c4.2-15.1,7.3-30.7,15.6-44.3c6.8-11.2,9.9-21.9-4-30.2c-1-0.6-0.8-3.5-1.2-5.3
		C532.9,392.3,533.1,389.2,533.2,386.1z"/>
	<path class="st62" d="M728.2,299.8c11.4,3.1,10.7,14.3,10.9,22c0.1,6.6-8.9,4.2-14.1,4.4c-2.8,0.1-5.9-0.8-7.5,2.3
		c-2.3,4.6,2.7,5,4.3,7.4c6.2,9.3,9.5,20.4,16.7,29.2c2.2,2.8-1.2,7-3.7,9.9c-1.2-1-2.5-1.9-3.7-2.9c5.6-5.2,0.4-9.1-2.2-12.1
		c-7.2-8.3-8.3-20.2-17.5-27.9c-4.7-3.9,4.5-10.8,7.2-10.7C740.4,322.5,731.5,309.9,728.2,299.8z"/>
	<path class="st63" d="M585.7,493.5c8.9-7.3,14.6-17.3,21.6-26.2c9.9-12.5,21.3-23.6,39-22.4c4,0.3,3.7-5.1,6.8-6.3
		c1.8,1.9,3.6,3.8,5.4,5.7c-9.6,4.3-19.7,6.7-29.5,9.7c-9.8,3-15.5,14.7-22.2,23.3C601,484.7,596.5,493.4,585.7,493.5z"/>
	<path class="st64" d="M756.2,218.5c5.4,17.8-1.8,33-16.8,35.7c14.6-9.4,13.5-24.2,9.3-37.6c-3.7-11.6-3-21.6,1.5-32
		c2.3,0,4.5,0.1,6.8,0.1c-4.4,9.3-10.5,18.5-3.3,29.2C755.7,214.7,757.1,215.9,756.2,218.5z"/>
	<path class="st65" d="M650,261.6c3.1-13.9,15.9-25,10.6-41.4c-1.6-4.9-1.6-10.4-2.3-15.6c1.1,0,2.2,0.1,3.3,0.1
		c4.2,15.8,9.8,31.5-2.1,46.6c-3.4,4.4-5.9,9.5-8.8,14.3C650.5,264.3,650.2,263,650,261.6z"/>
	<path class="st66" d="M733.9,1152.3c17.3-4.1,29.3,13.7,46.1,12.2c1.2-0.1,2.8,3.3,4.2,5.1l0.2-0.2c-11.4-1.7-23.6,0.4-33.1-9.3
		c-4.8-4.9-11.6-0.6-17.3-2.1C733.9,1156.1,733.9,1154.2,733.9,1152.3z"/>
	<path class="st67" d="M605.5,739.5c-8.2,9.2-5.2,24.2-16.4,32c4.2-12.6,8.5-25.2,12.7-37.8C605,734.3,605.4,736.8,605.5,739.5z"/>
	<path class="st68" d="M762.4,412.1c3.5,1.3,8-0.9,10.8,3.1c-4.2,0.8-1.6,8.7-6.2,7.5C762.5,421.6,764.5,415.5,762.4,412.1z"/>
	<path class="st69" d="M560.7,990c3.4-4.4,6.7-8.8,10.1-13.3c1,8.6-3.7,13.2-10.1,16.5C560.7,992.2,560.7,991.1,560.7,990z"/>
	<path class="st70" d="M1058.1,978.9c12.2-2.9,23.9-5.5,37-4.6c31.4,2.1,63.1,4.3,94.5-1.3c4.3-9.3,4.3-9.3,8.1-5.5
		c-2.5,12.8-10.4,15.4-22,14.5c-29.6-2-59.4,2.7-88.9-2.8c-5.9-1.1-11.4,4.3-17.7,2.2C1066.1,977.5,1061.9,979.3,1058.1,978.9z"/>
	<path class="st71" d="M1052.4,611.8c7.8,0,15.5,0.2,23.3,0c5.2-0.1,10.4-0.8,10-8.3c2.1,2,4.2,3.9,6.3,5.9
		c-5.9,5.9-13.6,8.9-20.9,7.1c-8.6-2.1-13.7,0.9-18.6,6.9l0.2,0.2C1052.5,619.6,1052.4,615.7,1052.4,611.8z"/>
	<path class="st72" d="M1052,1210.1c10-3.8,19.3-5.7,26.9,5.3c1.8,2.6,5.9,4.2,9.9,3.2c1.6,3.1,6.5,4,5.6,8.8
		c-5.5-2.8-10.5-8.1-17.5-3.8c-2,1.2-3.7-0.1-4.4-1.9c-3.7-9.2-10.5-8.4-18-6.5c-3.7,0.9-4.9-1.4-4-5
		C1050.9,1210.1,1051.5,1210.1,1052,1210.1z"/>
	<path class="st73" d="M789.6,1293.9c-8.6-0.9-13.6-6.3-16.6-14.2C783.3,1278.4,792.4,1278.8,789.6,1293.9z"/>
	<path class="st74" d="M611.6,930.9c5.2,19.1-19.2,19.2-20.7,34.4C591.6,950.1,606.9,944,611.6,930.9z"/>
	<path class="st75" d="M826.2,1169.4c-14,1.7-28,6.5-42,0.1c0,0-0.2,0.2-0.2,0.2c5.6-0.9,12,1.6,16.7-4.1c0.9-1.1,4.3-2,4.8-1.3
		c5.8,6.4,14,2.5,20.5,5.4C826.1,1169.6,826.2,1169.4,826.2,1169.4z"/>
	<path class="st61" d="M524.3,493.4c9.2,12.4,22.7,9.8,35.3,12.4c13.5,2.8,17-10,26.4-12.4c-3.4,14.2-11.3,20.9-26,17.3
		c-4.8-1.1-10.1-0.7-15.2-0.3C532.7,511.2,525.4,506.4,524.3,493.4z"/>
	<path class="st76" d="M729.8,256.5c-1.4,3-2.2,6.5-4.2,9c-8.7,10.5-9.9,20,1.8,29.2c1.1,0.8,0.7,3.5,1.1,5.4
		c-8.1-5-16.4-10.5-14.1-21.9C716.1,268.9,719.8,260,729.8,256.5z"/>
	<path class="st77" d="M756.2,218.5c-0.9-1.5-1.7-3.1-2.6-4.6c18.7-7.7,28.2,7.4,39.4,17.4c7.6,6.8-4.2,12.5-2.4,19.4
		c-0.5,2.6-1.4,4.9-4.4,2.8c-2.7-1.9-3.5-4.8-1.1-7.3c8.6-9,1.1-11.1-4.2-17.6C773.5,219.4,767.6,213.9,756.2,218.5z"/>
	<path class="st78" d="M941.1,597.7c-1-0.9-2-1.8-3-2.8c3.2-1.9,6.3-4,10.3-2.7c19.6,6.4,39.6,4.5,59.5,2.2c-1.6,6.2-6.5,5.3-11,5.9
		C978.1,602.6,959.7,598.1,941.1,597.7z"/>
	<path class="st79" d="M1007.7,594.6c17.6-8.2,37.4-0.5,44.9,17.4C1038.7,603.1,1025.6,592.1,1007.7,594.6z"/>
	<path class="st80" d="M1032.4,953.2c2.1-1.1,4.1-2.1,6.2-3.2c-4.4,13.3,0.1,21.4,14.8,24.3c-4.8,3-8.5,2.1-12.2,1.8
		C1035.5,969.6,1028.9,963.5,1032.4,953.2z"/>
</g>
</svg>
