<?xml version="1.0" encoding="utf-8"?>
<!-- Generator: Adobe Illustrator 26.0.0, SVG Export Plug-In . SVG Version: 6.00 Build 0)  -->
<svg version="1.1" id="Capa_1" xmlns="http://www.w3.org/2000/svg" xmlns:xlink="http://www.w3.org/1999/xlink" x="0px" y="0px"
	 viewBox="0 0 1050 1050" style="enable-background:new 0 0 1050 1050;" xml:space="preserve">
<style type="text/css">
	.st0{display:none;}
	.st1{fill:#040201;}
	.st2{fill:#060402;}
	.st3{fill:#050301;}
	.st4{fill:#0A0503;}
	.st5{fill:#060401;}
	.st6{fill:#060302;}
	.st7{fill:#F9640C;}
	.st8{fill:#F8630C;}
	.st9{fill:#906E4E;}
	.st10{fill:#AC907A;}
	.st11{fill:#A68265;}
	.st12{fill:#8E694D;}
	.st13{fill:#906D52;}
	.st14{fill:#F4C030;}
	.st15{fill:#F1BD2F;}
	.st16{fill:#EDBA2E;}
	.st17{fill:#D8AB2B;}
	.st18{fill:#89684A;}
	.st19{fill:#926F50;}
	.st20{fill:#906B4F;}
	.st21{fill:#A1786D;}
	.st22{fill:#96755A;}
	.st23{fill:#A79281;}
	.st24{fill:#8F6754;}
	.st25{fill:#745840;}
	.st26{fill:#835D3B;}
	.st27{fill:#8B684A;}
	.st28{fill:#DAAA90;}
	.st29{fill:#9A775C;}
	.st30{fill:#C48F74;}
	.st31{fill:#8C6A4B;}
	.st32{fill:#B3988D;}
	.st33{fill:#A89381;}
	.st34{fill:#80563C;}
	.st35{fill:#93190B;}
	.st36{fill:#92190B;}
	.st37{fill:#94AA0B;}
	.st38{fill:#342904;}
	.st39{fill:#362C04;}
	.st40{fill:#3B3004;}
	.st41{fill:#423805;}
	.st42{fill:#342B04;}
	.st43{fill:#322604;}
	.st44{fill:#3C3305;}
	.st45{fill:#3C3205;}
	.st46{fill:#100B01;}
	.st47{fill:#2C2103;}
	.st48{fill:#4F4706;}
	.st49{fill:#5E5D07;}
	.st50{fill:#241C03;}
	.st51{fill:#493D05;}
	.st52{fill:#2F2604;}
	.st53{fill:#8C960A;}
	.st54{fill:#8C9A0A;}
	.st55{fill:#94A80B;}
	.st56{fill:#B48867;}
	.st57{fill:#513B28;}
	.st58{fill:#2F0804;}
	.st59{fill:#230603;}
	.st60{fill:#6E4813;}
	.st61{fill:#58390F;}
	.st62{fill:#55360E;}
	.st63{fill:#40280B;}
	.st64{fill:#674612;}
	.st65{fill:#362904;}
	.st66{fill:#362B04;}
	.st67{fill:#605907;}
	.st68{fill:#463B05;}
	.st69{fill:#865C40;}
	.st70{fill:#916A56;}
	.st71{fill:#F1E6E4;}
	.st72{fill:#FFFFFF;}
	.st73{fill:#171106;}
	.st74{fill:#453B05;}
	.st75{fill:#454005;}
	.st76{fill:#433A05;}
	.st77{fill:#51330D;}
	.st78{fill:#4B300C;}
	.st79{fill:#312104;}
	.st80{fill:#2A2303;}
	.st81{fill:#2D1F03;}
	.st82{fill:#302204;}
</style>
<g id="Capa_2_00000168117743069331229680000004405853105682530200_" class="st0">
</g>
<g id="Capa_1_00000136405189640310961240000010281938175267407243_">
	<path class="st1" d="M562.4,240.4c0.8,8.8,12.7,5.5,14,13.8c1,2-0.3,2.5-1.8,2.9c-5.7-1.4-12.2,0.3-16.4-6.4
		c-2.1-3.4-16.8,2.8-16.4,7.1c1.1,10.9-5,19.6-6.1,29.6c-0.1,5,4.4,1.9,6.1,3.7c-0.6,12.7,6.4,24.9,2.4,37.9
		c-2,6.3-5,13.9-10.7,14.3c-6.7,0.5-9.6-7.7-12.7-13.5c-1.4-2.7-1.8-5.7-3-8.7c2.9,10.5,1.5,20.2-2.9,30.1
		c-2.5,5.8-3.7,12.9-0.7,19.6c1.8,3.9,0.3,7.1-2.7,9.9c-2.9,2.7-5,6.7-8.1,8.6c-12.3,7.6-16.5,21.1-23.3,32.7
		c-2.4,3.5-2.4,7.5-2.2,11.6c0.1,4.3-0.2,8.8-3.9,12c-2.1,2.3-4.2,4.8-6.3,7.1c-12.1,0.8-20.9,7.4-28.8,16.6
		c-4.2,4.9-7.6-0.4-9.6-4.2c-3-5.7-5.7-9.6-10.2-1.2c-1.8,3.2-5.9,2.2-9.2,3.2c1.8,4.3,9.8,6.4,4.3,12.2c-3.4,3.5-7.6,6.2-9.4,9.6
		c9.3,2,18.1,5.2,24.6,13.5c1.4,2.8,2.1,5.7,1.6,8.9c-1.1,3.5-2.2,6.9-6.6,7.1c-1.9-0.3-3.3-1.8-5.1-2.1c-12.4,0.8-12.4,1-10.1,13.2
		c2.3,12.7,4.1,25.5-5.2,36.8c-4.3,5.2-5,12.2-7.3,18.5c-5,13.6-2.8,24.7,8.7,33.5c5.1,3.1,7.9,7.3,5,13.4
		c-2.7,5.7-1.3,15.3-11.7,14.5c-1.3-0.1-3.4,0-3.6,0.8c-4.8,13-18.9,10.5-27.2,17.6c-3.4,2.9-3.6,5.3-0.2,8c1.3,1,3.5,1.7,3.6,3.2
		c1.1,13.4,11.7,14.2,20.8,16.9c0.6,0.8,0.8,1.7,0.8,2.7c-0.8,2.3-2.8,3.6-4.1,5.6c-6.4,9.7-4.7,11.8,4.8,18.3
		c12.8,8.7,27.7,12.5,40.4,20.6c8.3,5.2,18.1,11.8,20.8,23.6c0.9,3.9,4.2,5,7.4,5.6c6.9,1.4,11,5.4,11.7,12.8c0.3,3.1,2.2,4.8,5.1,5
		c14.6,1.1,24.2,11.6,35.2,19.5c0.6,1.4,0.7,2.8,0.3,4.3c-4.8,6.4-12.3,6.9-19,9c-5.5,1.7-6,4-3.4,8.4c1.8,2.9,3.2,5.8,3.4,9.3
		c0.1,1.7,0.6,4.2,2,4.3c10.1,0.2,15.1,10.4,24.5,12.6c12.7,2.9,20.9,23.2,14.2,33c-0.4,0.1-0.9,0.3-1.3,0.4
		c-7.4-2.7-2-13.5-10.1-16.6c-2.4-0.9-5-5.2-8.2-6.1c-10.4-2.9-16.9-12.1-26.2-16.9c-5.7-3-3.6-11.8-6-17.8
		c-2.9-7.3-6.7-13.1-13.1-16.4c-6-3.2-8.5-11.3-16.3-11.3c-10.3-6.2-22.6-4.4-33.3-9.4c-4.1-2-8.3-3.8-12-6.3
		c-7.5,0.2-10.4-6.8-15.4-10.4c-6.6-4.8-13.2-9.5-20.2-0.5c-1.2,1.5-3.4,2.5-5.2,2.4c-10.5-0.6-21.4,1.4-31.4-3.8l0,0
		c-5.2-2.1-11.1-2.2-15.8-5.9c-7.4-1-11.2-5-14.4-12.5c-2.4-5.7-8.6-11.5-16.5-11.3c-5.3,0.1-9.2-2.2-12.8-6
		c-8-8.3-16.5-15.3-27.7-19.8c-12.1-4.8-19-17.6-28.1-26.9c-1.9-2-1.8-5.9,0.7-7.1c5.4-2.6,7.4-11.3,15.1-9.2
		c2.4,0.7,4.5,2.7,7.3,1.2c1.5-3.5-2.1-3.5-3.2-5.1c-6.4-9-3.1-16.8,1.3-25.8c7.3-14.9,16.9-23.7,33.9-21.2
		c7.6,1.1,13.7-1.5,17.5-9.3c5.4-10.9,11.6-21.5,18.8-31.2c1-1.3,0.4-3.8,0.6-5.9c4-6.4,4.2-11.8-0.8-18.5c-2.6-3.4-8-8.8-2.9-15
		c2,0.1,3.6,1.1,5,2.5c3,3.1,5.5,6.6,8.8,9.4c7.8,6.6,8.3,15.8,1,23.3c-4.6,4.7-7.9,9.8-8.3,16.6c-0.4,1.5-1.2,2.7-2.3,3.6
		c-4.9,3.6-8.2,8.6-10.9,14.1c-2.8,5.7-5.6,11.3-9.7,16.2c-4.3,5.2-3.4,16.4,1,21.7c3.5,4.2,7.8,2.4,11.8,1.4
		c4.9-1.2,10.9-5.6,14.3,0.1c3.9,6.4,9.8,13.5,7,22c-2.1,6.2-0.4,7.6,4.9,6.3c7.2-1.7,12.9-0.4,16.2,7.1c1.1,2.3,2.8,3.7,5.3,3.8
		c10.1,0.6,13.9,7.3,15.3,16.5c0.5,3.3,1.3,6.6,2.3,9.4c1,0.8,1.8,0.2,1.3-0.3c-4.6-6.7,10.5-15.5-2-20.9
		c-7.6-3.3-7.2-12.8-14.1-17.3c-6.2-4.1-4.8-18.5,1.3-23.6c3.8-3.1,7.7-7.4,12-8.4c9.2-2.2,14.8-9.6,22.8-13.4
		c6.5-3.2,5.9-6.5,1.5-11.4c-4.1-4.7-8.6-9.2-10.7-15.5c-0.7-3.5-0.6-7.1-0.3-10.6c1.8-15,4.9-29.7,13.5-42.5
		c2.7-4.1,0.4-8.5,0.6-12.7c0.7-9.4-3.4-18.2-2.9-27.7c0.3-5.2-5.2-8-9.4-10.7c-0.6-0.8-1-1.6-1.3-2.6c-0.4-5.4-1.1-10.6-4.7-15.1
		c-4.9-6.1-4.3-13.2,0.1-18.7c3.8-4.8,3.8-8.8,2-13.9c-2.3-6.3,0.6-14.5-4.6-19.2c-4.8-4.5-11.9-0.3-17.9-1.4
		c-8.1-1.3-13.2-5.6-14.4-14.1c-0.7-5-1.9-9.8-4.6-14.2c-8.3-14-4.8-26.1,9.5-33.7c2-1,4.6-0.8,6.4-4c-8.6-5.5-11.7-16.4-21.8-21.5
		c-9.6-4.8-10.2-13.2-4.1-22.3c5.8-8.8,5.2-15.4-1.8-23.2c-2.5-2.7-5.5-4.8-7.7-7.8c0.6,8.3,4.7,15.2,9,21.9c2,3,3.4,6.2,0.3,9
		c-5.9,5.1-8.9,12.4-13.5,18.4c-3.4,4.5-6.4,9-13.7,6.8c-3.6-1-5,4.8-7,7.6c-2.4,3.4-2.9,7.8,0.4,11.2c8.1,8.2,10.7,20.4,20.1,27.9
		c4.8,3.7,6,10.5,3.9,16.8c-3.3,9.9-2.2,19,3,27.7c1,1.7,1.5,3.7,2.1,5.7c1.3,3.9,1.2,8.5-1.7,10.4c-9.9,6.4-6.5,15.7-5.2,24.1
		c1.5,9.6,1.8,19.2,4.5,28.8c3.8,13.4-3.4,27.9-14.4,32.8c-0.9-0.2-1.8-0.6-2.4-1.3c-0.5-6.7,7-8.2,8.1-14.8c2.9-17.3-1.7-34-1.8-51
		c0-2.3-2.1-3.6-3.6-5.4c-3.8-4.3-3.4-9.7,1-13.1c2.7-2,8.3-1.9,8.2-5.7c-0.1-4.9-2-10.4-4.6-14.6c-4.1-6.8-8.8-12-0.4-19.6
		c3.6-3.2,1.8-10.9-2.1-13.7c-11.4-8-14.8-22-23.7-31.8c-4.3-4.8-1.9-10.6-0.1-16c1.7-5,4.9-9.2,6.2-14.5c1.6-6.2,6.9-5.4,11.1-2.2
		c2.5,1.8,3.9,2.7,6.3-0.1c5-5.7,4-15,11.3-19.3c0.2-0.1-0.3-3-1.1-3.5c-7.7-4.9-4.8-14.6-9.2-21.2c-3.1-4.6-0.8-10.4,4.1-12.8
		c3.9-2,6.6,1.1,9.5,4.6c5.9,7.3,12.7,13.7,19.2,20.6c1.8,1.2,0.4,3.9,2.2,5c-1.2-1.8-1.5-3.5-0.3-5.5c0.1-5.2,0.8-9.8-5-13.6
		c-5.2-3.5-1.4-12,5.7-14.1c15.6-4.8,27.9-13.5,32.8-30.7c2.1-7.2,15.2-15.1,23.3-13.6c8.1,1.5,9.7-2.5,7.6-8.7
		c-2.9-9.2-0.4-17.6,2.8-25.7c2.4-6,0.4-11.8,1.2-17.6c1.4-9.8,2.7-18.5,13.8-22.7c5.2-2,9.9-7.6,13.4-12.1
		c8.8-11.2,18.8-9.9,29.8-6.7c2.8,0.8,5.5,2,8.4,2.4c3.7,0.6,5.6-0.3,5.7-5.4c0.3-15,9.2-20.1,22.8-13.7c11.5,5.4,29.9,1.3,39.8-6.2
		c11.8-8.9,23.2-18.8,37.9-22.9c4.5-1.2,9.5-2.7,10.5-8.8c-0.7-4.2,1.1-7.4,3.9-10.2c0.8-5.3,3.4-8.4,9-8c6.4,0.5,11-3.2,14.1-8.3
		c3.4-5.5,7.4-6.4,13.2-4.4c10.8,3.8,21.8,6.2,26.7,19.5c2.3,6.4,2.1,9.3-3.2,13.2c-8.3,6-15.5,13.4-24.8,18
		c-8.6,5-18.8,7.6-25,16.4c-2.2,1.4-1.7,3.9-2.3,6c0.3,8.1-3,12.7-11.1,15.1c-9,2.7-12.8,11.7-16.9,19.5
		c-6.9,13.2-10.1,27.6-11.9,42.1c-1.6,12.9-7.1,23.5-14.7,34.4C557.4,239,560.7,237.6,562.4,240.4z"/>
	<path class="st2" d="M574.8,256.4c0.6-0.7,1-1.5,1.6-2.2c4.9,6.1,8.3,12.6,9.6,20.9c0.9,6,3.2,12.2,8.8,15.9
		c5.7,3.7,4.1,10.9,7.2,15.8c2.9,4.9,1.1,9.4-0.8,14.1c-3.6,8.8-4.5,17.9,0.1,26.9c7.1,1.2,10.5,5.5,12.1,12.9
		c1.4,6.4,5.6,9.4,13.4,9c13.3-0.8,26.7,0,40,1.3c4.9,0.5,8.7-0.4,13-2.2c8.5-3.8,16.7-3.5,24.7,2c3.9,2.7,7.8,4.5,13.4,2.5
		c9-3.3,13.9,5.2,17.8,10.7c7.9,11.3,15.5,22.8,25.4,32.5c4.8,4.7,9.4,7.6,15.6,1.3c5.4-5.6,12.7-2.1,18.5-0.8
		c11.9,2.7,23-0.6,34.4-1.9c8.7-1.1,17.2-2.2,26-4.9c12.7-3.9,21.3,4.7,24.6,17.9c1.8,4.9,1,9.1-3,12.6c-2.5,2.2-5.5,4.6-5.3,8.1
		c0.8,10.6-4.6,18.8-8.3,28c-4.1,10.2-3.1,22.4-2.4,33.6c0.7,9.9,1.6,20,4.3,29.5c0.6,8.1,3.4,14.6,9.2,20.9
		c6.4,6.9,9.9,16.6,14.6,25.1c1.1,5.5-2.2,8.7-5.8,11.5c-3.8,3.1-7.1,6.8-10.8,9.9c-4.4,3.8-2.9,6.4,0.7,9.2
		c-1.1,8,6.2,10.6,10.1,14.4c10.7,10.4,14.3,24.1,18.8,37.5c3.9,11.7,7.1,23.7,12.5,34.8c3,16,1.4,18.7-12,20
		c-7.3,1.3-9.9-4.2-9.3-9.5c1.9-16.8-4.1-29.8-15.8-40.5c-1-0.9-1.6-2-1.8-3.4c-0.1-1.6,0-3.2,1.4-5.2c-6.6,7.5-15.1,10.8-21.4,17.9
		c-5,5.6-12,1-17.6-2.2c-2.6-2-4.1,3.2-6.7,1.1c-4.7-4.8-2.7-9.3,0.9-13.2c3.7-4,7.1-1.3,10.2,1.4c3.6,3.2,6.4,2.9,10.1-0.5
		c7-6.5,15.8-10.4,23.2-16.5c5.9-4.8,12.2-1,11,6.9c-1.4,8.8,1.8,14.3,7.2,20.4c6.2,6.9,7.1,16.4,7.3,25.6c0.1,2.6-0.6,5.5,1.8,7.6
		c0.8,0.7,2,0.6,2.6-0.3c1.9-2.8,1.5-6,0.3-8.7c-6.2-13.7-11-28.1-14.8-42.6c-3.9-14.8-14-24.4-23.7-34.5c-2.7-2.7-5.2-4.6-9-5.4
		c-7.1-1.5-8.4-5.5-2.9-10.8c6.4-6.2,11.6-13.7,18.5-19.2c3.6-2.9,3.4-5.4,2.3-10.2c-2.9-12.4-15.7-18-17.9-30.4
		c-0.3-1.6-1.1-3.2-1.6-4.8c-4.1-13.8-7.6-27.7-6-42.4c0.6-5.7,0.6-11.5-0.2-17.1c-1.4-9.5,1.2-16.3,7.1-24.5
		c6.9-9.5,6.8-23.4,11.4-35c2.7-6.9-7.3-12.1-16.2-9.1c-19.9,6.8-40.2,9.7-61.1,6.5c-5.7-0.8-10.8-1.3-15.2,3.8
		c-4.3,5-8.9,1.8-13.4-0.3c-2.3-1-4.1-2.7-6.1-4.3c-9.9-8.8-18-19.4-24.8-30.9c-4.8-8-11.2-11-20.4-12.9c-14.1-3.1-26.9-4.7-41.4-1
		c-9.9,2.5-21.9,0.4-32.9-0.8c-5.2-0.6-10.4-0.2-15.4,1.2c-1.5,0.4-3,0.4-4.5,0c-1.5-0.5-2.7-1.3-3.9-2.4c-1.5-1.5-2.7-3.2-3.7-4.9
		c-1.9-2.4-4-4.6-4.6-7.6c-1-4.8-3.5-7.6-8.4-8.4c-5.5-1-8.5-5-9.4-10.4c-1.5-9.4-1.9-19.2,1.8-27.9c4.5-10.6,1.8-18.7-5.2-25.6
		C576,283.2,572.8,273,573,261C573.2,259.1,573.3,257.5,574.8,256.4z"/>
	<path class="st3" d="M756.5,944.2c-2,11.4-3.9,22.8-5.9,34.2c0.9,7.9-2.7,15-4.3,22.4c-0.6,2.7-1.3,5.4-1.9,8.1
		c-2,5.4-0.5,11.1-1.7,16.7c-2,9.5-4.7,11.2-13.9,7.6c-1.9-4.9-6.8-6.4-10.1-9.7c-5-6.4-13.4-2.3-19.2-6.5
		c-11.8-6.1-13.6-10.7-5.3-21.3c10.4-13.2,15.3-29.9,26.5-42.7c5.7-6.4-3.3-7.2-5.7-10.4c-8.4-6.8-18.1-11.3-27.2-16.6
		c-5.2-3-10.9-3-16.6,0.6c-5.7,3.5-12.2,4.1-18.7,1.6v0.1c-8.5-6.6-16.6-8.3-26.2-0.8c-5.7,4.4-13.6,5.2-20.7,6.9l-0.1,0.1
		c-12.5,0.4-25,0.9-37.4,0.3c-6-3.9-9.5-11.1-16.9-12.9c-5.4-5.1,0.1-10.6-0.6-15.9c0.4-6.9-4.5-7.5-9.2-8.5
		c-0.8-0.5-1.5-1.1-2.1-1.7c-0.7-3-4.3-4.4-4.1-8l0,0c22.3-5.2,25.8,2.9,26.9,21.7c0.6,10.4,5.6,15.5,15.9,14.2
		c4.2-0.6,8.4-1.7,12.6-0.6c15,4.1,27.4-1.3,38.4-11.3c3.4-3.1,6.7-3.5,10.7-1.3c4.3,2.5,9.1,3.8,13.4,6.1c5,2.7,10.7,3.2,15.1,0.2
		c9.3-6.3,17.9-3.4,25.8,1.5c10.9,6.7,22.8,11.1,33.2,18.8c6,4.4,6.4,8.7,3.6,14.5c-3,6-6.8,11.5-10.8,16.8
		c-7.6,9.9-12,21.6-18.8,31.9c-2.5,3.7-0.9,8,3,6.9c12.3-3.6,17.8,4.8,24.1,12.6c1,1.3,2.4,2.2,5.4,2.9c10-54,20.9-107.8,29.5-162
		c0.4-3-2.1-5.1-2.5-7.9c0.2-4.8-0.6-9.2-3.4-13.3c-2.5-3.5-5-7.6-4.3-12c1.3-8.5-3.5-12.6-9.6-15.7c-10.7-5.5-14.7-14.6-14.8-26.2
		c0-8.4,0.1-16.9,0-25.3c0-6.3,2.5-10.3,8.5-11.6c7.4-1.6,14.4-4.1,21.4-7c4.1-1.7,7.6-1.1,11.1,1.3c5.5,3.6,6.8,0.5,6.8-4.6
		c0-8.2-3.8-12.5-11.7-12.7c-6.2-0.1-12.3-0.9-18.5-1c-3.6-0.1-6.4-1.3-7.5-5.1c-0.5-11.3-2.2-22.5,1.1-33.7
		c3.1-2.9,6.2-2.9,9.2,0.2c1.1,6.5,0,13-0.3,19.5c-0.2,4.3-1.7,9.4,3.8,12c3.6,0.1,7.1,0.2,10.6,0.2c16.2,0.1,16.2,0,22.7,16.1
		c2.1,4.7,0.6,9.4-0.5,13.8c-1.7,7-7.4,9.8-13.6,7.7c-8-2.7-15.3-0.7-23,0.5c-6,1-9.9,3.9-10.3,10c-0.8,10.9-1.9,21.8,0.6,32.7
		c7,6.5,18.6,7.8,21.3,19.2c2,8.6,3.4,17.4,8.3,25.1c7.3,29.4-1.3,57.5-7.3,85.6C760.1,933.6,761,939.8,756.5,944.2z"/>
	<path class="st4" d="M322,102.4c-12.8-0.9-9.7-13.5-9.9-19.2c-0.2-8.8-1.5-20.8,10.1-25.9c3.7-1.6,1-4.5,0-6.8
		c-1.7-4-1.1-7.8,2.9-9.2c3.4-1.1,6.7-0.9,10.5,2.3c15.7,13.6,11.6,30.2,7.7,46.9C338.4,98.8,330.8,101.6,322,102.4z"/>
	<path class="st5" d="M722.7,667.2c-6.6,1-13.5,1-19.3,5.4c-1.8,1.3-4.5,2.5-6.4,2.1c-13-2.9-21.9,5.8-32.1,11
		c-13,6.6-18.1,15.8-16.5,31.4c0.4,3.4-1.8,2.5-3,3.6c-6.8,6.1-13.4,12.4-19.9,18.8c-2.9,2.8-5.5,5.9-4.2,10.5
		c0.6,0.3,0.8,0.7,0.6,1c-0.2,0.3-0.4,0.5-0.6,0.5c-10.5-6.5-20.2-13.2-25.8-25.8c-4.7-10.5-17.5-10.6-24.2-1.8
		c-8.5,11.4-22.8,9-30.2-7.1c-4.6-9.9-12.1-17-17.5-25.9c-0.6-0.3-0.7-0.6-0.6-0.9c0.1-0.3,0.3-0.6,0.5-0.6c4.3-9.9,1.3-20.3,2-30.5
		c0.9-13.9,1.8-14.8,14.6-13.6c10.2,1,20.3,0.6,27.4-9.2c0.9-1.3,2.5-2.8,3.8-2.9c14-1.2,24.2-11.3,36.5-16.4c0.9-0.3,1.8-1.2,2.6-1
		c22.5,3.5,45.4-5.6,67.5,0.8c8.8,2.5,17.1,0.2,25.5,2c0.2,1,0.5,1.5,0.9,1.7c1.6,0.6,5.1-5,10.4-16.5
		c-10.8,9.5-21.6,19.1-32.3,28.6c8,2.7,12.2,6.8,14.3,13c1.4,4.1,4.5,5.2,8.5,5.2c6.5-0.1,12.9-0.1,19.5,0c3.1,0.1,7-1.6,9,2
		c2.4,4.3-2.5,5.3-4.1,7.8c-0.9,1.4-1.6,2.9-2.5,4.3C725.6,665.7,724.1,666.5,722.7,667.2z"/>
	<path class="st6" d="M275.2,104.9c-0.1,1.3-0.2,2.4-0.3,3.6c-2.5,4-4.6,7.9-3.2,13.1c0.9,3.3-0.3,6.9-2.5,9.4
		c-5.4,6-6.8,13.6-7.9,21.2c-1.8,11.8-7,22.3-12.7,32.3c-1.8,3.2-3.7,7.6-8.9,5.7c-10.9-3.2-15.6-18.9-8.8-29.1
		c6.6-9.7,6.2-23.6-0.8-33.3c-2.9-4-2.6-7.8-0.2-12c3.6-6.2,5.3-13.1,3.4-20.3c-0.7-2.6-0.6-5.1,0.8-6.7
		c11.4-12.4,11.4-31.6,24.9-43c8-6.9,13.2-7.4,19.7,1.3c4.1,5.3,13.7,6.9,10.6,17c-0.5,1.7-1.5,3.1-3,3.7
		c-8.4,3.7-11.4,9.8-9.3,19.2C278.1,93,275.1,98.8,275.2,104.9z"/>
	<g id="naranja">
		<path class="st7" d="M315.6,659.5c2,8.9,4.5,16.5,1.2,24.9c-1.6,4,1.5,6.9,6,6.9c1.6,0,3.4-0.5,4.8,0.1c5.1,2,10.6-4.4,15.4,0.9
			c-6.3,5-0.5,16.3-10,20c-3.7,1.5-4.1,5.7-3.1,9.7c1.8,7.2,2,13.6-4.8,18.8c-4.1,3.3-2.9,7.6,0.7,11.2c2.3,2.2,3.6,5.5,2.2,8.1
			c-2,3.6-5.9,1.3-9,1.4c-3.9,0.1-5.5-2.9-5.2-5.9c0.6-6.2-1.2-9.4-7.4-10.1c-1.3-0.1-3.3-1.8-3.6-3.1c-1.6-7.8-5.5-8.4-12-5.5
			c-2.9,1.3-6.8,1.1-9.2-3.1c-3.6-6.4-12.2-8.5-13.6-17.1c-0.1-0.6-1.8-1.3-2.4-1.1c-16.5,4.1-21.6-11.5-30.9-19.5
			c-2.4-2.1-8.5-4.3-6.3-9c2.6-5.3,7.8-7.3,14.1-4.8c2.6,1,6.4,2.5,8.7-1.5c2.2-3.9-0.2-8.3-2.1-10.2c-11.1-11.1-2-20.2,2.7-29
			c5.7-10.6,15.3-13.5,26.7-11.2c3.2,0.6,4.6,1.4,4.3,4.8c-0.5,6.5,2.2,12.5,3.1,18.6c1.2,8.2,6.1,10,12.3,9.3
			C304.1,662.7,310.1,662.7,315.6,659.5z"/>
		<path class="st8" d="M416.9,206.4c5.3,4.6,10.4,7.4,9.1,15.1c-0.6,3.1,3,4.6,6.2,5c10,1.3,14.5,8.8,16.9,17.7
			c2.3,8.5,5.8,15.6,13.9,19.4c5.2,2.5,7.3,6,5.8,12c-1.7,6.9,6,15.1-3.1,21.2c-5.5-7.1-11.2-13.8-21.9-8.7
			c-2.2,1.1-6.2-1.7-7.4-5.2c-1.3-3.9-1.3-7.6,1.8-11.2c8-9.1,6.8-16.9-3.6-22.1c-3.9-1.9-7.1-4.6-10.7-6.6
			c-5.7-3-10.1-5.9-6.3-13.7c1.1-2.2,1.3-5.7-0.8-7.6C411.1,216.4,416.2,212.2,416.9,206.4z"/>
	</g>
	
		<image style="overflow:visible;enable-background:new    ;" width="176" height="337" id="ciudadades_x5F_naranja" xlink:href="127D9FD.png"  transform="matrix(1.9672 0 0 1.852 107.2359 236.1773)">
	</image>
	<path class="st9" d="M752.4,717.3c-2.7-0.1-6-0.6-6-3.6c0-9-3.2-18.2,2-26.7c4.1-3.3,8.8-4.5,13.7-3.9c21.1,2.7,42.2,0.1,63.3,1.5
		c6.7,0.4,9-4.5,13-7.4c7.9,5.7,14.5,10.4,21.3-3.1c2.7-5.2,12.5-7,18.7-12.5c-0.3,4.4-0.5,7.9-0.8,11.5c-4.2,1.9-7.3,5.3-10.8,8.1
		c-5.2,4.1-9.7,12.3-18.1,4.5c-1.4-1.3-5-1.2-6.2,0.9c-4.1,7.1-11.3,5.9-17,6.3c-19.7,1.1-39.4,3.6-59.2,2.7
		C752.1,695,747.8,702.3,752.4,717.3z"/>
	<path class="st10" d="M239.7,190.2c12-8.8,15.1-22.6,18.8-36c2.5-8.8,2-18.6,9.6-25.5c2.2-2.1,3.1-5.7,2-9.4
		c-1.5-5,0.8-8.4,4.8-10.8c-1.3,7.1-2.7,14.5-1.5,21.6c1.3,6.6-5.3,8.9-6,14.1c-1.9,15.5-7.1,29.8-13.7,43.8c-2.2,4.8-6.5,4.6-9.5,7
		C242.3,196.6,240,193.1,239.7,190.2z"/>
	<path class="st11" d="M865.5,539.8c-5.9-8.7-4.3-19.1-5.6-28.7c-1.3-9.5-1.9-19.9-0.4-28.9c2.3-13.5,10.2-25.6,12-39.9
		c0.6-4.4,9.5-6.9,8.5-14.4c5.1,6.6,5.2,13.2-0.5,19.5c-1.5,1.7-3.7,3.5-4,5.5c-3.7,24.9-20.2,48-10.3,74.8
		C866.7,531.7,866.2,535.8,865.5,539.8z"/>
	<path class="st12" d="M739,798.3c-5.5-13.1-1.7-26.9-2.5-40.3c-0.1-1,1.3-2.9,2.2-2.9c9.9-0.4,19-7.5,29.6-3.2
		c10.6,4.3,14.9,1.3,16.5-10.3c0.4-2.7,0.7-5.3,1-7.9c1.4,5.3,3.3,10.6,4.1,16c1.2,9-4.4,13.9-12.5,10.7
		c-11.4-4.5-22.1-1.3-32.8,2.3c-4.1,1.3-5.7,4.9-5.5,9.5C739.1,780.8,738.9,789.6,739,798.3z"/>
	<path class="st13" d="M756.5,944.2c4.7-26.2,10.3-52.2,13.2-78.8c0.8-7.6-2.6-15.1-1.2-22.8c7.8,20.3,8.8,40.6,1.3,61.4
		c-3.8,10.6-7.6,21.6-7.5,33.2C762.4,941.8,758.6,942,756.5,944.2z"/>
	<g id="amarillo">
		<path class="st14" d="M460.9,311.1c16,7.6,19.1,15.4,13.2,33.6c-0.8,2.5-3.7,5.5-0.6,6.8c9.6,3.9,8.1,13.4,10.7,20.7
			c2.8,7.7,6.4,8.2,12.7,2.7c2.8-2.4,5.3-10,9.7-5.1c5.1,5.7-3.1,6.5-5.5,9.7c-5.2,7.1-15.2,10.4-18.5,16.9
			c-5.1,10.2-11.9,21-12.8,32.6c-1.1,13.5-2.5,17.6-14.8,17.6c-6,0-10,2.2-12.5,7.6c-2.9,6.2-5.2,6.9-9,0.4
			c-5.1-8.8-13.9-7.7-20.5-0.1c-3.9,4.5-10.1,9.6-17.1,7.3c-5.4-1.8-8.5-14-5.4-20.2c2-3.7,1.5-5.5-1.5-7.3
			c-0.6-0.4-1.6-0.4-1.8-0.8c-4.2-15.5-16.4-9.5-25.6-9.4c-6.2,0.1-9.5-3.1-9.5-7.3c-0.3-8.9-5-15.4-8.4-22.7
			c-1.7-3.6-1.5-5.9,2.5-6.6c2.9-0.5,3.9-2.3,3.9-4.8c0.1-5,3.5-5.2,6.9-4.6c5.5,1.1,8.8,0.1,10.3-6.4c1.3-6-0.7-9.9-5.1-12.7
			c-9-5.5-12.5-16.9-22.8-21.3c-4.8-2-7.5-7.1-1.3-12.2c1.6-1.3,1.8-4.7,2.9-8c1.8,4.8,3.2,9.4,8.8,7.8c5.2-1.5,5.2-7.3,4.4-9.9
			c-2.9-9,1.2-19.7-7.1-27.3c-3.8-3.4,0.2-5.2,3.3-5.5c6-0.7,11.3-4.1,15.3-7.7c5-4.8,5.3,0.1,7.4,2c10.9,8.2,12,13.2,6.2,25.3
			c-6.3,13.2-12.3,26.4-10.7,41.6c0.4,0.8,0.7,1.8,1.1,2.6c1.6,6.5,5.8,9.1,12.2,8.6c2.9-0.2,5.8-0.3,8.7,0.1
			c8.3,1.2,14.3-1.7,17.9-9.5c0.7-0.7,1.5-1.3,2.2-1.8c10-3.6,13.6-14,20.2-21.1C439.5,313.5,450.1,312.7,460.9,311.1z"/>
		<path class="st14" d="M373.2,270.3c4.8-7.1,9.3-14.1,12.6-22.3c3.9-9.8,17.9-11.1,27.3-6.1c7.1,3.9,11.7,10.9,19.5,13.7
			c4,1.5,9.2,5.5,2.2,11.1c-2.4,1.9-8.2,2.4-6.8,5.2c2.9,6,0.2,13.9,5.9,18.5c3.9,3.1,7.1,10.1,13.7,2.7c2.4-2.7,6.4-0.3,9.3,2.7
			c4,4.1,3.1,7.6,0.1,11.5c-1.1,5.8-6.2,7.6-10.1,7.4c-12.9-0.8-16.9,10.6-23.1,18c-4.3,5.1-8.2,9.9-13.9,13l0.2-0.1
			c-8.3,15.1-22.1,9.7-34.3,9.7c-5.3,0.1-5.5-6.9-8.9-9.7l0.1,0.1c-0.8-17.1,5.5-32.1,13-46.6c3.2-6.2,2.9-12.6-1.7-17.2
			C374.9,278.2,374.2,274.4,373.2,270.3z"/>
		<path class="st14" d="M505.3,805.6c-19.5,11.5-28.4,9.3-38.7-7c-1.5-2.4-2.7-5.8-6.6-3c-0.7,0.5-2.2,0.7-2.7,0.3
			c-13.4-13.4-32.8-5.2-47.2-14.2c-3.3-2-6.5-4.6-8.9-7.6c-5.3-6.6-11.7-10.6-19.4-14.1c-6.3-2.7-9.5,0.7-9.9,4
			c-0.7,6.6-4.3,5.6-8,5.1c-6-0.8-11.9-1-18.1-0.5c-5.7,0.5-10.5-1.1-11.8-9.7c-1.3-8.5-4.8-16.2,1.9-23.9c1.3-1.5,2-5.1,1.1-6.7
			c-7-12.2,11.2-15.3,8.7-26.4c-0.6-2.3,6.3,1.5,9.9-0.8c2.2-1.4,5.1,1.1,5.5,4.1c0.4,3.4,1.3,6.5,2,9.7
			c2.5,12.4,7.8,16.4,19.8,12.9c6.6-2,11.8-2.9,15.4,4.8c1,2.3,3.4,4.5,6.2,4.4c9.7-0.4,16.4,8.5,26,8.5c3.5,0,3.8,3.5,4.5,5.8
			c1.3,4.5,2.8,8.3,8.1,8.5c2.6,0.1,3.4,2,3.4,4c-0.1,8.9,6,11.1,12.6,12.1c4.6,0.8,6.2,3.1,7.1,7.6c1.8,7.8,5.5,12.2,15.1,11.5
			C489.3,795,494.1,805.3,505.3,805.6z"/>
		<path class="st14" d="M511.8,260.5c-15.2-7-29.3-16-43.8-24.4c-6.6-3.9-3.6-8.7-4.6-13.1c-1.4-6.5-8.7-12.5-1.8-20.2
			c1.3-1.5-1.3-5.1-3-5.6c-7.7-2-4-7-3.2-11.2c0.7-1.5-0.1-3.6,0.9-4.8c10-11.2,7.4-24.7,6.7-37.8c5.3-1.6,10.2,0.8,15.2,1.8
			c9.7,1.8,13.3-1.3,14-11.1c0.5-6.9,7.8-11.8,14.1-8c6.2,3.6,12.3,3.1,18.7,3.3c-2.4,11.1,2.4,21.7,2.7,32.6
			c0.2,7.6-2.4,13.7-8.9,17.6c-2.4,1.8-5,2.4-7.9,1.5c-0.6-0.3-1.1-0.7-1.4-1.3c-0.1-0.1-0.2-0.3-0.4-0.3c-0.1,2-0.8,3.9-1.8,5.7
			c-6.6,12.9-6.6,12.9,2.7,22.8c0.6,0.7,1.2,1.4,1.8,2.2c5.4,12.4,5.2,12.6-6.3,16.9c-4.7,1.8-6.7,3.9-2.4,8.5
			c4.7,4.8,6.2,11.7,10.2,17.1C516.2,256.1,515.7,256.5,511.8,260.5z"/>
		<path class="st14" d="M529.8,129.3c8.3,0.8,14.4-2.5,20.9-8.1c11.5-10,23.9-19.2,39.1-23.5c9.7-2.7,16-10.4,17.4-20.9
			c0.7-5.2,1-7.1,6-3.2c3.6,2.9,7.2,2.2,9-2.9c1.9-5.6,7.3-12.3,10.2-12.2c8,0.1,17,2.2,22.7,9.1c8.4,10.1,6.8,9.4-2.5,19
			c-8.4,8.7-18.1,12.4-28.6,15c-9.5,2.4-14.1,8.1-16.5,17.4c-2,7.7-5,13.8-14.6,15.8c-8.8,1.8-13.7,11.5-16.5,19.7
			c-2.8,8.5-7.1,15.3-12.7,21.6c-3.8,2.5-7.5,2-11.2-0.3c1.3-7.5-0.8-13.3-6.7-18.6c-3.3-3-6-5.5-10.5-5.3c-3.2,0.1-6.4,0.3-9.2-1.8
			C521.8,142,522.9,135,529.8,129.3z"/>
		<path class="st14" d="M553.5,175.5c3.4-2.2,6.8,0.9,10.2,0.3c1.6,7.3-0.3,14.3-0.8,21.6c-1.3,16.6-8.9,30.2-18.7,41.7
			c-8.3,9.7-11,19.2-12,31.6c-0.6,7.3-8.8,14.5-2.7,22.7c5.5,7.4,3.8,16.9,8.4,24.6c2.7,4.4,1.3,11.3-3.2,13c-4.6,1.8-5-5-7.5-8.1
			c-9.5-12.1-6.5-27.1-9.6-40.5c-1.5-6.4-2.6-13.2-3.2-19.8c1.5-11.3-6.6-18.4-11.5-26.7c-3.4-5.7-3.4-8.1,2.5-9.5
			c12-2.9,12.8-5.7,4.5-16.4l0.1,0.1c-3.7-5.8-11.6-10.4-7-18.8c2.2-4,3.8-9,8-11.6c2.3-0.1,4.8,0.8,6.6-1.6
			c12.7-2.7,8.3-13.9,10-21.9c0.3-1.5-0.2-3.1,1.3-4.1c4.3-1.2,9.7-3.9,12.7-0.4c4.1,4.5,8.3,8.8,12.2,13.4c1.5,1.9-0.2,4.3-1.5,6.3
			C551.3,172.8,550.4,174.8,553.5,175.5z"/>
		<path class="st15" d="M455,183.1c-7.2-4.9-18.2-5.5-17.9-18.8c0.4-10.2,14.4-23.4,23.6-21.1C468.6,158.1,464.8,171.1,455,183.1z"
			/>
		<path class="st16" d="M396.8,465.9c9.2,10.7-0.1,17.9-3.3,26.7c-4.3-3.8-2.7-12.5-10.5-13.6c-1-0.1,0.3-5,2.6-6.6
			C389.5,470,393.5,467.9,396.8,465.9z"/>
		<path class="st17" d="M423.8,507.9c-7.4-2.7-13.5,3.5-20.2-0.6c-2.4-1.5-4.2-2.4-1.3-4.7C407,498.6,417.4,500.9,423.8,507.9z"/>
		<path class="st14" d="M683,622.8c-6.2,8.2-6.9,13.9,2.5,17.6c2,0.8,3,2.3,4,4.1c5.7,10.6,15.5,12.2,25.9,12.5
			c2.8,0.1,5.6-1.4,8.5,0.6c-0.3,1-0.6,2.7-1,2.7c-11.7,1.3-21.9,9.1-34.1,8.3c-5.3-0.3-9.8,0.7-14.3,4.6c-5,4.4-10.6,8.9-18.1,8.9
			c-3.1,0-5,2-6.5,5.1c-3.8,8.2-7.5,16.4-8.9,25.4c-0.8,5.2-2.1,8.9-7.7,11.3c-4.8,2.1-8.5,7.1-12.6,10.9
			c-6.8,6.4-11.3,6.3-14.6-2.7c-4.3-12-13.8-16-23.7-19.5c-4.8-1.8-10.5-1.6-13.9,3.7c-2.5,3.8-6.9,10.6-9.1,8.8
			c-5.5-4.5-14.5-5.8-16.2-14.5c-1.1-5.5-3.3-9.9-7.2-13.6c-4-3.6-5.4-8-4.8-13.4c0.3-2.7,0-5.4,0.1-8c0.1-7.8-2.3-17.1,1-22.8
			c3.6-6.1,13.2-0.6,20.2-2c7.1-1.5,14.3-1.9,18.4-9.4c0.6-1,2-2.3,3-2.3c11.9,0.3,20.2-8.1,29.6-13.4c5.7-3.2,11.3-0.8,16.9-1.9
			c14.8-2.9,29.9-2.3,44.7-4.1C671.8,618.9,675.9,626.5,683,622.8z"/>
	</g>
	<path class="st18" d="M652.6,927.8c7.4-1.2,15.1-0.1,21.4-6.5c3.2-3.2,8.3-0.7,12,1.2c9.5,4.8,17.3,12.7,27.9,15.3
		c1.5,0.4,1.6,2.7,1.2,4.5c-7-0.9-12.2-5.8-17.8-9.5c-6.2-3.9-11.5-6.7-18.3-1.2C669.3,939.5,660.9,932.7,652.6,927.8z"/>
	<path class="st19" d="M873.5,616.6c-2.7-0.6-5.5-1.3-8.5-2c5.7-12.3,19.5-16.5,24.5-28.6c6,6,5.7,11.3-1,16.7
		C883,606.8,879.5,613.1,873.5,616.6z"/>
	<path class="st20" d="M275.2,104.9c-0.6-9.2-2-18.4-1.5-27.5c0.6-9,9.4-9.9,15.5-13.2c4.5,4.3,4.8,8-1.7,10.3
		c-11.8,4.3-6.9,16.2-10.4,24.3C276.3,100.7,277.8,103.5,275.2,104.9z"/>
	
		<image style="overflow:visible;enable-background:new    ;" width="423" height="530" id="ciudades_x5F_amarillo" xlink:href="127D9FA.png"  transform="matrix(1.5466 0 0 1.828 141.7805 39.9291)">
	</image>
	<path class="st21" d="M601.4,347.8c-4.5,0.2-5.6-2.9-5.4-6.6c0.5-8.4-2.4-17.4,4.7-24.6c2.5-2.4,1-6.4,1.3-9.7
		c7.7,6,4.7,15.2,2.6,20.9C602.1,334.5,602.2,341,601.4,347.8z"/>
	<path class="st22" d="M605.8,934c8.6-5.6,18.8-7.7,27.6-13.6c5.2-3.5,15.3-2,19.2,7.5c-12.6-2.5-24.3,2.7-36.3,4.7
		C612.8,933.2,609.3,933.6,605.8,934z"/>
	<path class="st23" d="M410,786.5c5.7,0.1,10,4.1,15.1,5.9c2.7,1,6,2.9,8.3,2c9.5-3.4,15.4,3,22,7.8c-15.7,4.3-27.8-6.7-41.6-10.4
		C412.2,791.4,411.2,788.3,410,786.5z"/>
	<path class="st24" d="M611.6,120.9c3.8-12.9,14.3-14.8,25-16.5c4.1,5.3,0.8,7.7-3.7,8.1c-5.3,0.4-8.8,2.7-11.4,7.4
		C618.8,124.7,614.7,118.8,611.6,120.9z"/>
	<path class="st25" d="M728.9,1033c7.4,1.8,11.1-0.6,12.4-9c0.7-5-0.4-10.8,3.2-15.3c0.4,9-1.5,18.1,1.3,26.9
		c1.4,4.3-0.7,5.5-4.4,5.1c-5.5-0.5-11-1-16.9-1.5C726.2,1036.8,729.4,1036.3,728.9,1033z"/>
	<path class="st26" d="M322,102.4c7.1-4,14.2-8,21.4-11.9c1,8,1,14.3-9.2,17C327.2,109.3,324.9,107,322,102.4z"/>
	<path class="st27" d="M902.7,723.2c9.7-2.9,13.3-9.9,12-20c6,5.2,0.6,15.2,7.8,19.8c-2.7,3.2-5.5,6.9-9.9,7
		c-2.9,0.1-7.5,2.4-8.3-3.6C904.3,725.3,903.3,724.2,902.7,723.2z"/>
	<path class="st28" d="M310.4,545c-2.5,6.9,2.6,13,5.7,15.5c10.2,8,4.8,12.5-1.8,17.6c-2.6-12.8-7.1-25.3-7.6-38.5
		c0.6,0.1,1.1,0.4,1.5,0.9C309.9,541.6,310.9,542.8,310.4,545z"/>
	<path class="st29" d="M568.3,934.4c12.5-4.8,25-2.7,37.4-0.3c-9.4,5.2-20.3,2.5-30.1,5.7C572.1,940.8,570.1,937,568.3,934.4z"/>
	<path class="st30" d="M539.3,895.4c0.6-0.1,1.2,0.1,1.8,0.3c4.3,2.9,8,6.3,11.6,9.9c1.9,1.9,2.3,3.8,0.1,5.9
		c-2.9,2.9-3.2,6.3-1.5,9.9c-2,0.8-3.9,1.6-6.4,2.7C546.1,913.8,542.6,904.7,539.3,895.4z"/>
	<path class="st31" d="M699.6,1016.8c6.6,1.6,15.9-5.4,19.2,6.5C711.1,1025.3,703.9,1025.7,699.6,1016.8z"/>
	<path class="st32" d="M746.3,1000.6c0-7.8,2.7-15,4.3-22.4c2,0.2,4.2,0.8,3.1,3.5C751.2,988,750.6,995.1,746.3,1000.6z"/>
	<path class="st33" d="M337.8,774.1c8.9,1.3,18-1,26.9,1.4c3.2,0.8,6.4,0.1,9.2-2.2c9.7-8.3,12-8,20.8,2.8c-6.7-3.4-12,0.3-17.7,3.4
		C361.6,787.6,346.4,785.3,337.8,774.1z"/>
	<path class="st33" d="M322,768.2c7-3,10.6,3.9,15.8,5.9c-3.5,0-7-0.2-10.5,0.1C322.8,774.5,321.8,772.1,322,768.2z"/>
	<g id="rojo">
		<path class="st34" d="M470.8,19.6"/>
		<path class="st35" d="M310.4,545c-1-1.3-2.9-2.2-2.1-4.5c11.4-7.3,15.9-23.7,12-36.7c-2.7-8.8-2.8-18.4-3.9-27.6
			c-0.4-3.9,0.8-8-2.6-11.4c-1.7-1.7-1.5-4.5,0.6-5c14.6-4.1,11.3-14.7,5.8-22.5c-6.8-9.7-4-18.6-1.1-27.5
			c2.4-7.4-1.8-11.3-5.4-15.5c-4.8-5.4-12.5-8.2-11.8-17.9c0.1-2-3.6-4.5-5.8-6.3c-7.6-5.9-5-12.8-0.5-18.2
			c2.9-3.5,6.6-5.4,1.2-11.5c6.8,0.9,7.2,10.2,12.9,6c3.3-2.5,5.7-6.3,8.2-9.9c2-2.9,2.8-8.2,5.3-9.2c11.6-4.6,7.1-11.7,2.2-17.2
			c-5.4-6.1-3.4-15.1-9.4-20.6c-1-1-0.4-2.6,0.7-3.4c1.5-1.1,2.9-0.8,4.2,0.7c5.5,6.4,11.1,12.9,16.7,19.2c2.1,2.3,3.2,4.6,0.6,6.8
			c-4.9,3.9-4.8,10.6-9,15.3c-3.8,4.2,2.8,15.5,10.1,17.3c5.1,1.3,7.8,3.3,9,8.8c1,4.9,5.7,7.1,9.6,9.5c2,1.3,4.1,3,3.7,5.5
			c-0.4,2.8-3.1,2.6-5.5,3c-15.9,3-21.6,16.5-13.6,30.9c2.2,3.9,4.7,7.6,4.8,12.9c0.2,10.9,3.8,14,14.5,14.3
			c2.9,0.1,5.9,0.3,8.8,0.1c8.6-0.8,12.9,3.4,12.9,12.7c0,1.7-0.3,3.4,0,5c1.4,7.9,6.9,15.6-2.5,23.2c-3.3,2.7-3.4,9.5,1.8,14.3
			c4.2,4,5.5,9.7,3.6,15.8c-8.2,8.5-8.9,22.2-19.2,29.4c-2.4,1.7-0.6,4.8,0.1,7.4c2.9,9.2,1.8,10.5-7.4,13
			c-11.8,3.3-21.1-4-31.5-6.9c-4.5-1.3-8.5-3.6-12,1.6c-0.6,0.8-1.3,1.3-2.1,1.8C313,546.5,311.7,545.7,310.4,545z"/>
		<path class="st35" d="M386.5,608.5c4.3,5.4,7.8,11.6,12.9,16.1c6.9,6.2,2.4,9-2.3,11.5c-2.2,1.2-5.2,1.3-6.8,3.5
			c-6.4,9.3-17.9,10.1-26.4,16c-6.4,4.3-6.6,9.5-7.6,14.7c-0.8,4.3,0.9,9.5,6.6,10.8c2.2,0.5,3.9,1.4,3.6,3.8
			c-0.8,7.1,3.8,9.6,8.9,11.3c6.2,2,6.7,6.2,3.4,10.6c-3.8,5.1-4.3,10.1-0.9,15.6c-5.3,1.3-8.2,0.1-8.8-5.3
			c-0.6-4.6-1.5-9.2-2.3-13.7c-0.5-2.9-3-6.4-4.5-6c-13.1,4.1-13.7-15.7-25.3-13.8c-2.9,0.5-5.7,1-8.5,1.3c-1.9,0.2-4.3,0.8-5.4-1
			c-1.3-2.2-0.1-4.6,1.5-6.4c3.9-4,1.1-7.1,0.3-11.6c-2.9-15.8-11.2-12.3-20.9-9.5c-4,1.1-10,4.8-11.6-3.6c-1.5-8.3-9.3-16.7,0.8-25
			c5-4.1,6.8-11.1,9.9-16.8c2.7-5,4.1-11.5,11-12.6c5.3,2.7,10.6,4.8,16.4,1.3c1.7-1,4.2-1.4,5.5-0.1c6.2,6.1,13.4,4,20.7,3.8
			c4.6-0.1,8.3-0.7,10.6-5.2c2.8-5.4,7.1-6,12.4-4.3c5.6,1.7,6.4,5.8,6.1,10.8C385.6,606.1,385.6,607.4,386.5,608.5z"/>
		<path class="st35" d="M447.5,191.7c-3.6,7.4,4.5,10.9,5.3,17.7c2.2,17.6,6,36.5,28.2,40.7c3.8,0.7,7,4.6,10.4,7.1
			c1.3,1,2.2,3.1,3.6,3.3c12.1,2.2,16.1,9.3,16.8,22c0.6,10.3,4.1,20.1-1.5,30.2c-1.4,2.6-1.5,7-0.4,9.9c4.3,11-0.1,21.4-2.7,31.3
			c-1.8,7.2-9.2,11.8-15,16.4c-2.5,2-3.4-2.4-3.8-4.2c-0.8-4.3-0.8-8.7-1.2-12.9c-0.1-2-0.8-5.2-2.7-4.8c-10.4,2-5.5-4.3-4.6-8.4
			c3-13.4-0.5-22.9-11.3-29.8c-3.4-2.2-5.6-3.6-0.6-6.8c6.8-4.4,11-10.3,6.6-19.1c-2.8-5.7,4.1-12.1-1.2-18.1
			c-2.6-2.9-4.3-6.5-8.3-8c-6.4-2.4-10.4-8.1-10.6-14.4c-0.5-13.3-10.1-17.6-18.8-22.8c-2.8-1.7-5-2.5-4.5-6.3c0.2-1.5,0-3.9-1-4.7
			c-14.9-11.3-9.3-26-6.1-40c0.5-2.2,2-5.6,5.2-5.1c3.1,0.5,2,3.8,2.2,5.9c0.6,6.4,5.6,8.8,10,11.3C445.8,184,449.5,186,447.5,191.7
			z"/>
		<path class="st35" d="M314.4,547.3c-0.1-0.4-0.1-0.8-0.1-1.1c2.9-4.3,7.2-4.8,11.3-3.1c7.2,3,15.3,2.9,22.3,7.2
			c6.4,4,13.5,0.2,19.3-2.6c3.7-1.8,2.5-7-0.3-10.6c-3.1-4.1-2.5-7.1,2.2-9.5c6.2-3.1,7.7-9.7,9.5-15.5c1.5-4.8,3.4-7.7,8.1-8.7
			c8.8-1.8,13,7.6,12,11c-3.1,10.7,2.9,19.8,2.9,29.9c0.1,7.8-2.3,13-5.4,18.2c-6.2,10.4-6.6,22.2-9.7,33.2
			c-2.2,1.3-3.6-0.8-5.4-1.3c-5.9-1.4-12.2-4.3-14.3,5.3c-0.3,1.2-1.6,2.8-2.7,2.7c-8.5-0.4-17.3,5.9-25.5-0.6
			c-2.9-2.3-5.7-3.5-8.8-1.5c-6.2,3.9-10.4,1.6-13.7-4.1c-3.4-8.2,2-13.3,6.7-17.8c7.2-6.8,7.4-13.9-0.1-19.5
			C318.8,556.1,315.6,552.3,314.4,547.3z"/>
		<path class="st35" d="M285.2,59.4c-5.6,3.2-10.2,4.8-13.7,8.5c-5.6,5.9-5.6,12.1-3.4,20.1c1.8,6.8,3.5,15.3-3.1,21.6
			c-0.6,0.6-1.1,1.8-1.1,2.7c-1,18.3-12,33.7-13.9,51.7c-0.4,4.1-1.3,8.1-4.1,11.1c-2.8,3.1-4.1,10.7-9.4,7.5
			c-4.6-2.8-6.7-10.4-3-15.3c6-8.3,6.5-17.2,6.4-26.7c0-5.8,3.4-12.5-5.2-15.6c-3.1-1.1-0.9-4.5-0.2-7.1c2.2-7.5,7.3-14.6,3.4-23
			c-0.3-0.6-0.4-1.6-0.1-2c12.7-13.4,10.6-36.3,28.1-46.8c3.6-2.2,6.2-1,7.3,1.8C275.5,53.1,280.1,55.4,285.2,59.4z"/>
		<path class="st36" d="M335.6,52.6c10.3,9.8,8.5,29.2-2.8,36.4c-0.6,0.4-1.1,0.8-1.6,1.1c-11.9,8.8-12.8,8.3-15.7-5.9
			c-2.1-10.5,3.2-19.7,13.4-22C334.2,61.1,332.8,56.1,335.6,52.6z"/>
	</g>
	<g id="verde_00000021837095109837547290000003721790660256164274_">
		<path class="st37" d="M770.1,856c-6.8,37.3-13.7,74.5-20.2,111.9c-3.4,19-8.5,37.8-9.7,58c-8.3-3.8-12.5-11-17.7-16.9
			c-3.1-3.5-5.7-6.2-10.5-2c-4.1,3.4-8.8-0.1-11.4-2.3c-3.5-2.9,0.6-6.5,2.4-9.5c9.6-15.5,18.3-31.7,29.1-46.5
			c3.3-4.4,4-7.6-3.1-12.7c-12.2-8.9-26.2-13.4-38.4-21.8c-3.6-2.5-8.6-3.8-10.8-1.8c-13,12-25,3.8-35.9-2.4
			c-6.4-3.6-8.8-1.1-11.2,2.9c-2.2,3.6-5.8,3.6-8.3,5.6c-14.9,11.9-32.4-1.3-47.8,6.2c-4.8,2.3-5.7-6.4-10.8-6.9
			c-9.3-0.8-2.5-5.4-2.2-9.2c0.5-5.3-0.8-11.1-2.3-16.3c-2-6.5-6.5-7.9-12.9-5.7c-2.9,1-5.7-2.9-9.2-2c5.5-7.3,2.2-13.4-1.8-20
			c-3.7-6.2-6.1-13.3-15.5-10.7c-2.5,0.7-3.5-2.6-5.2-4.1c-3.9-3.2-6.9-7.8-13.2-7.2c-4.2,0.3-7.6-2.4-6.4-7.7
			c0.4-2,0.5-3.6-0.6-5.7c-6.5-11.9-6.4-11.9,5.6-15.9c5.2-1.8,10.4-3.7,15.6-5.7c5.8-2.9,11.5-2.5,16.2,2
			c5.4,5.1,12.7,1.8,18.3,5.5c1,0.8,2.2,2.2,3.2,1.8c8.6-3.2,17.5-0.1,26.2-1.6c5.2,3.1,10,9.7,16.4,1.8c0.8-1,2.4-1.2,3.6-0.6
			c9.2,4.1,8.8-3.5,10.1-8.9c4.6-7.1,10.3-12.1,19.2-11.1c7.1,0.8,7.8-5.2,9.3-8.8c-1,6.9-5.7,9.3-13.4,9c-7.2-0.3-11.6,5.2-15.3,11
			c-1.2,5.7-1.3,12.7-10.2,8.6c-1.2-0.6-2.7-0.1-3.6,0.8c-5.4,6.7-10.1,2.4-14.8-1c-9.7-1.7-19.5,0-29.3,0.1
			c-10.9-2.6-20.6-9-31.9-10.4c-1.6-0.2-3-1.1-4.2-2.2c-6.7-5.2-15-7.8-21.3-13.7c-2.4-2.3-7-5-9.5-4.1c-9.9,3.4-10.1-4.1-11.9-10.1
			c-0.3-1-0.1-2.7-0.6-2.9c-9.8-4.5-18.7-9.7-23.4-20.9c-0.6-1.5-6-3.9-7.6-7.8c-1.9-4.5-6.1-5.4-9.8-7.6
			c-9.8-5.9-23.5-2.9-30.5-15.5c-2-3.5-8.9-4.3-13.7-5.8c-2.2-0.7-5.6-0.9-4.3-3.8c3.1-6.7,1.7-16.5,11.4-19c1.5-2.1,2.9-4.3,5-6
			c-1.7,1.2-2.9,3.2-5,3.8c-5.8,0.1-11.6,0.3-16.9-3.1c-2.4-1.5-4.2-2.6-4.1-6c0.3-5.2,0.1-10.2-7.4-9.4c-1.8,0.1-3.2-2.9-1.9-4.7
			c1.8-2.7-1-8.1,3.6-8.2c4.4,0,6.4-1.3,7.6-5.5c1.1-3.8,3.5-4.1,6.8-1.9c3.9,2.6,7.6,5.7,8.1-3.5c0.1-2.9,4.8-10.7,12.1-6.8
			c1.3,0.7,3,1,3.5-0.2c2.3-5.7,4.8-11.5,6.2-17.5c0.8-3.7-3.7-3.9-5.7-5.8c0.2-6.5,5.8-9.3,8.8-13.9c2.1-2.2,3.2-5,4.4-7.7
			c4.8-11.1,13.4-15.8,24.9-13.6c1.3,0.2,2.4,0.6,3.6,1.3c8.4,5.8,11.9,5.1,16.4-4.4c2.8-5.8,6-11.1,10.9-15.1
			c1.8-1.5,3.9-3.1,6.2-1.8c3.1,1.9,1.1,4.6,0.4,7.1c-1.6,2.9-4.2,5.6-4.2,9c-0.3,15.8-9.9,24.9-21.6,32.3c-3.6,2.3-6,5.4-6.5,9.5
			c-1.1,9.1-7.1,14.6-13.1,21.8c6.2-6.4,11.3-12.1,12.8-20.1c1.1-5.7,3.1-10.6,9.1-11.6c6.2-1,11.5,1.9,15.7,6.5
			c4,4.4,3.1,9.2,0,13.9c-1.3,2-2.2,4-1.6,6.6c2.9,12,4.1,24.4,8.8,36c0.5,0.8,1,1.5,1.5,2.2c13.6,7.1,28.4,9.9,43.5,11.2
			c7.3,6.7,14.1,13.8,17.8,23.4c2.7,7.1,8.9,10.6,14.3,14.5c4.8,3.4,8.4-0.7,11.5-4.3c8.7-10.2,21.9-11.6,28.2-0.1
			c6.6,12,17.2,18.4,26,27.4c4.5,8.9,12,14.8,19,21.3c2.6,2.4,5.2,3.9,8.8,3.6c2.6-0.2,5.7-0.4,6.7,2.7c1.2,3.8-2.2,4.7-3,5.2
			c11.3-6.3,21.8-2.7,28.1,11.5c2.2,4.8,4.4,8.5,10.7,8.1c4.1-0.3,8.2,2,12,3.7c0.8,0.4,1.5,1,2.2,1.7c2.9,4.7,9.9,4.5,11.8,10.6
			c0.8,6.9,1.3,13.7,0.7,20.6c-0.3,3.5,1,5.9,3.6,7.6c2.9,2,4.8,0,6.4-2.3c3-4.3,5.7-3.6,8.2,0.6c6.9,2.2,13.4,5.4,20.2,7.8
			C764.8,851.3,767.8,852.9,770.1,856z"/>
		<path class="st37" d="M578.8,253.2c-0.4,15.7,5.7,27.9,16.5,39c5.3,5.4,5.7,13.1,1.6,21.8c-4.6,9.8-4.1,21.6-0.8,32.5
			c0.3,0.9,1.2,2.3,1.7,2.2c14.1-1.7,13.7,12,19.3,19.3c-10.8,12.3-23.4,9.9-36.6,5.3c-8.1-2.8-5.2-10.1-6-15.3
			c-2.3-15.7-5-19.3-17.2-20.3c4.8-1,9.8,2.4,14,7.4c4.5,5.3,4.1,12.5,3.5,18.1c-0.8,8,3.4,9.4,8.3,10.9
			c11.5,3.4,14.1,8.4,10.1,20.3c-2,6-2,14.7-13.4,8.6c4.3,14.1-5.4,21.7-13,27.4c-6.4,4.8-15.8,5.5-21.8,12.5c-0.8,1-2.5,0-2.7-1.6
			c-0.1-0.9-0.1-1.4-0.5-1.1c-0.5,0.6-0.1,0.8,0,1c0.6,1.4,2.2,2.9,2.7,2c6-9.7,18.4-7.7,25.3-15.8c4.8-5.7,11.7-9.9,11-19
			c-0.1-1.2,1.2-2.6,2.5-2.7c11.5-1.5,9.8-11.2,10.7-18.9c0.6-4.4,0.9-8,6.1-8.6c3.8-0.4,6.4-3.1,9.4-5c3.4-2.2,6.2-3.4,9.7-0.9
			c0.6,0.6,1.3,1.3,2,1.9c-3,12.2-3.9,25.4-14,34.6c-4.8,4.3-7.3,9.2-4.3,15.8c0.9,2.1,1.4,5,0.1,6.8c-4.7,6.3-1,9.9,3.6,13.4
			c0.4,0.9,0.9,1.9,0.8,2.9c-0.5,6.8-19.7,25.1-26,23.4c-6.5-1.7-9.8,2.6-9.9,6.4c-0.1,9.9-8.3,16.3-9,26c-0.4,6.5-5.3,7.4-9.9,3.7
			c-7.6-6.1-17.4-10.2-14.7-24c1.5-7.6-9.5-20.9-16.5-23.4c-3-1-4.3,0.7-5.3,2.8c-3.6,7.4-7.5,6-13.2,2c-6.2-4.4-12.4-8-9.4-17.4
			c2.2-6.9,7.1-9.7,12.4-5c7.5,6.5,15,3.2,22.7,2.7c3.1-0.2,3.6-2.4,3.4-5c-0.5-5.9,2.7-9.7,6.3-12.7c-3.1,1.3-4,5.1-6,7.8
			c-2.1,2.8,2.2,8.6-3.4,9.2c-6.9,0.7-13.4,4.7-21.1-1c-9.2-6.9-18.8-13-25.4-22.8c0-0.5,0-1-0.1-1.4c6.6-9.8,4.9-24.8,19.4-30
			c5.8-2.1,8.3-10.8,14.2-14.8c1.5-1,1.4-2.9,0.7-4.5c-4.7-10.7-2-20.3,3-30.2c3.7-7.3,0.8-15.1-1.3-22.5c-0.6-2.3-1.9-5.4,0.3-6.4
			c3.4-1.5,4.3,2.4,4.9,4.6c2.6,9.4,6.5,17.9,13.6,24.1c4.6-5.4,9-11.2,10.3-18.8c0.3-1.5,2-4,1.6-4.3c-9.6-8.4-1.9-19.5-4.2-28.8
			c-2.5-1-5.6,0.8-7.6-2.2c-0.4-2-1.8-4.9-1.1-5.6c7.6-7.7,6-17.6,6.4-26.9c0.2-3.8,2-5.3,5.5-5.3c2.9,0,5.7-0.6,8.2-2.6
			c4.3-3.4,8.4-6.4,8.9,3.2c0.1,3,3.2,4.3,6,2.6C575.3,248.2,576.9,251.1,578.8,253.2z"/>
		<path class="st37" d="M418,605.4c-3.3,4-6.5,7.9-9.8,11.9c-4.8-5.1-12.9-10.1-12.6-16.4c0.5-11.7,2.2-23.8,7.7-34.6
			c3.5-6.8,7.3-13.4,10.9-20.2c1.2-2.2,3.3-5.2-2.2-3.8c-1.3,0.3-2.4-1.4-1.8-2.7c2.7-7,2.1-13.1-2.2-19.6c-1.8-2.7-1.3-7.8,5-8.1
			c4-0.1,7.8-3.1,12.2-1.5c3,2.1,0.8,4.3-0.3,5.9c-3.6,5.2-3.8,11.6-5.6,17.4c2.1-6.7,1.7-14.7,8.4-19.3c3.4-0.6,4.8-3.2,5.9-6.2
			c1.6-3.6,2.2-8,1.9-11.5c-1-10.3,3.8-15.9,12.1-19.5c0.7-0.7,1.4-1.3,2.2-1.8c2.9-1.9,6.2-2.1,9.4-2.3c9.2-0.6,12.1,2.1,11.1,11.6
			c-1.5,13.8-3.5,27.4-6.4,41c-1.1,5.2,4.7,10.9,10.7,10.1c1.9-0.2,3.5-1.8,5.5-1.9c2.4,2.6,2.4,5.8,2.6,9c0.4-2.8-0.5-5.5-1.4-8.1
			c-2.2-2.4-4.1,0.2-6.2,0.6c-7.4,1-11.3-4.5-10.4-12c1.8-15.6,6.2-30.7,5.6-46.9c-0.4-9.3,3.3-18.9,5.4-28.3c1.2-5.4,7.1-5,11.4-6
			c1-0.2,2-0.2,2.9-0.1c4.1,1.2,4.1,4.5,3.9,8.1c-0.2,6.6,9.7,18.1,15.8,18.4c2.6,0.1,4.3-1.6,4.9-4.1c2.1-7.7,5.5-6.4,10.4-2.3
			c9.2,7.5,17.8,14.9,13.2,29c-0.7,2-1,4.5,1.3,5.2c7.9,2.7,11.4,11.1,19.2,14.5c7.8,3.4,3.4,11.1,2.4,17c-1,6.3-5.5,5.5-9.9,4.3
			c-2.2-0.6-4.4-1.1-6.7-0.6c-5.5,1.2-8.6-1-9.9-6.7c-0.6-2.5,0.5-7.1-4.1-6.5c-3.6,0.5-7.9,3.6-7.1,7.1c2,8.5-3.1,13.1-7.3,18.6
			c-2.2,4.1-5.4,5.9-9.9,5.1c-5.8-10.4-3.4-20.7,0.8-30.7c2-4.8,3.2-9.2,1.3-14.6c-4.8,2-6.7,5.4-6.3,9.7c0.6,6.2-1.4,12-1.5,18
			c-0.1,6.2-2.9,10.8-8,14c-1.6,2.2-1.5,5-2,7.6c-0.2,8.1-9,5.2-12.2,10.4c-3.6,5.7-9.3,9.9-11.2,17.2c-0.9,3.4-4.3,5.7-7.2,8
			c-2.2,1.8-6.2,2.2-6.9-0.2c-3.4-12-12.4-5-18.2-5.2c-6.4-0.1-11.5,5.5-13,13C421.2,599.6,418.2,601.9,418,605.4z"/>
		<path class="st37" d="M431.7,500c-3.1-8.4-13.6-5.4-17.9-12.5c-0.8-1.4-2.5,1.2-3.1,2.6c-0.6,1.5-1.1,3.6-3.1,2.4
			c-2.1-1.3-3.3-5.6-2.7-5.8c5.1-1.8,3.7-9.9,9.7-10.4c2.7-0.2,4.6-1.9,4.3-4.4c-0.2-2.4-2.5-3.8-4.6-4.6c-2-0.7-6,2.7-5.2-2.7
			c0.4-2.7,2.7-5.1,5.7-4.3c5.7,1.5,8.9,1.7,8.7-6.6c-0.1-3.7,5.5-2.9,8.5-0.7c1.2,0.9,1.8,2.7,2.6,4.2c5.2,9.7,8.8,10,14.3,0.2
			c4.2-7.4,8.8-12.2,17.6-7.4c2.1,1.1,3.6-0.5,4.6-2.5c5.3-0.6,4.9,3.4,4.4,6.7c-0.5,3.6-1,7.3-1.9,10.9c-1.3,5.5-3.6,8.4-10,8.1
			c-4.8-0.2-10.6-1-14.2,4.3l0.1-0.1c-1.3,1.7-3.2,2.2-5,2.5c-6.2,1.3-8.9,4.5-8.3,11.5C436.2,494.3,438.8,500.5,431.7,500z"/>
		<path class="st38" d="M449.3,477.8c2-6.9,7.8-5.3,12.5-6.1c3.4-0.6,8.6,2,9.1-4.3c0.5-6.5,7.7-13.1,0.1-19.7
			c1.8-2.2,3.6-4.3,5.5-6.5c4.1,0.4,8.5-1.8,12,2c-11.4,1.3-11.4,10.4-13.3,19.2c-4.4,20.9-3.6,42.6-9.5,63.2
			c-2,6.9,4.8,7.4,9.1,7.6c2.6,0.1,5.3-2.9,7.6,0.9c-0.5,1-1.1,1.3-2,0.4c-6.8,8-12.6-1.4-19-1.3c-1.5,0-1.2-2.5-0.6-4.2
			c5-13.9,6.2-28.6,7.9-43.1c1.3-11-0.4-12.2-11.1-10.6C454.8,475.9,452.1,477,449.3,477.8z"/>
		<path class="st38" d="M431.7,500c2.1-0.6,3.2-1.6,2.7-4.3c-2-12.1,3.9-17.5,15-18.1c-14.1,5.3-9.8,20.6-15.6,30.5
			C433.1,505.5,432.4,502.7,431.7,500z"/>
		<path class="st37" d="M506.4,548.6c2-2.5,6.5-1,7.4-5c0.7-2.1,2.4-3.3,4.1-4c4.8-2,6.3-5.2,4.6-10.2c-1.6-5,0-9,4.8-10.3
			c4.8-1.3,7.2,2.5,8.1,6.7c1.2,5.7,3.8,7.3,8.9,4.8c1.9-1,3.8-0.1,5.7,0.4c9.5,2.5,9.2,2.4,11.3-8c0.8-4.2-2.5-12,6.7-10.9
			c2.8,6.2,9,9.7,11.6,16c1.1,2.5,3.9,3,6,2.3c6.9-2.4,15,0.2,21.1-5.6c2.2-2.1,5.7-3.4,8.2-1.9c7.3,4.3,11.3,0,15.8-4.9
			c1.8-2,3.4-5.2,7.3-4c1-0.3-0.9,1-0.6-0.2c0.1-0.6-0.1-0.6-0.8-0.3c-3.4,0.9-5.4,3.8-7.5,6.2c-3.6,4.1-7.1,6.6-12.7,3.4
			c-2.7-1.5-6.4-1.3-8.3,0.9c-5.7,6.2-13.5,3.7-20.1,6.2c-3.2,1.2-7.1,0.8-9-3.7c-2.2-5.3-7.8-8.1-10-13.5
			c-7.6-6.5-8.5-15.5-1.8-22.2c2.9-2.8,4.1-4.5,3-9.2c-1.6-6.6,4.7-11.3,11.1-9.6c5.9,1.5,8.4-4,11.8-7c3.1-2.7,5.3-5.7,9.6-7.6
			c5.7-2.4,6.9-8.4,1.8-13.8c-3.4-1.8-4.8-4.1-3-8.1c1.5-3.3,2.8-6.9,0.8-10.6c-1.1-2-2.7-4.3,0.4-6c2.5-1.3,4.2,0.7,5.9,2.3
			c1.9,1.8,3.6,4.8,6.5,3.3c15.3-7.5,32.3-6.6,48.2-11.3c10.4-1.8,20.4,2.7,30.8,1.3c4.1-0.6,8.4,0.6,12.4-1.5
			c0.8-0.6,1.8-1,2.7-1.3c13-2.9,22.5,3.9,31.6,11.8c0.6,0.8,1,1.7,1.3,2.7c0.1,2.5-0.1,5-1.4,7.2c-3.3,4.9-5.2,10.6-9.5,15
			c-3.9,3.9-8.1,6.7-13.4,7.2c-9.2,0.9-15.2,6.9-19.9,14.1c-2.3,3.4-4.5,6.4-8,8.3c-5.9,1.7-10.1,4.8-11.8,11.5
			c-1.6,6.3-7.4,9-12.8,11.4c-5.5,2.4-10.8,5-16.4,7.1c5.7-2.1,11.3-4.8,16.9-7.2c5-2.2,10.6-4.9,12.1-10.8
			c1.9-7.1,6.4-10.2,12.4-12.4c7.7-3.9,9.3-14.3,17.4-17.9c2-0.9,3.4-3.6,5.7-3.6c15.1,0,21.5-11,27.4-22.8c1.6-5.9,5-9.3,11.3-7.8
			c5.7,1.3,10.7-2.2,16.2-2.1c6.5,2.6,10.6-0.1,16-4.6c5.4-4.5,13.5,0.3,20.4,1.1c10.4,1.2,20.2-2.4,30.2-2.6
			c10.6-0.2,19.8-5.7,30-6.4c4.5-0.4,9.5,0.8,9.9,5.7c0.4,5.2,8.1,10.9-1.1,16.2c-5.7,3.4-6.1,11.1-4.8,17.2c1.2,5.7,0,9.7-4.6,11.6
			c-8.1,3.4-7.9,10.2-7.3,16.9c0.9,10.4-0.6,20.9,0.3,30.9c1,11,1.5,22.7,6.4,33.1c-1.8,4.4-5.5,5.7-9.7,6
			c-12.3-2.9-22.4-0.3-33.6,7.4c-11.1,7.7-25.3,11.7-39.8,10.2c-7.6-0.8-14.3,0.4-22,4.1c-9.1,4.4-16.7,12.4-27.2,13.9
			c-3.3,8.4-10.5,14.6-11.5,24.6c-0.6,6.1-7.4,7.5-13,8.3c-8,2.3-15.7,1.3-23.8-0.7c-17.8-4.4-36-3.2-53.9,0.8
			c-6.2,1.4-12.5-2.5-18.2,0.8c-13.7,8-29.5,11.4-42.1,22c-6.2,5.2-14.5,5.7-22.3,5.5c-13.9-0.4-14.1-0.4-14.3,14.1
			c-0.1,5.7,0.1,11.4-0.1,17.1c-0.1,3.6,0.4,7.6-3.4,9.9c-16.6,2-31-5.8-46.1-10.7l0.1,0.1c-5-9.9-4.8-21.3-8.3-31.6
			c-1.4-4.1-2.5-9.4,0.8-14.4c5.5-8.3,3.7-12.7-5.3-17c-9.7-4.6-9.4-4.3-1.5-11.1c5-4.3,8.8-10.1,9.2-16.9c0.4-6,2-11.1,5.7-15.6
			c2.5-3.6,4.1-8,7.9-10.5c4.4-3.4,4.5-11.1,11.4-11.8C504.1,546.8,505.3,547.5,506.4,548.6z"/>
		<path class="st37" d="M854.1,546.5c3.2-1.3,6.4-2.7,9.7-4.1c4.5,6.5,3.3,16,13,20.4c5.2,2.4,4.1,13.7,10.1,19c1,0.8-2.5,5-5,6.7
			c-9,6.3-14.5,16.2-22.8,23.3c-0.8,0.7-0.9,2.3-1.8,4.9c14.6-6.8,17.2,8,24.4,13.4c13.7,10.3,16.8,27.6,21.4,43.1
			c2.7,9,6,17.6,9.8,25.9c1.8,4,0,7.1,0.5,10.6c0.5,3.8-4.1,3.4-6.6,3.9c-3.8,0.8-4.1-2.3-4.1-5.2c0-8.4,0.8-16.9-2.9-24.8
			c-1.5-3.3-2.4-6.9-5.7-9.1c-6.1-3.9-8-9.1-5-16.4c1.1-2.7,2.4-6.7-1.5-9c-3.4-1.9-5.2,0.8-7.6,2.7c-5.3,4.1-9.4,10.4-16.8,11
			c-0.8,0.1-1.9,0.9-2.3,1.8c-6.2,10.8-12.3,8.7-18.7,0.1c-1-1.3-2.8-2-3.9,0.3c-2,4-6,7.8-1.4,12.5c-0.9,5.6-5.3,4.1-8.5,4
			c-20.9-0.8-41.9,1.5-62.9-1.3c-6.4-0.8-13.9-0.2-20.7,1.5c-0.1,12.1-0.2,24.2-0.3,36.4c-7.4-4.3-4.1-11.8-4.3-17.8
			c-0.1-7.6-0.6-14.6-7.5-19.1c1-4.8,4.2-1.8,6.2-2.1c-10.5-2.7-12.2-5.8-9.7-18c0.6-2,1.8-3.6,2.9-5.2c2.6-3.9,0.8-5.5-3-5.8
			c-1.3-0.1-2.7-0.4-3.9-0.1c-16.7,4.3-26.4-6.4-36.1-17.5c-3.1-3.6-1.5-6.1,1.5-8.2c4.7-3.2,10.1-4.7,15.1-7
			c7.8-2.9,17-4.3,14.9-16.7c-0.2-1.4,0.6-3.1,1.6-3.4c7.3-2.4,5.8-10.2,9-15.2c5.7,0.1,9.9-3.3,14.8-5.6
			c11.5-5.4,22.1-16,36.6-10.4c4.8,1.9,9.9-0.3,14.2-2c10.6-4,22.8-4.1,31-13.9c5.2-6.2,12.6-3.7,19.2-4.1
			C849.4,546.3,851.7,549.6,854.1,546.5z"/>
		<path class="st37" d="M624.9,374.3c14.7-5.9,29.9-1.3,44.8-1.3c5.2,0,9.9,0.3,14.5-2.2c7.6-4.1,14.8-3.8,22,0.8
			c3.1,2,6.6,4.3,10,3.3c12.2-3.6,18.4,4.4,23.2,13.2c6.6,11.8,15.5,21.4,24.5,31c2.6,7-3.2,7.1-6.6,7.2c-5.5,0.1-11.3,0.8-16.7-1.3
			l0.1,0.1c-8.6-9.2-18-16.4-31.4-12.2l0.1-0.1c-10.4,4.5-21.3,3.2-32,2c-5.3-0.6-10.5-2.9-16-0.7c-11.1,4.3-23.2,2.4-34.4,6.6
			c-2.7,1-6,0.8-8.3,2.7c-6.1,4.9-8.8,1.1-12.5-3.6c-3.8-4.8-3.5-8.2,1-11.7c5.2-4.1,7.4-9.4,8.5-16.2
			C617,385.4,620.3,379.3,624.9,374.3z"/>
		<path class="st39" d="M619.5,372.6c-8.9-1.3-13.9,7.6-21.9,9c-2,0.4-1.6,4.2-1.3,6.4c0.6,5.2-0.8,12.5-3.3,14.1
			c-12,7.8-14.8,22.8-25,31.6c-0.7,0.6-1.8,1.4-2.5,1.3c-6.9-0.9-11.8,1.4-15.9,7.4c-1.5,2.2-5.7,4.8-8.5,1.3
			c-3.6-4.6,2-6.1,2.8-9.8c3.6,3.6-1.3,5.5,0.4,8.5c3.5-1.8,5.7-4.9,7.9-7.9c0.9-1.3,1.5-4.1,3.1-3.3c9.4,4.6,11.8-4.4,17.2-8.4
			c7.2-5.4,7-12.2,5.8-19.7c-0.3-1.9-2.5-3.9-0.3-5.4c2.5-1.8,4.3,0.6,5.5,2.5c3.6,5.8,5.5,4.2,7-1.4c1.2-4.7,3.6-8.9,2.7-14.4
			c-0.7-4.2-2.6-7.8-5.6-7.9c-11.6-0.7-14.8-7.1-14.9-18.1c-0.2-16.2-7-21.1-22.3-17.6c3.5-5.8,12.9-6.3,17.9-1.9
			c8,7,8.7,16.2,9,25.8c0.1,1.5-0.9,3.1,0.3,4.7c2,2.5,23.9,7.6,26.2,5.4c4-3.7,9-4.6,13.6-6.8C618,369.6,618.7,371.1,619.5,372.6z"
			/>
		<path class="st40" d="M624.9,374.3c-2.9,8.4-7.9,16-9.2,25.1c-0.5,3.3-2.9,7-5.5,9c-4.1,3.3-6.5,5.2-2.5,10.8
			c3.7,5.1,6.2,5.3,11.7,2.6c12.9-6.3,27.5-5.4,41.2-8.6c0.8,0.5,2,0.6,2.1,2c-11.1,6.9-24.3,2.3-35.7,7.6c-1.5,0.7-3.1,0.6-4.7,1.2
			c-11.2,4.2-11.2,4.3-19.6-4c3.8,5.1,2.6,10.5,0.5,15.3c-1.8,4.1,0.3,6,2.4,8.5c0.6,0.4,0.8,0.7,0.7,1c-0.2,0.4-0.3,0.6-0.6,0.6
			c-5-2.5-15.1-2.5-5.5-12.1c1.7-1.7,1.7-4.8,0.5-6.7c-5-8.1-2-14.5,4.7-18.6c9.9-6.2,6.4-18.4,12.4-26.1c1.6-2,2.3-4.8,3.4-7.2
			C622.6,374.4,623.7,374.4,624.9,374.3z"/>
		<path class="st37" d="M732.9,680c9.6,1.1,10.2,7.8,10,15.9c-0.1,7.4-2.2,15.2,1.5,22.4c9.7,0.2,19.4,0.4,29.1,0.7
			c8.1,0.3,8.4,7.9,9.7,13c1,3.8,1.3,10.4-2.4,12.8c-2.6,1.7-7-1.5-10.3-4.3c-6.2-5.2-10.5,4.5-16.7,3.3c-1.5-0.3-3.4,2-5.2,2.6
			c-4.5,1.5-11.1-0.6-13.3,4.1c-2,4.5-0.9,10.5-1,15.9c-0.1,6.1-0.3,12.2,0.1,18.2c0.6,8.4,3.5,15,11.2,19.7
			c7.1,4.4,17.6,7.3,12.9,20.8c-1,2.8,2.5,8.6,5.5,11.3c4.8,4.3,4,8.5,2,13.4c-0.4,0.6-1,1.1-1.5,0.9c-8.1-2.6-15.5-7.9-24.6-6.5
			c0.8-4.5-0.1-6.9-5.4-6.1c-9,1.3-13.6-3.4-12-13.1c0.7-4.5,0-8.5-0.5-12.6c0.8-3.6-1.2-3.6-3.7-3.3c-3.7,0.6-6.9-0.1-8.9-3.8
			l0.1,0.1c-5.6-3.1-11.1-6.6-18-5.2c-6.2,1.2-6.5-6-6.6-7.8c-0.3-9.8-8.5-12.7-13.9-14c-19.9-4.8-36.1-14.1-46.9-32.3
			c-1.5-6.2,2.4-10.2,5.8-14.1c3-3.5,6.5-6.7,10.2-9.4c5.5-4.1,9.4-8.2,9.5-16.2c0.1-6.9,3.8-13.5,6.7-20c0.7-1.5,1.5-3.6,3-3.8
			c10.2-1.9,17.8-10.6,27.4-12.2c10.4-1.6,20.4-3.6,30.2-7.1c2.9-1,6.3-2,9.5-0.4C727.7,668.9,730.4,674.5,732.9,680z"/>
		<path class="st41" d="M484.5,568.7c-2.9,5.6-4.8,11.3-6,17.8c-1.6,8.8-6.2,16.5-14.9,20.2c1.3,3.2,3.6,3.6,5.6,4.4
			c11.8,5,12.8,8.1,6.9,20c-2.7,5.5-0.8,11.1,0.5,16.6c2.1,9.4,4.1,18.8,6,28.2c-8.4-12.5-7.4-27.9-11.5-41.7
			c-0.4-1.2,0.8-3.2,1.9-4.4c2.7-3.2,5.5-6.6,2.5-10.6c-3.7-5-9.5-7.5-15.4-7c-4.7,0.4-6.2,4.8-7.1,9.6c-2,10.6-9.8,17.4-17.2,26.7
			c0.2-6,2.9-8.3,4.9-11.2c3.9-5.5,8.5-10.4,9.3-18.3c0.8-7.7,8.3-12,13.8-16.2c7.9-6,12.5-12.9,12.9-23c0.1-4.7,2-8.4,5.7-11.2
			C483.1,567.9,483.8,567.9,484.5,568.7z"/>
		<path class="st42" d="M625.3,748.2c-0.1-0.5-0.1-1,0-1.5c5.2,5,10.9,9.4,15.3,14.9c4.3,5.5,9.3,6.9,15.5,8.8
			c9.7,2.9,18.7,8.8,27.9,13.4c0.1,15.8,13.6,13.3,22.3,17.4c2.1,1,3.3,1.9,3.1,4.3c-6.9,1.3-12.5-5.5-20.4-2.9c-3.2,1-5-7.1-6.8-11
			c-4.5-9.7-13.8-14.3-23.4-10c-2.9,1.3-5.5,1.8-9,1c2.7-3.3,8.3-1.9,9.5-6.9C641.8,774.7,632.5,762.9,625.3,748.2z"/>
		<path class="st43" d="M484.5,568.7c-0.8,0-1.5-0.1-2.2-0.1c0.3-1.6,0.6-3.2,1.2-6c-6.3,4-11,8.1-13.2,14.6
			c-1.5,4.6-4.5,8-7.6,11.4c-3.4,3.6-8,4.2-11.6,1.6c-13.4-9.5-21.1-7.1-28.3,9c-1,2.4-3.1,4.2-4.7,6.3c-0.6-11,7.8-23.5,17.1-24.3
			c4.5-0.4,8.9-0.1,13.3-1.6c2.5-0.8,4.5,0.6,5,3.4c1.8,10.4,6.4,4.9,9,1.1c5.5-8.1,10.4-16.7,16.9-24.3c3-3.6,10.4,0.6,9.6-7
			c6.7-0.1,8.9,2.1,3.6,7.8C489.7,563.3,487.1,566,484.5,568.7z"/>
		<path class="st44" d="M740.4,843.8c-0.3,0-0.7,0.1-1,0c-1.4-4.8-2.8-5-5-0.3c-1.3,2.9-3.2,7.1-6.9,4.6c-3.4-2.4-9.2-5.4-7.9-10.1
			c2-7.4-1.2-14.8,1.5-21.8c-1-2.6-1.5-4.9,2.5-4.6c3.2,6.3-0.6,13.1,1.6,19.7c1.7,5,2.3,7.8,8.1,4.8c2.5-1.3,6.6-1.5,8.9,1.5
			C744,840.1,740.5,841.6,740.4,843.8z"/>
		<path class="st45" d="M527.6,686.2c0.1,0.5,0.1,1,0.1,1.5c-8.3,0.5-16.2-0.1-24.5-2.7c-4.5-1.4-9.5-3.6-14.6-4.3
			c-2.4-0.4-6.3-0.1-6.1-4.8C497.8,678.3,511.9,685.7,527.6,686.2z"/>
		<path class="st42" d="M611.7,807.4c0.3-8,6.6-11.7,12.1-11.8c8.1-0.1,13.4-1.8,16-10.2c0.4-1.3,2.5-2.1,3.9-3.2
			c-4.2,13.4-4.1,13.5-17,15.3c-6.6,0.9-9.8,7-15.1,9.8L611.7,807.4z"/>
		<path class="st42" d="M582.3,815.5c8.3,6.6,16.4-3.3,25.1-0.5c3.4,1,0.9-6.1,4.3-7.6l-0.1-0.1c0.2,7.3,1.3,15.4-10.3,10.5
			c-0.9-0.4-2.8,0.1-3.5,0.8c-7.1,8.5-11.2,2.5-15.4-3.2L582.3,815.5z"/>
		<path class="st46" d="M723.6,811.6c-2.2,0.7-2.3,2.7-2.5,4.6c-3.1-1-3.7-5.7-8.2-4.9c-4.9,0.9-3-3.5-3.5-6
			c3.4,2.6,6.9,2.4,10.6,0.3c2.6-1.3,5.4,0.2,6.6,2.5C727.9,810.5,725.5,811.2,723.6,811.6z"/>
		<path class="st38" d="M605.8,445.3c0-0.6,0-1.1-0.1-1.6c8.3,2.8,2.1,8.1,1.9,12.2c-0.1,3.9-1.6,5.7-6.3,4c-3.7-1.4-4.4,4.2-7,5.7
			c-4.9,2.8-6.6,15.1-16.2,5.7c-1-1-8,5-5.7,10.4c1.7,4.1,0.6,6.9-2,8.8c-9.2,6.7-6.1,13.9-1.3,21.3c-0.3,0.2-0.6,0.5-0.8,0.7
			c-5-0.6-4.8,3.2-5.2,6.5c-0.4,3.3-0.8,6.6-1.3,9.9c-0.8,5.5-1.9,10.7-8.7,4.6c-1.1-1-3.2-1.9-4.5-1.5c-8.5,2.5-14,0.1-16.2-9.3
			c-0.5-2-2.9-2.7-4.9-1.9c-2.6,1.1-5,3.4-3.6,6.2c5.7,11.6-4.1,12.7-10,16.4c-0.3-3.2,1.5-5,4.1-6.2c3.8-1.8,4.5-4.9,2.9-8.3
			c-2.7-5.4,0.6-8.3,3.9-11c2.7-2.2,5.7-5,9.6-3.6c4.1,1.5,1.2,5.2,2,7.8c1.3,4.1,0.8,10.2,8.4,6.5c4.3-2,8.7,2.1,13.4,2.3
			c0.7-3.2,1.3-6.5,2-9.8c1.3-5,1.2-9.2-5-10.6c-8.1-1.9-9.6-13-18.5-14.4c-2.3-0.4,0-4.8,0.6-7.2c2.5-9.2-8.3-27.4-17-28.8
			c-1.5-0.3-2.5,0.6-3.1,1.8c-1.8,3.9-3.6,10.2-8.4,7.2c-6.6-4-16.7-5.7-16.6-17.1c0-3.4,1.5-7.8-3.8-8.9c2-1.5,4.5-2.6,6-4.5
			c2.9-3.8,2.4-7.5-2.7-8.2c-7.1-0.9-10.1-4.4-9.1-11.7c2.6,6.4,10.9,6.2,13.3,10.2c3.5,5.7,8.7,8.4,12.9,12.7
			c6.6,6.6,13.6,1,20.4,1.2c2.6,0.1,0.5-3.3,0.9-4.9c1.4-5.2,4-10.1,8.5-12.9c2.7-1.6,5.5,0.3,6.9,4.9c-7.5-4.1-9.6,1.1-11.3,6.3
			c-1.3,3.9-0.5,12.2-3.4,11.3c-7.4-2.5-15.3,5.1-22-2.2c-2.1-2.3-4.9-5-9.4-3c-4.8,2.1-3.6,6.5-3.8,9.4c-0.7,9.1,8.8,9.4,13.4,13.7
			c3.8,3.5,3.9-3.2,5.6-5.4c3.1-3.9,5-6.6,10.4-1.1c4.9,5,10.9,9,13.9,15.8c1.3,3,3.9,6.3,2.4,9.5c-3.7,7.8,0.8,11.2,5.8,15.4
			c3.6,3.1,7.6,8.1,11.6,7.6c4.8-0.6,1.3-7.6,3.6-11.3c1.5-2.7,0.8-6.7,4.7-8.1c2.9-1,2.5-2.7,1.5-5.5c-2.5-6.8,3.6-9.9,6.7-14.3
			c3.1-4.2,4.7-0.1,6.7,1.6c0.6,0.5,1.9,0.8,2.5,0.6c7.4-4.5,10.6-14,19.9-16.6C606.5,453.1,605.9,448.4,605.8,445.3z"/>
		<path class="st47" d="M506.4,548.6c-1.4-0.1-2.8-0.1-4.3-0.1c-1.1-0.9-1.5-2.2-1.7-3.6c-0.3-1.1,0.7-2.2,0-3.4
			c-0.4,1.5-0.9,2.9-1.9,4.1c-3.1,2.7-6,3.3-8.3-1.1c10.2-7.5,9.1-19.2,8.8-29.6c-0.1-7,3.7-10.3,6.9-14.4c1.8-2.2,5.2-1.4,5.7,2.2
			c0.5,3.9,1.7,9.1-0.1,11.8C504.3,525.2,505.7,536.8,506.4,548.6z"/>
		<path class="st48" d="M490.3,544.4c2.5,1.4,4.9,2.5,7.4,0c1.5-1.3,3-1.3,4.6,0c0,1.3,0,2.7,0,3.9c-6.4,1.4-3.9,10.5-9.8,12.2
			c3.5-4.9,0-6.4-3.6-7.8C488.7,549.8,487.2,546.7,490.3,544.4z"/>
		<path class="st49" d="M480.3,534.6c0.6-0.1,1.3-0.3,2-0.4c3.6,5,5,9.9-1.3,14.9C480.8,544,480.5,539.3,480.3,534.6z"/>
		<path class="st50" d="M854.1,546.5c1.2,1,3.6,2.4,3.4,2.9c-0.8,2.3-2.4,2-4.5,1.1c-9.2-3.8-17.8-6-25.6,4
			c-2.9,3.6-7.6,6.9-13.6,6.2c-7.1-0.9-11.4,6.8-19.4,6.4c-5.3-0.2-11,1.9-16.8,0.4c-11.8-3-20,6.1-29.6,10.2
			c-5.5,2.3-9.9,7.8-16.7,5.2c-1.8,0.7-2.4,0.1-2.1-1.8c4.6-1.7,11.7,1.3,12.8-7.2c0.1-0.4,1-0.8,1.6-0.9c14.1-2,25.8-16.5,41.7-8.4
			c5.2,2.6,9.2-2.2,13.4-3.6c8.8-2.9,18.5-3,25.9-10.8C832.7,541.7,843.8,544.5,854.1,546.5z"/>
		<path class="st40" d="M569,511.8c3.8,4.8,9.6,8,11.8,14.4c0.8,2.3,3.3,2.8,5,2.1c7.1-3,15.7,0.1,22-6c0.9-0.8,2.7-2,3.5-1.6
			c10.2,4.5,16.5-1.5,22.9-8c1.1-1.2,3.7-1,6.5,0.8c-4.8,0.5-7.5,3.2-9.9,6.2c-4.2,5.2-8.4,9.5-15.6,4.8c-1.9-1.3-5-0.7-6.4,1
			c-5.6,6.9-13.9,4.8-20.8,6.6c-6.8,1.8-15.6-7.6-19.7-19.4C568.5,512.2,568.8,512,569,511.8z"/>
		<path class="st51" d="M690,477.8c4.7-7.4,8.6-15.5,16.7-19.8c1.4-0.8,2.7-2.6,4.1-2.7c14.6-0.8,22-11.9,30-22l-0.1-0.1
			c-2.9,13.6-11.5,21.8-24.4,24.2c-7.9,1.5-13.6,7.1-17.6,14.2c-2.1,3.8-4.2,6.6-8.9,6.1L690,477.8z"/>
		<path class="st40" d="M689.8,477.6c-5.6,4-9.5,9.2-12.2,15.8c-2.3,5.7-8.2,6.9-13.3,9.1c-6.7,2.9-13.2,6.3-22.3,10.6
			c1.8-3.3,5.2-8.3,9.9-8.8c23.8-2.4,59,113.1,55.4,114.7c-3.8,1.7-32.3-124.7-29-134.7c1-3.1,3.1-4.8,3.1-4.8
			c2.2-1.8,5.1-2.2,8.5-1.8C689.9,477.8,689.9,477.7,689.8,477.6z"/>
		<path class="st52" d="M729.1,581.2c0.7,0.6,1.4,1.2,2.1,1.8c-0.8,5.8,1.7,13.3-7.3,14.8c-0.6,0.1-1.7,1.5-1.6,2.2
			c2.4,12.5-6.9,15.3-14.8,19c0-1.2,0-2.4,0-3.6c6.2-2.9,12.2-4.2,11.3-14.8C718.1,594.5,726.7,588.6,729.1,581.2z"/>
		<path class="st53" d="M501.1,530.8c2.8-8.7-1.2-19.3,7.2-27.6C512.1,515.1,501.8,521.7,501.1,530.8z"/>
		<path class="st54" d="M502.2,544.5c-1.5,0-3,0-4.6,0c0.8-2.9,0.1-6.5,3.5-8.5C504.1,538.5,503.9,541.4,502.2,544.5z"/>
		<path class="st55" d="M488.5,443.2c-4-0.7-8.6,2.3-12-2c4.7-3.5,4.3-8.9,3.4-13.5c-0.7-3.9-0.3-6.4,2.8-8.6l-0.1-0.1
			c1.4,4,2.4,8.9,7.1,9.5c5.1,0.6,7.4,3,7.4,8c0,6-5.1,5.5-8.7,6.9L488.5,443.2z"/>
	</g>
	<path class="st56" d="M601.6,74.4c0.1,4-1.5,7.3-3.8,10.2c-2.4-0.3-7.1-0.7-6.3-2.2C593.6,78.8,596.6,74.8,601.6,74.4z"/>
	<path class="st57" d="M347.3,304.7c0.6,4.4,3.5,8.6,0.9,14.1c-4.5-4.2-2.2-9.3-2.9-13.7C346.1,305,346.7,304.9,347.3,304.7z"/>
	<path class="st58" d="M386.6,503.4c-7.4,2.9-6,11.1-9.2,16.7c-3.9,6.9-13.5,11.3-7.3,23.4c3.4,6.4-14.6,11.9-24,8.3
		c-10.1-3.8-20.3-10.2-32-5.6c2.4-7.4,5.9-8.4,13.4-5.7c10.6,3.8,20.8,10.9,33.5,7.7c6.7-1.7,7.6-4,4.2-9.3
		c-3.8-6-3.4-10.4,3.6-13.4c5-2.2,6.4-8.1,7.4-12.2c1.5-6.5,5-9.8,10.1-12.3C386.5,501.7,386.5,502.6,386.6,503.4z"/>
	<path class="st59" d="M316,596.4c4.8,2,9,7.1,14.8,2c0.9-0.8,3.9-0.8,4.6,0c6.4,8,14.7,2.2,21.9,3.5c3.2,0.6,7.6-0.1,8.1-3.8
		c2-13.2,10-6,16-5.4c1.8,0.1,3.4,2,5,3c0,4.3,0,8.5,0.1,12.7c-1.9-1.8-1.4-4.3-1.7-6.7c-0.6-6.1-5.7-5.3-9.5-6.7
		c-4.4-1.7-4.6,2-6.1,4.4c-1.2,2-2.7,5.3-4,5.2c-9-0.5-18.5,6.9-26.9-1.1c-3.4-3.2-5.9-3.2-9.3-0.8c-6.6,4.3-11.5,2-15-4.5
		C314.6,597.8,315.4,597.1,316,596.4z"/>
	<path class="st60" d="M373.2,270.3c1.1,5,5.7,7.8,7.5,11.8c2.9,6.3,4.2,12.8-0.4,20.2c-8,12.9-10.8,28.1-13.3,43.1
		c-4.5-3.8-2.6-8.8-1.5-12.8c2.9-10.6,5.1-21.5,10.9-31c4.8-7.8,6.9-15.3-2.8-21.1c-0.7-0.4-0.6-2.4-0.8-3.7
		C373,274.6,373.2,272.4,373.2,270.3z"/>
	<path class="st61" d="M509.7,209.9c8,2.2,7.5,10,7.6,15.4c0.1,4.6-6.2,2.9-9.9,3.1c-2,0.1-4.1-0.6-5.2,1.6c-1.6,3.2,1.9,3.5,3,5.2
		c4.3,6.5,6.6,14.3,11.7,20.4c1.5,2-0.8,4.9-2.6,6.9c-0.8-0.7-1.8-1.3-2.6-2c3.9-3.6,0.3-6.4-1.5-8.5c-5-5.8-5.8-14.1-12.2-19.5
		c-3.3-2.7,3.1-7.6,5-7.5C518.3,225.8,512,216.9,509.7,209.9z"/>
	<path class="st62" d="M410,345.4c6.2-5.1,10.2-12.1,15.1-18.3c6.9-8.8,14.9-16.5,27.3-15.7c2.8,0.2,2.6-3.6,4.8-4.4
		c1.3,1.3,2.5,2.7,3.8,4c-6.7,3-13.8,4.7-20.6,6.8s-10.9,10.3-15.5,16.3C420.7,339.3,417.5,345.4,410,345.4z"/>
	<path class="st63" d="M529.3,152.9c3.8,12.5-1.3,23.1-11.8,25c10.2-6.6,9.5-16.9,6.5-26.3c-2.6-8.1-2.1-15.1,1-22.4
		c1.6,0,3.1,0.1,4.8,0.1c-3.1,6.5-7.3,12.9-2.3,20.4C529,150.3,530,151.1,529.3,152.9z"/>
	<path class="st64" d="M455,183.1c2.2-9.7,11.1-17.5,7.4-29c-1.1-3.4-1.1-7.3-1.6-10.9c0.8,0,1.5,0.1,2.3,0.1
		c2.9,11.1,6.9,22.1-1.5,32.6c-2.4,3.1-4.1,6.7-6.2,10C455.4,185,455.1,184.1,455,183.1z"/>
	<path class="st65" d="M513.7,806.6c12.1-2.9,20.5,9.6,32.3,8.5c0.8-0.1,2,2.3,2.9,3.6l0.1-0.1c-8-1.2-16.5,0.3-23.2-6.5
		c-3.4-3.4-8.1-0.4-12.1-1.5C513.7,809.3,513.7,807.9,513.7,806.6z"/>
	<path class="st66" d="M423.9,517.6c-5.7,6.4-3.6,16.9-11.5,22.4c2.9-8.8,6-17.6,8.9-26.5C423.5,514,423.8,515.8,423.9,517.6z"/>
	<path class="st67" d="M533.7,288.5c2.5,0.9,5.6-0.6,7.6,2.2c-2.9,0.6-1.1,6.1-4.3,5.2C533.8,295.1,535.1,290.9,533.7,288.5z"/>
	<path class="st68" d="M392.5,693c2.4-3.1,4.7-6.2,7.1-9.3c0.7,6-2.6,9.2-7.1,11.5C392.5,694.5,392.5,693.8,392.5,693z"/>
	<path class="st69" d="M562.4,240.4c-4.5-1.5-7.8,2-12.8,3.2c1.7-6.7,6-10.6,9.2-15.3c7.8-11.2,9.1-25.1,10.9-37.8
		c2.5-18.4,10.6-33.2,20.6-47.5c1.1-1.5,3.2-3.6,4.5-3.4c9.5,1.3,12-5.6,14.5-12.7c5.4,12.5,2.7,18.5-9.4,22.5c-3,1-6.6,2.2-7.9,5.2
		c-6.4,14.4-18.2,26.7-19.1,43.3c-0.8,13.7-2.7,26.7-9.9,38.5C562.2,237.4,562.5,239.1,562.4,240.4z"/>
	<path class="st0" d="M170.3,397.6c-8.9-0.7-17.7-0.9-26.6-0.5c-6.4,0.3-6.4,10.3,0,10c8.9-0.4,17.7-0.3,26.6,0.5
		C176.7,408.2,176.7,398.2,170.3,397.6z"/>
	<path class="st0" d="M126.3,393c-6.4,0-6.4,10,0,10C132.8,403,132.8,393,126.3,393z"/>
	<path class="st70" d="M552.7,905.7c-6-0.6-9.5-4.4-11.6-9.9C548.3,894.9,554.7,895.2,552.7,905.7z"/>
	<path class="st71" d="M93.2,399.2c-0.2,0-0.4,0.1-0.6,0.1c-1-0.1-2.1-0.2-3.1-0.4c2.8-0.1,5.6-0.1,8.4-0.1
		C96.3,398.9,94.7,399.1,93.2,399.2z"/>
	<path class="st72" d="M607.1,892.5c-0.4-0.3-1.4-0.9-2.4-1.6c1.2-3.6,0.5-7.9-2.7-11.5c-1.5-1.7-4.7-2-6.5-0.6
		c-2-2.9-4.8-5.3-8.2-6.7c-3-1.3-5.8,0.4-7,2.6c-1.7,0.8-2.8,2.5-3,4.5c-0.7,7.2,0.9,14.3,4.7,20.5c2.3,3.9,7.3,2.5,8.9-0.6
		c4.5,2.8,9.8,3.6,15.1,2.4C610.3,900.6,610.5,894.7,607.1,892.5z"/>
	<path class="st71" d="M531.4,887c-0.3,0.1-0.5,0.2-0.8,0.3c-5.3,0-10.7,0-16,0c-1.2-0.1-2.3-0.2-3.5-0.4c0.4-0.1,0.8-0.2,1.1-0.3
		C518.7,886.6,525,886.8,531.4,887z"/>
	<path class="st71" d="M619,924c-6.4,0-6.4,10,0,10C625.4,934,625.4,924,619,924z"/>
	<path class="st73" d="M740.7,685.2c8.5-2,16.7-3.8,25.9-3.2c22,1.5,44.2,3,66.2-0.9c3-6.5,3-6.5,5.7-3.8c-1.8,9-7.3,10.8-15.4,10.1
		c-20.7-1.4-41.6,1.9-62.2-2c-4.1-0.8-8,3-12.4,1.5C746.3,684.2,743.3,685.5,740.7,685.2z"/>
	<path class="st74" d="M736.7,428.3c5.5,0,10.9,0.1,16.3,0c3.6-0.1,7.3-0.6,7-5.8c1.5,1.4,2.9,2.7,4.4,4.1c-4.1,4.1-9.5,6.2-14.6,5
		c-6-1.5-9.6,0.6-13,4.8l0.1,0.1C736.8,433.7,736.7,431,736.7,428.3z"/>
	<path class="st75" d="M428.1,651.6c3.6,13.4-13.4,13.4-14.5,24.1C414.1,665.1,424.8,660.8,428.1,651.6z"/>
	<path class="st76" d="M578.3,818.6c-9.8,1.2-19.6,4.5-29.4,0.1l-0.1,0.1c3.9-0.6,8.4,1.1,11.7-2.9c0.6-0.8,3-1.4,3.4-0.9
		c4.1,4.5,9.8,1.8,14.4,3.8C578.3,818.7,578.3,818.6,578.3,818.6z"/>
	<path class="st60" d="M410.2,345.4"/>
	<path class="st77" d="M510.9,179.6c-1,2.1-1.5,4.5-2.9,6.3c-6.1,7.4-6.9,14,1.3,20.4c0.8,0.6,0.5,2.4,0.8,3.8
		c-5.7-3.5-11.5-7.4-9.9-15.3C501.3,188.2,503.9,182,510.9,179.6z"/>
	<path class="st78" d="M529.3,152.9c-0.6-1.1-1.2-2.2-1.8-3.2c13.1-5.4,19.7,5.2,27.6,12.2c5.3,4.8-2.9,8.8-1.7,13.6
		c-0.4,1.8-1,3.4-3.1,2c-1.9-1.3-2.5-3.4-0.8-5.1c6-6.3,0.8-7.8-2.9-12.3C541.5,153.6,537.3,149.7,529.3,152.9z"/>
	<path class="st79" d="M658.8,418.4c-0.7-0.6-1.4-1.3-2.1-2c2.2-1.3,4.4-2.8,7.2-1.9c13.7,4.5,27.7,3.1,41.7,1.5
		c-1.1,4.3-4.5,3.7-7.7,4.1C684.7,421.8,671.8,418.7,658.8,418.4z"/>
	<path class="st80" d="M736.4,847.1c7-2.7,13.5-4,18.8,3.7c1.3,1.8,4.1,2.9,6.9,2.2c1.1,2.2,4.5,2.8,3.9,6.2
		c-3.9-2-7.4-5.7-12.2-2.7c-1.4,0.8-2.6-0.1-3.1-1.3c-2.6-6.4-7.4-5.9-12.6-4.5c-2.6,0.6-3.4-1-2.8-3.5
		C735.6,847.1,736,847.1,736.4,847.1z"/>
	<path class="st81" d="M705.4,416.2c12.3-5.7,26.2-0.4,31.4,12.2C727.1,422.2,717.9,414.5,705.4,416.2z"/>
	
		<image style="overflow:visible;enable-background:new    ;" width="490" height="611" id="ciudades_x5F_verde" xlink:href="127D9FB.png"  transform="matrix(1.4299 0 0 1.692 167.1888 9.9562)">
	</image>
	<path class="st82" d="M722.7,667.2c1.5-0.8,2.9-1.5,4.3-2.2c-3.1,9.3,0.1,15,10.4,17c-3.4,2.1-6,1.5-8.5,1.3
		C724.8,678.7,720.2,674.5,722.7,667.2z"/>
</g>
<image style="overflow:visible;" width="593" height="871" id="ciudades_x5F_rojo" xlink:href="ciudades_rojo.png"  transform="matrix(1 0 0 1 42.7813 67.73)">
</image>
</svg>
