<svg xmlns="http://www.w3.org/2000/svg" viewBox="0 0 488 514"><defs><style>.cls-1{fill:#fefefe;}.cls-2{fill:#94aa0b;}.cls-3{fill:#342904;}.cls-4{fill:#362c04;}.cls-5{fill:#3b3004;}.cls-6{fill:#423805;}.cls-7{fill:#342b04;}.cls-8{fill:#322604;}.cls-9{fill:#3c3305;}.cls-10{fill:#3c3205;}.cls-11{fill:#100b01;}.cls-12{fill:#2c2103;}.cls-13{fill:#4f4706;}.cls-14{fill:#5e5d07;}.cls-15{fill:#241c03;}.cls-16{fill:#493d05;}.cls-17{fill:#2f2604;}.cls-18{fill:#8c960a;}.cls-19{fill:#8c9a0a;}.cls-20{fill:#94a80b;}.cls-21{fill:#040201;}.cls-22{fill:#060402;}.cls-23{fill:#050301;}.cls-24{fill:#906e4e;}.cls-25{fill:#a68265;}.cls-26{fill:#8e694d;}.cls-27{fill:#906d52;}.cls-28{fill:#a89381;}.cls-29{fill:#926f50;}.cls-30{fill:#a1786d;}.cls-31{fill:#a79281;}.cls-32{fill:#8f6754;}.cls-33{fill:#8b684a;}.cls-34{fill:#c48f74;}.cls-35{fill:#b48867;}.cls-36{fill:#f9640c;}.cls-37{fill:#f8630c;}.cls-38{fill:#865c40;}.cls-39{fill:#93190b;}.cls-40{fill:#92190b;}.cls-41{fill:#2f0804;}.cls-42{fill:#230603;}.cls-43{fill:#6e4813;}.cls-44{fill:#58390f;}.cls-45{fill:#060401;}.cls-46{fill:#f4c030;}.cls-47{fill:#f1bd2f;}.cls-48{fill:#edba2e;}.cls-49{fill:#d8ab2b;}.cls-50{fill:#55360e;}.cls-51{fill:#40280b;}.cls-52{fill:#674612;}.cls-53{fill:#362904;}.cls-54{fill:#362b04;}.cls-55{fill:#605907;}.cls-56{fill:#463b05;}.cls-57{fill:#171106;}.cls-58{fill:#453b05;}.cls-59{fill:#2a2303;}.cls-60{fill:#916a56;}.cls-61{fill:#454005;}.cls-62{fill:#433a05;}.cls-63{fill:#51330d;}.cls-64{fill:#4b300c;}.cls-65{fill:#312104;}.cls-66{fill:#2d1f03;}.cls-67{fill:#302204;}</style></defs><g id="Capa_2" data-name="Capa 2"><g id="Capa_1-2" data-name="Capa 1"><path class="cls-1" d="M483.82,0c3.26,0,4.18.43,4.18,4q-.18,252.86,0,505.7c0,3.73-.92,4.29-4.4,4.29Q244,513.85,4.44,514C1,514,0,513.56,0,509.74Q.2,256.9,0,4C0,.53.83,0,4.15,0Q90.1.2,176,.09"/><g id="verde"><path class="cls-2" d="M329,413.37c-3.46,18.43-7,36.84-10.34,55.3-1.7,9.42-4.32,18.68-5,28.65-4.24-1.85-6.37-5.44-9.06-8.39-1.57-1.72-2.9-3-5.36-1-2.07,1.7-4.48-.05-5.85-1.13-1.79-1.42.27-3.22,1.22-4.69,4.9-7.7,9.33-15.69,14.89-23,1.66-2.19,2-3.75-1.59-6.29-6.23-4.4-13.43-6.62-19.61-10.79-1.87-1.25-4.4-1.86-5.5-.87-6.65,5.94-12.78,1.85-18.37-1.18-3.25-1.76-4.48-.53-5.72,1.42-1.12,1.76-3,1.81-4.22,2.76-7.61,5.9-16.58-.66-24.42,3-2.43,1.15-2.89-3.16-5.5-3.4-4.75-.42-1.29-2.64-1.1-4.54a21.25,21.25,0,0,0-1.19-8.08c-1-3.22-3.32-3.91-6.57-2.79-1.46.51-3-1.45-4.72-1,2.81-3.59,1.11-6.62-.91-9.89-1.91-3.09-3.1-6.59-7.91-5.3-1.27.34-1.77-1.29-2.66-2-2-1.59-3.54-3.85-6.77-3.58-2.14.18-3.85-1.17-3.27-3.8a3.48,3.48,0,0,0-.31-2.79c-3.31-5.89-3.27-5.89,2.87-7.86,2.68-.86,5.32-1.85,8-2.79,3-1.46,5.86-1.22,8.25,1,2.74,2.52,6.51.91,9.35,2.73.52.38,1.16,1.09,1.65.91,4.41-1.55,9,0,13.39-.79,2.65,1.55,5.1,4.79,8.37.91a1.61,1.61,0,0,1,1.84-.33c4.74,2,4.47-1.72,5.14-4.4,2.34-3.52,5.26-6,9.84-5.5,3.6.38,4-2.55,4.76-4.37-.52,3.43-3,4.61-6.84,4.45-3.67-.15-5.92,2.57-7.79,5.44-.62,2.79-.66,6.26-5.21,4.27a1.58,1.58,0,0,0-1.81.42c-2.77,3.28-5.16,1.16-7.59-.47-5-.83-10,0-14.94.05-5.56-1.29-10.53-4.47-16.29-5.14a3.83,3.83,0,0,1-2.14-1.11c-3.44-2.56-7.65-3.84-10.91-6.78-1.27-1.14-3.57-2.44-4.86-2-5.08,1.66-5.2-2-6.1-5-.14-.48,0-1.31-.29-1.42-5-2.25-9.56-4.79-11.95-10.36-.33-.77-3-1.94-3.87-3.89-1-2.22-3.12-2.65-5-3.77-5-2.92-12-1.43-15.58-7.68-1-1.73-4.55-2.1-7-2.87-1.12-.36-2.85-.45-2.19-1.86,1.56-3.33.87-8.17,5.82-9.39a15.82,15.82,0,0,1,2.56-3c-.87.61-1.46,1.57-2.55,1.86-3,.08-5.93.13-8.67-1.51-1.23-.73-2.15-1.26-2.06-2.92.12-2.57.07-5.06-3.78-4.68-.89.09-1.61-1.43-1-2.33.93-1.29-.49-4,1.85-4s3.25-.64,3.86-2.71c.55-1.9,1.8-2,3.46-.94,2,1.26,3.86,2.82,4.13-1.74.09-1.47,2.48-5.29,6.21-3.35.65.34,1.52.49,1.77-.1a60.29,60.29,0,0,0,3.15-8.63c.44-1.85-1.91-1.95-2.95-2.89.1-3.22,3-4.6,4.49-6.89a12.2,12.2,0,0,0,2.26-3.8c2.44-5.46,6.86-7.77,12.71-6.73a4.52,4.52,0,0,1,1.83.65c4.3,2.88,6.07,2.51,8.4-2.17a20.87,20.87,0,0,1,5.6-7.43c.9-.71,2-1.54,3.13-.87,1.61.94.58,2.29.22,3.49-.83,1.42-2.12,2.75-2.16,4.43-.16,7.8-5,12.31-11,16a6.29,6.29,0,0,0-3.31,4.69c-.54,4.48-3.61,7.24-6.7,10.81,3.16-3.18,5.77-6,6.55-9.92.56-2.83,1.61-5.27,4.65-5.75s5.88.94,8,3.21,1.58,4.56,0,6.84a3.79,3.79,0,0,0-.83,3.24c1.5,5.93,2.09,12.09,4.5,17.79.26.37.51.75.78,1.12,7,3.54,14.51,4.88,22.22,5.52,3.72,3.31,7.23,6.81,9.1,11.54,1.39,3.53,4.55,5.23,7.34,7.16,2.48,1.71,4.31-.36,5.87-2.14,4.44-5.06,11.19-5.73,14.41,0,3.38,5.94,8.81,9.1,13.27,13.54,2.28,4.39,6.15,7.3,9.73,10.51a5.84,5.84,0,0,0,4.46,1.79c1.33-.09,2.9-.22,3.41,1.36.61,1.89-1.14,2.32-1.54,2.6,5.81-3.12,11.12-1.3,14.34,5.68,1.1,2.38,2.24,4.23,5.46,4,2.11-.15,4.17,1,6.17,1.84a4.59,4.59,0,0,1,1.12.83c1.52,2.31,5.1,2.24,6,5.21a51.19,51.19,0,0,1,.35,10.2,3.81,3.81,0,0,0,1.81,3.77c1.49,1,2.43,0,3.26-1.15,1.54-2.14,2.93-1.75,4.2.27,3.52,1.12,6.87,2.67,10.35,3.87A8.83,8.83,0,0,1,329,413.37Z"/><path class="cls-2" d="M231.27,115.45c-.21,7.76,2.9,13.81,8.46,19.26,2.7,2.65,2.94,6.48.83,10.81-2.35,4.85-2.07,10.65-.44,16.06.13.44.62,1.14.87,1.11,7.21-.82,7,5.94,9.88,9.57-5.5,6.09-12,4.92-18.71,2.63-4.11-1.4-2.65-5-3-7.54-1.17-7.75-2.59-9.56-8.8-10,2.48-.5,5,1.16,7.16,3.67s2.07,6.18,1.78,8.93c-.41,3.94,1.75,4.68,4.25,5.41,5.86,1.7,7.22,4.15,5.17,10-1,2.94-1.05,7.25-6.86,4.25,2.21,7-2.76,10.73-6.63,13.55-3.24,2.36-8.08,2.74-11.11,6.2-.43.48-1.3,0-1.41-.81-.06-.46-.08-.7-.24-.52s0,.41,0,.5c.26.67,1.11,1.42,1.37,1,3-4.78,9.43-3.81,12.95-7.77,2.49-2.79,6-4.86,5.63-9.36a1.5,1.5,0,0,1,1.3-1.36c5.88-.75,5-5.55,5.48-9.35.28-2.17.46-4,3.1-4.24,1.93-.19,3.29-1.57,4.81-2.5,1.72-1.06,3.18-1.66,5-.45l1,.94c-1.54,6-2,12.55-7.17,17.08-2.43,2.14-3.72,4.54-2.21,7.83.49,1,.73,2.48.06,3.36-2.38,3.13-.54,4.9,1.83,6.6a3,3,0,0,1,.42,1.42c-.24,3.37-10,12.38-13.27,11.57s-5,1.27-5,3.17c-.05,4.92-4.24,8.06-4.58,12.82-.23,3.22-2.72,3.66-5.07,1.83-3.87-3-8.92-5.05-7.5-11.87.78-3.72-4.87-10.34-8.39-11.54-1.54-.52-2.21.34-2.73,1.4-1.81,3.66-3.84,3-6.72,1-3.16-2.19-6.31-4-4.82-8.59,1.1-3.42,3.64-4.77,6.34-2.5,3.82,3.21,7.67,1.59,11.59,1.34,1.58-.09,1.82-1.21,1.71-2.47-.24-2.91,1.37-4.76,3.23-6.3-1.6.62-2,2.52-3.09,3.88s1.12,4.25-1.71,4.53c-3.54.35-6.88,2.31-10.78-.5-4.72-3.41-9.6-6.45-13-11.3,0-.23,0-.47,0-.7,3.37-4.85,2.49-12.25,9.9-14.86,3-1,4.27-5.34,7.25-7.29.81-.53.72-1.43.36-2.24-2.39-5.29-1-10,1.55-14.93,1.88-3.59.38-7.48-.67-11.14-.34-1.15-1-2.65.15-3.13,1.73-.75,2.21,1.19,2.52,2.3,1.32,4.65,3.35,8.83,7,11.92,2.36-2.66,4.62-5.53,5.27-9.31.13-.76,1-2,.83-2.13-4.9-4.16-1-9.61-2.16-14.27-1.24-.5-2.88.44-3.85-1.06-.21-.95-.93-2.42-.56-2.78,3.85-3.82,3.05-8.7,3.29-13.34.1-1.85,1-2.62,2.82-2.64a6.85,6.85,0,0,0,4.19-1.26c2.22-1.67,4.31-3.16,4.56,1.56.08,1.47,1.63,2.16,3,1.29C229.5,113,230.26,114.42,231.27,115.45Z"/><path class="cls-2" d="M149.11,289.56q-2.52,2.93-5,5.87c-2.45-2.54-6.57-5-6.43-8.09.25-5.77,1.13-11.77,4-17.11,1.78-3.36,3.72-6.63,5.55-10,.62-1.13,1.69-2.58-1.1-1.9-.69.17-1.2-.69-.93-1.36a9.57,9.57,0,0,0-1.1-9.68c-.91-1.34-.64-3.87,2.57-4,2.05-.08,4-1.52,6.22-.75,1.53,1,.41,2.13-.14,2.91-1.86,2.59-1.94,5.73-2.86,8.61,1.09-3.33.86-7.28,4.3-9.54,1.74-.31,2.47-1.6,3-3.07a11.48,11.48,0,0,0,1-5.69c-.51-5.1,1.94-7.85,6.19-9.66a7.86,7.86,0,0,1,1.1-.9,9.83,9.83,0,0,1,4.81-1.16c4.68-.32,6.19,1,5.67,5.71-.77,6.8-1.81,13.57-3.25,20.27-.56,2.58,2.38,5.38,5.46,5,.95-.12,1.77-.9,2.81-.92,1.22,1.27,1.21,2.87,1.31,4.45a9,9,0,0,0-.69-4c-1.17-1.16-2.11.12-3.16.26-3.78.53-5.78-2.26-5.34-5.9.94-7.71,3.18-15.2,2.85-23.17-.19-4.6,1.67-9.33,2.74-14,.61-2.67,3.63-2.46,5.84-3a4.66,4.66,0,0,1,1.49-.05c2.12.6,2.06,2.22,2,4-.12,3.24,4.92,8.92,8,9.1a2.45,2.45,0,0,0,2.52-2c1.06-3.82,2.81-3.14,5.31-1.15,4.68,3.71,9.1,7.38,6.72,14.34-.34,1-.5,2.22.64,2.59,4,1.31,5.83,5.5,9.81,7.15s1.73,5.46,1.22,8.4c-.55,3.12-2.83,2.71-5,2.15a7.44,7.44,0,0,0-3.44-.26c-2.81.6-4.39-.48-5.05-3.33-.29-1.23.23-3.53-2.1-3.2-1.86.25-4,1.75-3.64,3.5,1,4.19-1.62,6.46-3.71,9.15a4.46,4.46,0,0,1-5.06,2.53c-3-5.13-1.72-10.2.39-15.18,1-2.34,1.66-4.56.68-7.18-2.43,1-3.42,2.67-3.21,4.76.3,3-.73,5.92-.78,8.9a7.84,7.84,0,0,1-4.08,6.92c-.82,1.12-.81,2.47-1,3.76-.1,4-4.6,2.6-6.26,5.16-1.85,2.84-4.77,4.9-5.73,8.51-.45,1.7-2.22,2.86-3.68,3.93-1.16.85-3.19,1.12-3.55-.09-1.73-5.93-6.34-2.49-9.29-2.57-3.25-.08-5.88,2.73-6.6,6.42C150.72,286.68,149.21,287.82,149.11,289.56Z"/><path class="cls-2" d="M156.08,237.46c-1.6-4.14-7-2.67-9.15-6.15-.43-.68-1.29.58-1.6,1.3s-.55,1.8-1.61,1.18-1.68-2.76-1.38-2.87c2.6-.89,1.91-4.88,5-5.13,1.37-.11,2.32-.94,2.22-2.18s-1.26-1.91-2.38-2.28-3.05,1.3-2.68-1.32a2.41,2.41,0,0,1,2.89-2.14c2.94.72,4.55.83,4.44-3.25-.05-1.85,2.81-1.47,4.35-.34a6.26,6.26,0,0,1,1.31,2.09c2.65,4.82,4.5,4.94,7.34.12,2.17-3.68,4.49-6.05,9-3.65,1.06.56,1.84-.26,2.34-1.23,2.72-.27,2.49,1.68,2.27,3.29-.26,1.8-.55,3.61-1,5.38-.63,2.71-1.85,4.16-5.14,4-2.41-.1-5.45-.5-7.27,2.16l.06-.06a4.07,4.07,0,0,1-2.58,1.26c-3.15.63-4.53,2.25-4.27,5.68C158.37,234.63,159.73,237.7,156.08,237.46Z"/><path class="cls-3" d="M165.07,226.45c1-3.4,4-2.64,6.41-3,1.75-.27,4.42,1,4.64-2.11s3.93-6.47,0-9.71l2.77-3.23c2.08.2,4.37-.89,6.17,1-5.85.65-5.82,5.15-6.78,9.53-2.27,10.31-1.82,21-4.87,31.22-1,3.44,2.41,3.66,4.66,3.76,1.31.07,2.71-1.41,3.85.45-.25.52-.58.61-1,.19-3.47,4-6.46-.7-9.74-.62-.78,0-.62-1.2-.3-2.07,2.57-6.86,3.18-14.12,4.05-21.3.66-5.44-.2-6-5.64-5.25A35.77,35.77,0,0,0,165.07,226.45Z"/><path class="cls-3" d="M156.08,237.46c1.07-.3,1.63-.79,1.41-2.1-1-6,2-8.65,7.64-9-7.2,2.63-5,10.22-8,15.1C156.79,240.14,156.43,238.8,156.08,237.46Z"/><path class="cls-2" d="M194.26,261.45c1-1.21,3.32-.47,3.8-2.5a3.35,3.35,0,0,1,2.11-2c2.47-.95,3.21-2.56,2.38-5.06s0-4.43,2.47-5.08,3.69,1.26,4.13,3.3c.61,2.84,2,3.61,4.55,2.34,1-.48,2-.07,2.91.17,4.87,1.22,4.7,1.19,5.79-4,.44-2.06-1.27-5.92,3.45-5.4,1.43,3,4.59,4.78,5.92,7.93a2.39,2.39,0,0,0,3,1.14c3.54-1.18,7.68.1,10.81-2.78,1.13-1,2.93-1.64,4.2-.92,3.71,2.11,5.79,0,8-2.43.92-1,1.74-2.55,3.72-2,.53-.15-.46.54-.32-.12.06-.3-.06-.26-.45-.16-1.73.47-2.74,1.88-3.83,3.08-1.84,2-3.64,3.24-6.47,1.69a3.69,3.69,0,0,0-4.26.44c-2.89,3.06-6.91,1.83-10.26,3.06a3.37,3.37,0,0,1-4.59-1.84c-1.15-2.62-4-4-5.11-6.7-3.88-3.21-4.37-7.69-.9-11,1.48-1.4,2.11-2.27,1.52-4.54-.83-3.25,2.4-5.59,5.7-4.76,3,.76,4.29-2,6-3.44,1.6-1.33,2.72-2.84,4.92-3.76,2.91-1.23,3.55-4.14.9-6.83-1.77-.85-2.44-2-1.54-4,.74-1.63,1.44-3.38.4-5.22-.57-1-1.39-2.14.16-2.94,1.29-.67,2.15.35,3,1.14s1.84,2.34,3.33,1.64c7.82-3.68,16.53-3.27,24.65-5.57,5.29-.9,10.45,1.32,15.75.67,2.11-.26,4.31.25,6.33-.73a6.3,6.3,0,0,1,1.37-.63c6.61-1.47,11.48,1.92,16.18,5.8a4.3,4.3,0,0,1,.66,1.32,6.26,6.26,0,0,1-.72,3.55c-1.68,2.42-2.63,5.26-4.87,7.39a11.44,11.44,0,0,1-6.87,3.56c-4.68.45-7.76,3.43-10.21,6.94a12.16,12.16,0,0,1-4.07,4.12c-3,.83-5.15,2.34-6,5.7-.83,3.1-3.79,4.46-6.53,5.63s-5.53,2.49-8.37,3.55c2.95-1,5.77-2.34,8.62-3.57,2.58-1.11,5.42-2.43,6.21-5.33,1-3.49,3.29-5,6.34-6.12,3.94-1.95,4.74-7.06,8.9-8.81,1.05-.44,1.74-1.8,2.89-1.79,7.73,0,11-5.44,14-11.26.84-2.94,2.53-4.6,5.81-3.84,2.89.66,5.47-1.11,8.29-1,3.32,1.29,5.41-.05,8.16-2.27s6.92.14,10.41.52c5.32.58,10.33-1.16,15.46-1.27,5.41-.12,10.12-2.8,15.36-3.19,2.33-.18,4.86.38,5,2.85s4.12,5.35-.57,8c-2.89,1.65-3.11,5.46-2.45,8.46.62,2.83,0,4.77-2.38,5.74-4.13,1.67-4,5-3.73,8.39.48,5.11-.32,10.31.16,15.26.52,5.43.8,11.2,3.26,16.38-1,2.17-2.79,2.84-5,3-6.31-1.45-11.45-.15-17.17,3.68a30.93,30.93,0,0,1-20.36,5,20.15,20.15,0,0,0-11.26,2.05c-4.66,2.2-8.56,6.13-13.91,6.87-1.66,4.17-5.37,7.18-5.87,12.15-.3,3-3.79,3.71-6.67,4.09-4.09,1.13-8,.64-12.16-.35-9.12-2.19-18.41-1.61-27.52.37-3.18.69-6.39-1.2-9.3.43-7,3.93-15.09,5.66-21.5,10.9-3.17,2.59-7.42,2.84-11.43,2.72-7.11-.22-7.23-.21-7.32,6.94,0,2.83.07,5.66-.05,8.48-.07,1.78.19,3.75-1.75,4.89-8.47,1-15.86-2.86-23.57-5.29l.05.06c-2.54-4.9-2.46-10.51-4.25-15.65-.7-2-1.28-4.64.41-7.13,2.78-4.08,1.88-6.31-2.7-8.42-5-2.27-4.83-2.12-.78-5.47a12.3,12.3,0,0,0,4.72-8.35,13.12,13.12,0,0,1,2.89-7.74c1.3-1.76,2.09-3.93,4-5.19,2.24-1.65,2.28-5.5,5.83-5.84A2.68,2.68,0,0,1,194.26,261.45Z"/><path class="cls-2" d="M371.93,260.44l4.92-2c2.3,3.22,1.69,7.89,6.66,10.1,2.66,1.18,2.12,6.75,5.14,9.42.5.43-1.24,2.46-2.54,3.33-4.6,3.09-7.4,8-11.65,11.51-.42.34-.46,1.14-.92,2.41,7.48-3.34,8.75,3.94,12.46,6.64,7,5.09,8.6,13.64,10.95,21.32A95.62,95.62,0,0,0,402,336c.93,2,0,3.5.23,5.22.27,1.87-2.06,1.69-3.35,1.94-1.92.37-2.07-1.14-2.07-2.55,0-4.15.38-8.35-1.49-12.25-.78-1.61-1.21-3.44-2.93-4.51-3.1-1.93-4.12-4.49-2.59-8.08.56-1.34,1.25-3.31-.78-4.42-1.73-.94-2.65.42-3.85,1.33-2.7,2-4.78,5.12-8.6,5.45a1.84,1.84,0,0,0-1.19.85c-3.18,5.34-6.3,4.3-9.54,0-.5-.66-1.43-1-2,.14-1,2-3.08,3.84-.71,6.2-.46,2.76-2.73,2-4.31,2-10.7-.37-21.4.74-32.12-.65a31,31,0,0,0-10.61.72l-.18,18c-3.8-2.14-2.09-5.82-2.16-8.79-.09-3.77-.31-7.18-3.82-9.44.51-2.39,2.15-.9,3.13-1-5.35-1.33-6.24-2.86-5-8.87a10.72,10.72,0,0,1,1.46-2.6c1.31-1.95.38-2.69-1.55-2.89a6.08,6.08,0,0,0-2-.05c-8.51,2.13-13.48-3.18-18.42-8.65-1.61-1.8-.78-3,.79-4.06,2.38-1.57,5.15-2.31,7.73-3.45,4-1.44,8.69-2.15,7.61-8.26a1.58,1.58,0,0,1,.83-1.69c3.74-1.19,3-5.05,4.57-7.5,2.92.08,5.06-1.62,7.56-2.75,5.86-2.65,11.26-7.9,18.72-5.11,2.49.92,5-.17,7.28-1,5.39-2,11.62-2,15.85-6.85,2.69-3.06,6.45-1.83,9.85-2C369.55,260.34,370.73,262,371.93,260.44Z"/><path class="cls-2" d="M254.82,175.31c7.53-2.91,15.28-.63,22.9-.62,2.68,0,5,.13,7.38-1.08a10.62,10.62,0,0,1,11.27.43c1.56,1,3.35,2.11,5.12,1.61,6.23-1.78,9.4,2.2,11.88,6.52,3.36,5.85,7.91,10.58,12.51,15.34,1.34,3.47-1.62,3.53-3.36,3.56-2.82,0-5.75.4-8.52-.67l.07.08c-4.4-4.56-9.19-8.09-16.07-6l.07,0c-5.33,2.2-10.87,1.59-16.35,1-2.73-.28-5.38-1.41-8.15-.35-5.65,2.12-11.86,1.2-17.55,3.27-1.36.5-3.09.43-4.24,1.32-3.11,2.42-4.48.51-6.35-1.8s-1.77-4.06.48-5.79c2.66-2,3.8-4.69,4.35-8A17.08,17.08,0,0,1,254.82,175.31Z"/><path class="cls-4" d="M252.05,174.49c-4.53-.62-7.13,3.72-11.22,4.42-1,.17-.82,2.07-.68,3.19.32,2.61-.42,6.18-1.68,7-6.11,3.88-7.56,11.27-12.77,15.65-.36.3-.89.69-1.29.64a7.87,7.87,0,0,0-8.13,3.67c-.78,1.11-2.94,2.35-4.35.63-1.87-2.28,1-3,1.44-4.83,1.84,1.8-.63,2.72.17,4.22a12.12,12.12,0,0,0,4.05-3.91c.48-.63.79-2,1.59-1.63,4.79,2.27,6.06-2.18,8.79-4.16,3.67-2.67,3.59-6,3-9.73-.15-.91-1.26-1.93-.19-2.67,1.28-.88,2.2.28,2.81,1.23,1.86,2.87,2.83,2.08,3.57-.7.61-2.32,1.81-4.39,1.37-7.09-.34-2.09-1.33-3.84-2.87-3.92-6-.34-7.57-3.5-7.64-9-.1-8-3.58-10.42-11.39-8.68,1.8-2.88,6.58-3.13,9.16-.95,4.09,3.45,4.43,8,4.59,12.77,0,.78-.46,1.53.19,2.31,1.05,1.25,12.21,3.72,13.38,2.65,2-1.83,4.63-2.27,7-3.34Z"/><path class="cls-5" d="M254.82,175.31c-1.51,4.15-4.06,7.87-4.71,12.41a7.7,7.7,0,0,1-2.83,4.47c-2.1,1.61-3.33,2.58-1.23,5.34,1.91,2.53,3.13,2.63,6,1.28,6.59-3.13,14.07-2.67,21.07-4.25.43.24,1,.32,1.09,1-5.64,3.37-12.42,1.16-18.23,3.74-.74.32-1.63.29-2.4.57-5.72,2.1-5.72,2.11-10-2,1.95,2.52,1.3,5.18.25,7.55-.91,2,.18,3,1.22,4.19.32.17.43.34.34.53s-.2.28-.3.28c-2.57-1.22-7.72-1.21-2.77-6a2.8,2.8,0,0,0,.26-3.32c-2.54-4-1-7.15,2.41-9.21,5-3,3.25-9.09,6.33-12.91a18.44,18.44,0,0,0,1.76-3.56Z"/><path class="cls-2" d="M310,326.43c4.91.56,5.18,3.83,5.12,7.87-.07,3.67-1.1,7.5.74,11.07,5,.11,9.92.2,14.87.35,4.16.12,4.3,3.91,5,6.44.5,1.9.67,5.15-1.22,6.33-1.33.83-3.59-.78-5.26-2.12-3.2-2.57-5.35,2.24-8.5,1.63-.76-.15-1.7,1-2.64,1.27-2.31.71-5.71-.29-6.8,2s-.46,5.2-.5,7.85c-.05,3-.15,6,0,9,.27,4.14,1.8,7.41,5.72,9.75,3.63,2.16,9,3.59,6.59,10.27-.5,1.38,1.31,4.25,2.81,5.57,2.45,2.15,2,4.2,1,6.61-.23.26-.53.53-.8.45-4.14-1.29-7.95-3.9-12.6-3.23.41-2.23-.07-3.38-2.77-3-4.63.6-6.93-1.69-6.15-6.48a20.84,20.84,0,0,0-.26-6.23c.43-1.76-.6-1.81-1.88-1.61-1.89.29-3.53,0-4.53-1.89l.05.07c-2.87-1.54-5.68-3.26-9.19-2.61-3.15.58-3.33-2.94-3.36-3.85-.14-4.84-4.32-6.29-7.07-6.93-10.16-2.36-18.41-7-24-16-.78-3.08,1.23-5,3-7a32.33,32.33,0,0,1,5.21-4.64c2.82-2,4.8-4.06,4.86-8,.05-3.43,1.93-6.67,3.42-9.84.36-.76.79-1.76,1.53-1.9,5.18-.95,9.07-5.27,14-6a89.05,89.05,0,0,0,15.44-3.52c1.52-.52,3.22-1,4.87-.18A36.21,36.21,0,0,0,310,326.43Z"/><path class="cls-6" d="M183.08,271.4a30.55,30.55,0,0,0-3.07,8.8c-.83,4.31-3.19,8.16-7.64,10,.62,1.6,1.86,1.77,2.86,2.19,6,2.5,6.57,4,3.55,9.9-1.4,2.75-.38,5.47.25,8.2,1.06,4.64,2.05,9.3,3.08,13.95-4.3-6.2-3.81-13.78-5.88-20.63-.18-.58.45-1.59,1-2.17,1.41-1.56,2.83-3.25,1.29-5.25a8.89,8.89,0,0,0-7.86-3.45c-2.39.21-3.19,2.39-3.63,4.73-1,5.25-5,8.57-8.81,13.2.12-3,1.47-4.12,2.5-5.55,2-2.75,4.35-5.13,4.76-9s4.22-5.93,7-8c4.05-3,6.41-6.41,6.57-11.38a6.87,6.87,0,0,1,2.88-5.54A.73.73,0,0,1,183.08,271.4Z"/><path class="cls-7" d="M255,360.13a1.28,1.28,0,0,1,0-.75c2.64,2.44,5.59,4.62,7.82,7.39s4.76,3.42,8,4.33c5,1.41,9.53,4.33,14.27,6.62,0,7.81,7,6.58,11.38,8.57,1.06.48,1.68.92,1.59,2.1-3.54.61-6.39-2.75-10.4-1.43-1.63.54-2.54-3.5-3.48-5.44-2.32-4.77-7.06-7.11-12-4.94a6.58,6.58,0,0,1-4.56.48c1.35-1.64,4.22-.95,4.87-3.4C263.47,373.21,258.67,367.41,255,360.13Z"/><path class="cls-8" d="M183.08,271.4l-1.15,0,.61-3c-3.22,2-5.63,4-6.72,7.19a15.17,15.17,0,0,1-3.92,5.64,4.54,4.54,0,0,1-5.94.8c-6.86-4.68-10.82-3.53-14.47,4.44a17.91,17.91,0,0,1-2.38,3.12c-.28-5.43,4-11.58,8.74-12,2.27-.2,4.54-.06,6.79-.8a1.89,1.89,0,0,1,2.53,1.69c.93,5.11,3.27,2.42,4.59.55,2.83-4,5.31-8.23,8.6-12,1.55-1.77,5.3.26,4.91-3.46,3.43,0,4.56,1,1.81,3.89Z"/><path class="cls-9" d="M313.85,407.39a4.87,4.87,0,0,1-.54,0c-.73-2.35-1.44-2.5-2.53-.12-.64,1.41-1.62,3.53-3.5,2.27s-4.7-2.65-4-5c1-3.65-.6-7.3.74-10.8-.53-1.29-.77-2.42,1.28-2.24,1.64,3.11-.33,6.47.83,9.75.86,2.44,1.19,3.83,4.16,2.34a3.67,3.67,0,0,1,4.53.76C315.67,405.52,313.94,406.29,313.85,407.39Z"/><path class="cls-10" d="M205.1,329.48a5.69,5.69,0,0,1,.07.71,35.56,35.56,0,0,1-12.53-1.32c-2.33-.68-4.86-1.8-7.46-2.16-1.25-.17-3.21-.09-3.12-2.35C189.85,325.56,197.1,329.23,205.1,329.48Z"/><path class="cls-7" d="M248.08,389.37a6,6,0,0,1,6.17-5.82c4.15-.05,6.89-.87,8.2-5,.21-.65,1.24-1,2-1.6-2.13,6.61-2.13,6.67-8.7,7.54-3.37.44-5,3.46-7.71,4.85Z"/><path class="cls-7" d="M233.05,393.39c4.27,3.26,8.38-1.63,12.82-.24,1.7.53.48-3,2.21-3.78l-.06,0c.1,3.6.63,7.59-5.26,5.17a2,2,0,0,0-1.77.4c-3.63,4.21-5.73,1.24-7.89-1.6Z"/><path class="cls-11" d="M305.25,391.49c-1.15.34-1.17,1.31-1.28,2.24-1.56-.48-1.88-2.84-4.18-2.44-2.51.45-1.55-1.74-1.78-3a4.77,4.77,0,0,0,5.42.19,2.59,2.59,0,0,1,3.37,1.2C307.46,390.89,306.25,391.29,305.25,391.49Z"/><path class="cls-3" d="M245.06,210.42a5.49,5.49,0,0,0,0-.81c4.25,1.37,1,4,1,6.07s-.83,2.82-3.21,2c-1.89-.68-2.27,2.08-3.6,2.82-2.48,1.39-3.37,7.46-8.29,2.82-.55-.52-4.09,2.46-2.93,5.14.87,2,.31,3.39-1,4.32-4.72,3.32-3.12,6.84-.65,10.51l-.42.36c-2.53-.28-2.46,1.57-2.66,3.22s-.42,3.28-.68,4.91c-.44,2.73-1,5.28-4.43,2.28a3,3,0,0,0-2.29-.76c-4.36,1.24-7.15,0-8.28-4.59a1.8,1.8,0,0,0-2.52-.93c-1.32.54-2.53,1.7-1.84,3.05,2.94,5.75-2.09,6.28-5.11,8.15a2.9,2.9,0,0,1,2.07-3.06,2.71,2.71,0,0,0,1.51-4.07c-1.35-2.66.31-4.07,2-5.41,1.39-1.11,2.9-2.45,4.88-1.78s.6,2.58,1,3.85c.65,2,.41,5,4.29,3.2,2.18-1,4.43,1,6.88,1.15.34-1.61.64-3.23,1-4.82.63-2.51.61-4.54-2.57-5.25-4.14-.93-4.89-6.43-9.5-7.14-1.18-.18,0-2.35.32-3.57,1.24-4.57-4.24-13.54-8.69-14.23a1.4,1.4,0,0,0-1.57.89c-.91,1.93-1.87,5-4.29,3.58-3.39-2-8.5-2.81-8.47-8.46,0-1.69.8-3.85-1.93-4.39a13.84,13.84,0,0,0,3-2.24c1.48-1.86,1.23-3.71-1.37-4-3.63-.45-5.17-2.18-4.63-5.78,1.3,3.17,5.54,3.06,6.81,5.06,1.79,2.85,4.43,4.16,6.58,6.26,3.35,3.28,7,.52,10.42.6,1.31,0,.25-1.64.47-2.41a10.26,10.26,0,0,1,4.37-6.38c1.39-.8,2.83.18,3.53,2.43-3.83-2-4.89.54-5.77,3.1-.67,1.95-.24,6.08-1.72,5.59-3.79-1.25-7.83,2.52-11.28-1.11-1.08-1.14-2.5-2.46-4.79-1.48s-1.83,3.22-1.94,4.64c-.37,4.48,4.45,4.64,6.83,6.77,1.92,1.71,2-1.6,2.85-2.68,1.58-1.93,2.58-3.28,5.34-.54,2.51,2.49,5.56,4.41,7.1,7.77.69,1.48,2,3.12,1.24,4.67-1.91,3.83.44,5.53,2.95,7.62,1.88,1.56,3.86,4,5.93,3.75,2.45-.29.7-3.73,1.85-5.61.8-1.3.42-3.28,2.39-4,1.47-.52,1.27-1.31.75-2.69-1.27-3.34,1.82-4.93,3.42-7s2.38-.06,3.42.8a1.41,1.41,0,0,0,1.25.26c3.78-2.2,5.45-6.92,10.16-8.21C245.43,214.25,245.12,211.92,245.06,210.42Z"/><path class="cls-12" d="M194.26,261.45l-2.16-.08a2.4,2.4,0,0,1-.85-1.8c-.14-.55.34-1.1,0-1.65a5.7,5.7,0,0,1-1,2c-1.61,1.3-3.09,1.63-4.25-.54,5.22-3.7,4.63-9.5,4.5-14.62-.09-3.47,1.9-5.09,3.53-7.11.88-1.09,2.69-.71,2.93,1.09.25,2,.85,4.51-.08,5.84C193.17,249.9,193.9,255.65,194.26,261.45Z"/><path class="cls-13" d="M186,259.4c1.25.7,2.51,1.25,3.77,0a1.58,1.58,0,0,1,2.3,0c0,.65,0,1.3,0,1.94-3.25.7-1.95,5.18-5,6,1.78-2.41,0-3.15-1.81-3.89C185.26,262.1,184.46,260.53,186,259.4Z"/><path class="cls-14" d="M181,254.54l1-.19c1.83,2.47,2.57,4.89-.67,7.38C181.18,259.21,181.07,256.87,181,254.54Z"/><path class="cls-15" d="M371.93,260.44c.6.49,1.8,1.19,1.72,1.44-.4,1.16-1.22,1-2.34.55-4.68-1.86-9.13-2.94-13.09,2a7.72,7.72,0,0,1-6.94,3.07c-3.6-.44-5.84,3.36-9.89,3.19-2.71-.11-5.63.95-8.57.22-6.06-1.5-10.2,3-15.12,5-2.78,1.14-5,3.87-8.54,2.56-.89.34-1.25.06-1.06-.88,2.37-.82,6,.61,6.53-3.56,0-.19.52-.42.83-.46,7.18-1,13.15-8.18,21.33-4.16,2.64,1.3,4.73-1.09,6.84-1.77,4.46-1.43,9.44-1.49,13.25-5.37C361,258,366.69,259.42,371.93,260.44Z"/><path class="cls-5" d="M226.29,243.26c2,2.4,4.88,4,6,7.09a1.9,1.9,0,0,0,2.53,1c3.61-1.5,8,0,11.22-2.95.46-.43,1.36-1,1.77-.78,5.18,2.25,8.43-.73,11.71-4,.58-.57,1.9-.51,3.34.42a7.25,7.25,0,0,0-5.07,3.05c-2.16,2.56-4.31,4.71-8,2.35a2.75,2.75,0,0,0-3.28.49c-2.88,3.39-7.07,2.34-10.62,3.24s-8-3.73-10.06-9.58A1.82,1.82,0,0,1,226.29,243.26Z"/><path class="cls-16" d="M288.09,226.45c2.4-3.65,4.4-7.64,8.54-9.78.73-.38,1.36-1.29,2.07-1.33,7.46-.39,11.23-5.88,15.36-10.89l-.07-.06c-1.48,6.75-5.91,10.77-12.44,12-4.05.74-7,3.52-9,7-1.09,1.89-2.16,3.3-4.54,3Z"/><path class="cls-5" d="M288,226.39a17.44,17.44,0,0,0-6.24,7.8c-1.19,2.81-4.19,3.42-6.78,4.49-3.44,1.42-6.77,3.11-11.38,5.25.93-1.64,2.65-4.12,5.07-4.36,12.17-1.18,30.17,55.92,28.29,56.71s-16.48-61.63-14.83-66.56a5.39,5.39,0,0,1,1.59-2.38,5.71,5.71,0,0,1,4.34-.89Z"/><path class="cls-17" d="M308.1,277.59l1.06.88c-.4,2.87.85,6.58-3.77,7.31a1.4,1.4,0,0,0-.81,1.08c1.23,6.2-3.49,7.55-7.59,9.42,0-.59,0-1.18,0-1.77,3.16-1.42,6.24-2.06,5.76-7.33C302.49,284.15,306.88,281.21,308.1,277.59Z"/><path class="cls-18" d="M191.58,252.69c1.43-4.28-.63-9.56,3.68-13.62C197.19,244.89,191.94,248.17,191.58,252.69Z"/><path class="cls-19" d="M192.09,259.43h-2.3c.42-1.45.05-3.23,1.77-4.19C193.09,256.47,193,257.89,192.09,259.43Z"/><path class="cls-20" d="M185.11,209.39c-2.05-.35-4.41,1.15-6.17-1,2.4-1.75,2.19-4.38,1.75-6.69-.37-1.94-.13-3.19,1.44-4.24l-.06-.06c.72,2,1.22,4.41,3.66,4.69,2.62.3,3.76,1.49,3.76,3.95,0,3-2.63,2.71-4.45,3.41Z"/></g><path class="cls-21" d="M222.88,109.15c.39,4.37,6.5,2.73,7.17,6.81.5,1-.13,1.24-.88,1.45-2.91-.7-6.22.15-8.38-3.19-1.06-1.65-8.6,1.37-8.36,3.54.58,5.35-2.57,9.68-3.1,14.64-.08,2.5,2.26.93,3.11,1.85-.32,6.29,3.31,12.29,1.27,18.72-1,3.12-2.58,6.84-5.49,7.05-3.39.25-4.91-3.82-6.48-6.68-.71-1.3-.88-2.84-1.53-4.29,1.5,5.19.74,10-1.48,14.88a11.55,11.55,0,0,0-.37,9.69c.88,1.91.18,3.54-1.34,4.88s-2.54,3.31-4.12,4.26c-6.28,3.78-8.43,10.43-11.9,16.17-1.21,1.74-1.2,3.68-1.16,5.72s-.09,4.36-2,5.93c-1.08,1.16-2.13,2.35-3.22,3.5-6.2.41-10.65,3.65-14.69,8.2-2.14,2.41-3.85-.21-4.89-2.09-1.56-2.84-2.88-4.76-5.23-.57-.9,1.59-3,1.1-4.73,1.58.91,2.1,5,3.16,2.22,6-1.7,1.74-3.87,3-4.8,4.73,4.77,1,9.27,2.57,12.58,6.69A6.92,6.92,0,0,1,156,243c-.52,1.74-1.11,3.42-3.38,3.48-1-.15-1.66-.87-2.6-1.05-6.33.39-6.31.53-5.2,6.51,1.18,6.3,2.13,12.6-2.64,18.17-2.19,2.55-2.58,6-3.76,9.12-2.58,6.7-1.43,12.22,4.43,16.57,2.61,1.51,4,3.62,2.59,6.59s-.67,7.55-6,7.18c-.67-.05-1.7,0-1.87.42-2.48,6.4-9.68,5.17-13.93,8.69-1.72,1.43-1.84,2.62-.12,4,.65.51,1.79.82,1.85,1.57.58,6.62,6,7,10.63,8.36a1.75,1.75,0,0,1,.4,1.3c-.39,1.15-1.44,1.81-2.09,2.76-3.29,4.8-2.38,5.86,2.46,9,6.55,4.27,14.17,6.2,20.62,10.16,4.23,2.59,9.26,5.82,10.61,11.67.45,1.95,2.14,2.46,3.78,2.78,3.55.68,5.6,2.67,6,6.33a2.57,2.57,0,0,0,2.62,2.5c7.45.52,12.39,5.7,18,9.64a2.8,2.8,0,0,1,.15,2.09c-2.44,3.18-6.31,3.42-9.7,4.45-2.77.83-3.08,2-1.69,4.16a9.57,9.57,0,0,1,1.73,4.59c0,.83.32,2.09,1,2.1,5.17.1,7.74,5.16,12.53,6.23,6.47,1.43,10.65,11.45,7.26,16.34L209,429c-3.78-1.33-1-6.69-5.19-8.21-1.23-.44-2.59-2.57-4.18-3-5.34-1.45-8.63-6-13.39-8.38-2.94-1.47-1.81-5.85-3-8.83-1.51-3.62-3.45-6.46-6.68-8.11-3.05-1.56-4.36-5.59-8.34-5.62-5.24-3.09-11.56-2.19-17-4.64a44.87,44.87,0,0,1-6.14-3.13c-3.83.12-5.32-3.34-7.88-5.15-3.37-2.39-6.72-4.72-10.3-.23a3.39,3.39,0,0,1-2.69,1.16c-5.38-.32-10.93.68-16-1.91h0c-2.67-1-5.7-1.09-8.09-2.91-3.78-.51-5.71-2.46-7.31-6.21a9.29,9.29,0,0,0-8.45-5.58,8.55,8.55,0,0,1-6.55-2.94c-4.09-4.13-8.41-7.58-14.13-9.77-6.19-2.38-9.71-8.7-14.39-13.3-1-1-.89-2.94.35-3.52,2.74-1.3,3.74-5.6,7.73-4.56,1.24.33,2.33,1.33,3.71.59.79-1.72-1.06-1.73-1.65-2.54-3.28-4.46-1.59-8.28.66-12.72,3.74-7.37,8.63-11.71,17.35-10.47,3.91.55,7-.76,8.92-4.61A97.23,97.23,0,0,1,95.86,279c.51-.66.21-1.93.28-2.91,2-3.15,2.15-5.84-.43-9.13-1.34-1.71-4.1-4.37-1.51-7.42a3.86,3.86,0,0,1,2.58,1.24,58.14,58.14,0,0,0,4.52,4.64c4,3.25,4.25,7.83.49,11.53-2.37,2.33-4,4.83-4.21,8.19a3.33,3.33,0,0,1-1.19,1.81,18.08,18.08,0,0,0-5.54,6.95,38.67,38.67,0,0,1-5,8c-2.22,2.59-1.76,8.15.48,10.71,1.81,2.07,4,1.19,6,.71,2.52-.6,5.57-2.76,7.33,0,2,3.2,5,6.67,3.57,10.9-1,3.07-.23,3.73,2.49,3.12,3.67-.82,6.61-.22,8.31,3.52a3,3,0,0,0,2.72,1.9c5.17.26,7.11,3.58,7.85,8.14a21.89,21.89,0,0,0,1.18,4.64c.5.37.89.11.69-.17-2.37-3.27,5.35-7.65-1.05-10.33-3.9-1.64-3.7-6.34-7.19-8.56-3.2-2-2.48-9.13.69-11.66,1.93-1.53,3.92-3.64,6.12-4.15,4.67-1.08,7.58-4.75,11.62-6.63,3.32-1.55,3-3.2.77-5.65s-4.41-4.57-5.47-7.67a16.29,16.29,0,0,1-.13-5.26c.92-7.45,2.5-14.68,6.89-21,1.39-2,.16-4.21.33-6.31.37-4.64-1.73-9-1.49-13.7.14-2.61-2.65-4-4.78-5.29a3.74,3.74,0,0,1-.63-1.28c-.19-2.67-.57-5.24-2.39-7.46a6.92,6.92,0,0,1,0-9.22,6.15,6.15,0,0,0,1-6.84c-1.18-3.11.26-7.16-2.33-9.51s-6.06-.19-9.15-.69c-4.14-.67-6.75-2.76-7.36-6.94a18.05,18.05,0,0,0-2.31-7c-4.25-6.9-2.43-12.92,4.85-16.65,1-.52,2.35-.37,3.27-2-4.4-2.71-6-8.1-11.15-10.62-4.91-2.39-5.19-6.49-2.11-11,3-4.31,2.7-7.61-.89-11.5-1.24-1.35-2.78-2.39-3.92-3.84.33,4.12,2.38,7.51,4.62,10.82,1,1.49,1.76,3.08.13,4.45-3,2.54-4.55,6.13-6.91,9.12-1.76,2.22-3.25,4.43-7,3.35-1.83-.54-2.55,2.33-3.59,3.74-1.26,1.71-1.48,3.9.17,5.53,4.12,4.06,5.46,10.09,10.28,13.76,2.43,1.85,3.07,5.19,2,8.3a15.25,15.25,0,0,0,1.55,13.7,14.69,14.69,0,0,1,1.09,2.79c.64,1.89.59,4.23-.85,5.14-5.09,3.2-3.34,7.75-2.66,11.92.77,4.73.9,9.51,2.28,14.23,1.94,6.66-1.75,13.78-7.37,16.18a2.49,2.49,0,0,1-1.25-.66c-.26-3.3,3.57-4,4.13-7.34,1.45-8.55-.84-16.82-.89-25.22,0-1.14-1.07-1.81-1.85-2.66a4.12,4.12,0,0,1,.53-6.47c1.36-1,4.23-.94,4.18-2.85a14.8,14.8,0,0,0-2.31-7.21c-2.11-3.35-4.5-6-.16-9.69,1.84-1.58.92-5.41-1.06-6.75-5.83-4-7.54-10.88-12.08-15.72-2.21-2.35-1-5.23,0-7.92.84-2.48,2.49-4.53,3.2-7.17.82-3.05,3.48-2.66,5.63-1.11,1.27.92,2,1.33,3.24-.06,2.56-2.81,2-7.45,5.75-9.56a2.51,2.51,0,0,0-.56-1.75c-4-2.41-2.44-7.22-4.68-10.48-1.57-2.28-.42-5.11,2.1-6.34,2-1,3.39.55,4.81,2.23,3,3.59,6.5,6.8,9.8,10.16.91.58.22,1.91,1.13,2.49a2.19,2.19,0,0,1-.15-2.68c.05-2.57.44-4.84-2.53-6.76-2.69-1.74-.72-5.92,2.91-7,8-2.37,14.22-6.66,16.74-15.17,1.06-3.57,7.75-7.49,11.93-6.74s4.93-1.19,3.9-4.28c-1.51-4.56-.2-8.72,1.41-12.72,1.21-3,.19-5.81.62-8.7.72-4.85,1.4-9.17,7.05-11.21,2.68-1,5.06-3.77,6.85-6,4.49-5.54,9.6-4.92,15.25-3.32a33.39,33.39,0,0,0,4.29,1.19c1.9.27,2.85-.18,2.9-2.67.15-7.42,4.7-9.94,11.62-6.79,5.87,2.67,15.29.66,20.32-3,6-4.4,11.83-9.32,19.36-11.3,2.27-.6,4.86-1.3,5.38-4.32-.37-2.08.56-3.65,2-5,.41-2.62,1.76-4.14,4.6-3.93,3.31.24,5.62-1.56,7.24-4.09,1.74-2.71,3.8-3.18,6.72-2.18,5.51,1.87,11.14,3,13.63,9.63,1.19,3.15,1.07,4.58-1.66,6.5-4.22,3-8,6.63-12.68,8.91-4.39,2.5-9.57,3.77-12.77,8.14-1.14.69-.87,1.95-1.2,3,.15,4-1.53,6.26-5.64,7.44-4.6,1.33-6.54,5.77-8.66,9.67C229,76.63,227.38,83.8,226.46,91c-.82,6.42-3.62,11.62-7.51,17C220.32,108.44,222,107.75,222.88,109.15Z"/><path class="cls-22" d="M229.22,117l.83-1.08a20.69,20.69,0,0,1,4.89,10.3c.46,2.93,1.64,6,4.49,7.87s2.06,5.39,3.7,7.79.58,4.63-.41,7c-1.84,4.37-2.29,8.86.07,13.27,3.64.6,5.36,2.73,6.19,6.37.73,3.18,2.88,4.68,6.85,4.44a134.15,134.15,0,0,1,20.43.61,12.56,12.56,0,0,0,6.62-1.12,12.45,12.45,0,0,1,12.65,1c2,1.34,4,2.25,6.82,1.24,4.57-1.61,7.12,2.58,9.07,5.31,4,5.62,8,11.26,13,16,2.43,2.32,4.81,3.78,8,.62,2.76-2.77,6.53-1,9.45-.39,6.09,1.36,11.78-.27,17.6-.94a77,77,0,0,0,13.26-2.4c6.46-1.89,10.9,2.31,12.6,8.86a5.11,5.11,0,0,1-1.53,6.23c-1.26,1.07-2.84,2.29-2.71,4,.43,5.27-2.35,9.29-4.23,13.85-2.08,5.06-1.62,11.07-1.21,16.6a70,70,0,0,0,2.21,14.62,16.1,16.1,0,0,0,4.74,10.36c3.25,3.42,5,8.21,7.48,12.4.56,2.71-1.14,4.29-3,5.7s-3.63,3.34-5.52,4.91c-2.25,1.85-1.5,3.18.35,4.56-.57,4,3.13,5.21,5.17,7.12,5.48,5.12,7.3,11.9,9.58,18.5,2,5.78,3.6,11.7,6.36,17.2,1.56,7.92.73,9.25-6.16,9.85-3.73.62-5.06-2.06-4.76-4.69,1-8.29-2.1-14.69-8.09-20a2.55,2.55,0,0,1-.9-1.7,3.55,3.55,0,0,1,.72-2.59c-3.35,3.71-7.74,5.36-10.94,8.86-2.52,2.76-6.1.51-9-1.12-1.31-.95-2.08,1.55-3.4.56-2.38-2.35-1.39-4.58.46-6.53s3.65-.65,5.21.7c1.84,1.57,3.26,1.46,5.16-.24,3.58-3.21,8.08-5.15,11.87-8.18,3-2.39,6.27-.48,5.63,3.39-.73,4.37.89,7.07,3.67,10.1,3.14,3.42,3.6,8.09,3.73,12.66,0,1.29-.28,2.71.88,3.73a.88.88,0,0,0,1.33-.14,4.22,4.22,0,0,0,.18-4.29A129.63,129.63,0,0,1,391,317.16c-2-7.34-7.14-12-12.11-17.06a8.48,8.48,0,0,0-4.58-2.67c-3.65-.75-4.31-2.71-1.47-5.33,3.3-3.05,5.94-6.74,9.49-9.52,1.81-1.4,1.74-2.66,1.17-5-1.46-6.13-8-8.88-9.15-15a24.39,24.39,0,0,0-.81-2.36c-2.11-6.82-3.9-13.68-3.06-20.95a31.68,31.68,0,0,0-.11-8.48c-.72-4.68.59-8.06,3.66-12.11,3.52-4.67,3.45-11.56,5.83-17.31,1.42-3.42-3.72-6-8.26-4.48-10.18,3.33-20.58,4.77-31.25,3.2-2.94-.44-5.54-.63-7.77,1.85s-4.56.88-6.82-.12a15,15,0,0,1-3.12-2.1A64,64,0,0,1,310,184.42c-2.43-3.94-5.72-5.42-10.41-6.4-7.2-1.51-13.73-2.32-21.19-.5-5.08,1.24-11.19.18-16.8-.4a21.57,21.57,0,0,0-7.89.57,5.34,5.34,0,0,1-2.32,0,5,5,0,0,1-2-1.21,13.88,13.88,0,0,1-1.9-2.42,9.8,9.8,0,0,1-2.36-3.79,4.84,4.84,0,0,0-4.3-4.17,5.68,5.68,0,0,1-4.78-5.13c-.76-4.64-1-9.53.9-13.77,2.29-5.22.9-9.24-2.64-12.67-4.43-4.28-6.08-9.36-6-15.27A2.45,2.45,0,0,1,229.22,117Z"/><path class="cls-23" d="M322.08,457q-1.51,8.44-3,16.89c.48,3.92-1.36,7.39-2.17,11.06l-1,4c-1.05,2.66-.25,5.48-.85,8.22-1,4.7-2.38,5.54-7.1,3.76-1-2.41-3.48-3.17-5.16-4.82-2.57-3.17-6.85-1.14-9.79-3.21-6-3-7-5.31-2.7-10.55,5.32-6.55,7.82-14.79,13.55-21.09,2.9-3.18-1.67-3.57-2.94-5.17-4.29-3.34-9.23-5.59-13.94-8.21a8,8,0,0,0-8.48.27,10.89,10.89,0,0,1-9.54.81v0c-4.35-3.26-8.47-4.12-13.37-.42-2.88,2.18-6.93,2.6-10.57,3.43h0c-6.38.23-12.76.47-19.15.18-3-1.94-4.88-5.48-8.67-6.38-2.74-2.51,0-5.25-.33-7.86.21-3.37-2.32-3.68-4.68-4.17a4.22,4.22,0,0,1-1.07-.85c-.36-1.5-2.22-2.19-2.13-3.93h0c11.39-2.61,13.17,1.41,13.77,10.72.33,5.11,2.88,7.65,8.14,7,2.14-.26,4.29-.84,6.44-.28,7.65,2,14-.64,19.62-5.58a4.28,4.28,0,0,1,5.46-.61c2.18,1.22,4.63,1.86,6.86,3,2.53,1.3,5.48,1.55,7.7.1,4.75-3.1,9.14-1.64,13.14.76,5.54,3.33,11.67,5.47,17,9.28,3,2.19,3.3,4.31,1.81,7.17a51.82,51.82,0,0,1-5.52,8.3c-3.86,4.86-6.11,10.69-9.64,15.75-1.26,1.83-.45,4,1.54,3.41,6.29-1.75,9.13,2.35,12.31,6.24a4.3,4.3,0,0,0,2.75,1.44c5.12-26.68,10.67-53.27,15.06-80.08.17-1.48-1.06-2.53-1.24-3.9a9.66,9.66,0,0,0-1.77-6.57c-1.29-1.73-2.59-3.75-2.23-6,.67-4.19-1.81-6.23-4.9-7.75-5.48-2.68-7.53-7.2-7.54-13,0-4.16,0-8.32,0-12.48,0-3.1,1.28-5.1,4.37-5.75A63,63,0,0,0,323,356.76a5.8,5.8,0,0,1,5.68.62c2.82,1.8,3.48.25,3.48-2.29,0-4-1.94-6.19-6-6.27-3.17-.06-6.31-.44-9.47-.53-1.86-.05-3.24-.61-3.83-2.51-.26-5.57-1.12-11.15.57-16.65,1.61-1.41,3.18-1.47,4.71.12.58,3.22,0,6.42-.15,9.64-.1,2.15-.85,4.68,1.94,5.95,1.82,0,3.63.12,5.44.12,8.32,0,8.32,0,11.61,8,1.06,2.3.28,4.67-.24,6.81-.85,3.46-3.78,4.83-7,3.8-4.08-1.31-7.83-.35-11.76.26-3.06.47-5,1.93-5.26,4.94-.44,5.38-1,10.79.31,16.15,3.59,3.21,9.5,3.84,10.87,9.5,1,4.27,1.77,8.61,4.23,12.38,3.73,14.54-.67,28.39-3.72,42.33C323.91,451.76,324.35,454.8,322.08,457Z"/><path class="cls-24" d="M320,344.84c-1.35,0-3.08-.28-3.07-1.75,0-4.42-1.6-9,1-13.23a9.16,9.16,0,0,1,7-1.92c10.77,1.35,21.59.09,32.35.76,3.45.21,4.56-2.24,6.65-3.65,4.06,2.82,7.39,5.14,10.88-1.51,1.35-2.55,6.4-3.46,9.54-6.19-.14,2.17-.26,3.91-.38,5.66-2.15.91-3.72,2.62-5.53,4-2.64,2-4.94,6.09-9.22,2.25a2.35,2.35,0,0,0-3.19.46c-2.07,3.52-5.75,2.94-8.69,3.1-10.07.55-20.12,1.75-30.26,1.31C319.87,333.83,317.64,337.44,320,344.84Z"/><path class="cls-25" d="M377.8,257.14c-3-4.29-2.16-9.44-2.86-14.18a46.17,46.17,0,0,1-.17-14.31C376,222,380,216,380.89,208.93c.29-2.19,4.84-3.39,4.38-7.08,2.63,3.29,2.66,6.5-.25,9.66-.78.84-1.89,1.73-2,2.73-1.9,12.3-10.3,23.69-5.26,37A10.94,10.94,0,0,1,377.8,257.14Z"/><path class="cls-26" d="M313.11,384.88c-2.82-6.49-.86-13.29-1.28-19.94,0-.47.7-1.42,1.1-1.44,5.07-.19,9.7-3.7,15.12-1.59s7.62.61,8.46-5.07c.19-1.31.35-2.62.53-3.92a66.76,66.76,0,0,1,2,7.92c.62,4.47-2.27,6.88-6.42,5.3-5.83-2.23-11.31-.61-16.77,1.13-2.07.66-2.89,2.41-2.83,4.69C313.2,376.26,313.11,380.57,313.11,384.88Z"/><path class="cls-27" d="M322.08,457c2.38-12.95,5.25-25.83,6.72-38.94.42-3.76-1.33-7.45-.59-11.26,4,10,4.48,20.08.66,30.34-2,5.27-3.86,10.67-3.82,16.41C325.07,455.79,323.15,455.89,322.08,457Z"/><path class="cls-28" d="M108.09,372.92c4.55.66,9.18-.49,13.73.7a5.12,5.12,0,0,0,4.68-1.12c5-4.11,6.12-3.95,10.61,1.4-3.42-1.66-6.14.14-9.05,1.65C120.27,379.6,112.52,378.49,108.09,372.92Z"/><path class="cls-29" d="M381.87,295.07l-4.37-1c2.91-6.1,10-8.14,12.52-14.16,3.05,3,2.94,5.58-.55,8.23C386.75,290.2,384.94,293.34,381.87,295.07Z"/><path class="cls-30" d="M242.79,162.19c-2.3.09-2.85-1.45-2.73-3.25.26-4.15-1.22-8.61,2.41-12.2,1.24-1.22.49-3.19.66-4.82,3.93,3,2.39,7.51,1.31,10.36C243.15,155.67,243.24,158.89,242.79,162.19Z"/><path class="cls-31" d="M145,379.05c2.91.06,5.11,2,7.7,2.91,1.39.48,3.07,1.4,4.24,1,4.88-1.65,7.87,1.5,11.23,3.85-8,2.15-14.21-3.29-21.27-5.12C146.08,381.49,145.61,380,145,379.05Z"/><path class="cls-32" d="M248,50.06c1.94-6.35,7.31-7.31,12.77-8.14,2.06,2.62.42,3.82-1.91,4a6.69,6.69,0,0,0-5.82,3.63C251.73,51.92,249.64,49,248,50.06Z"/><path class="cls-33" d="M396.82,347.74c5-1.46,6.79-4.89,6.16-9.85,3,2.57.28,7.5,4,9.8-1.39,1.6-2.77,3.42-5.07,3.45-1.5,0-3.81,1.2-4.21-1.79A5.53,5.53,0,0,0,396.82,347.74Z"/><path class="cls-34" d="M211.12,432.9a1.78,1.78,0,0,1,.88.14,37.94,37.94,0,0,1,5.94,4.93c1,.95,1.17,1.87.06,2.9a3.91,3.91,0,0,0-.8,4.91l-3.27,1.33C214.54,442,212.79,437.47,211.12,432.9Z"/><path class="cls-35" d="M243,27.08a7.3,7.3,0,0,1-2,5c-1.21-.18-3.65-.34-3.22-1.07C238.84,29.25,240.37,27.27,243,27.08Z"/><g id="naranja"><path class="cls-36" d="M96.75,316.31c1,4.38,2.3,8.15.62,12.27-.81,2,.75,3.41,3.07,3.4a7.6,7.6,0,0,1,2.48,0c2.59,1,5.4-2.19,7.86.46-3.22,2.48-.27,8.07-5.12,9.89-1.89.72-2.1,2.84-1.59,4.79.93,3.55,1,6.7-2.42,9.31-2.12,1.61-1.51,3.78.38,5.53,1.18,1.1,1.86,2.71,1.16,4-1,1.81-3,.66-4.56.69A2.46,2.46,0,0,1,96,363.79c.33-3.05-.61-4.66-3.78-5a2.62,2.62,0,0,1-1.83-1.54c-.83-3.87-2.81-4.16-6.12-2.68a3.46,3.46,0,0,1-4.67-1.53c-1.81-3.19-6.27-4.24-7-8.43,0-.26-.89-.64-1.26-.56-8.4,2-11-5.68-15.82-9.61-1.27-1.05-4.37-2.15-3.21-4.42,1.34-2.62,4-3.6,7.2-2.39,1.31.49,3.31,1.21,4.43-.74s-.1-4.09-1.09-5c-5.7-5.49-1-10,1.36-14.32,2.89-5.26,7.81-6.68,13.68-5.54,1.66.32,2.34.69,2.22,2.36-.24,3.2,1.14,6.14,1.6,9.2.62,4,3.11,5,6.31,4.62C90.91,317.86,94,317.86,96.75,316.31Z"/><path class="cls-37" d="M148.51,92.35c2.73,2.28,5.29,3.66,4.63,7.44-.28,1.56,1.52,2.25,3.18,2.46,5.13.65,7.41,4.37,8.63,8.76,1.17,4.19,3,7.7,7.09,9.57,2.65,1.2,3.72,3,3,6-.87,3.41,3.07,7.47-1.58,10.47-2.81-3.51-5.73-6.82-11.18-4.29-1.13.52-3.17-.84-3.76-2.61a5.08,5.08,0,0,1,.94-5.52c4.08-4.49,3.47-8.33-1.83-10.91-2-1-3.62-2.27-5.5-3.24-2.91-1.49-5.14-3-3.22-6.77a3.28,3.28,0,0,0-.4-3.78C145.57,97.25,148.18,95.17,148.51,92.35Z"/></g><g id="rojo"><path class="cls-38" d="M222.88,109.15c-2.28-.75-4,1-6.55,1.58.85-3.31,3.06-5.27,4.72-7.57,4-5.55,4.64-12.38,5.53-18.68C227.86,75.39,232,68.07,237.14,61c.55-.75,1.59-1.76,2.28-1.67,4.88.61,6.17-2.77,7.42-6.29,2.77,6.14,1.41,9.15-4.85,11.11-1.53.47-3.35,1.06-4.06,2.59-3.29,7.13-9.28,13.16-9.76,21.41-.38,6.79-1.41,13.21-5.07,19C222.79,107.69,222.94,108.49,222.88,109.15Z"/><path class="cls-39" d="M94.1,259.67c-.51-.66-1.51-1.08-1.07-2.2,5.82-3.63,8.12-11.74,6.11-18.12-1.37-4.34-1.42-9.1-2-13.68-.23-1.94.38-4-1.32-5.63-.87-.83-.76-2.19.31-2.49,7.43-2,5.75-7.27,3-11.13-3.45-4.82-2-9.19-.59-13.61,1.2-3.65-.89-5.61-2.77-7.68-2.41-2.67-6.37-4.06-6-8.81.07-1-1.81-2.23-3-3.11-3.86-2.92-2.54-6.33-.26-9,1.49-1.72,3.38-2.67.61-5.7,3.48.46,3.7,5,6.57,2.93a20.9,20.9,0,0,0,4.17-4.87c1-1.47,1.43-4.06,2.72-4.56,5.88-2.3,3.66-5.77,1.16-8.5C99,140.51,100,136,97,133.34c-.56-.49-.23-1.28.36-1.71a1.44,1.44,0,0,1,2.15.34c2.82,3.19,5.64,6.39,8.54,9.5,1.07,1.14,1.66,2.3.28,3.37-2.49,1.94-2.45,5.27-4.58,7.55-1.93,2.06,1.44,7.65,5.21,8.53,2.61.62,4,1.63,4.61,4.35.52,2.43,2.88,3.5,4.89,4.69,1,.62,2.08,1.48,1.88,2.71-.22,1.39-1.6,1.27-2.78,1.48-8.11,1.49-11.06,8.16-6.92,15.28,1.13,1.95,2.4,3.75,2.44,6.35.1,5.4,1.95,6.91,7.41,7.06a37.39,37.39,0,0,0,4.49,0c4.39-.39,6.6,1.67,6.57,6.28a13.38,13.38,0,0,0,0,2.45c.73,3.91,3.56,7.73-1.28,11.44-1.69,1.3-1.7,4.71.89,7.05a7.14,7.14,0,0,1,1.82,7.79c-4.18,4.21-4.54,11-9.82,14.52-1.24.83-.32,2.37.09,3.65,1.45,4.56.9,5.18-3.77,6.44-6,1.62-10.81-2-16.09-3.38-2.31-.62-4.38-1.76-6.14.8a3.24,3.24,0,0,1-1.09.89Z"/><path class="cls-39" d="M133,291.09c2.17,2.68,4,5.74,6.59,8,3.53,3,1.22,4.42-1.16,5.68-1.13.59-2.67.64-3.46,1.75-3.29,4.6-9.11,5-13.49,7.92-3.26,2.16-3.4,4.7-3.9,7.28a4.34,4.34,0,0,0,3.36,5.33c1.11.24,2,.7,1.86,1.89-.42,3.49,1.92,4.75,4.53,5.58,3.2,1,3.43,3.06,1.75,5.28-1.93,2.54-2.19,5-.48,7.71-2.71.66-4.17,0-4.52-2.63-.29-2.27-.77-4.52-1.19-6.78-.27-1.41-1.56-3.19-2.3-3-6.71,2.06-7-7.74-12.94-6.8-1.46.23-2.91.48-4.37.67-1,.12-2.2.42-2.75-.53-.64-1.11-.08-2.29.78-3.17,2-2,.58-3.5.16-5.74-1.47-7.8-5.74-6.09-10.72-4.7-2,.56-5.12,2.37-5.92-1.78s-4.77-8.26.42-12.36c2.59-2.06,3.48-5.47,5.08-8.31,1.38-2.47,2-5.68,5.61-6.24,2.71,1.36,5.41,2.4,8.39.62a2.52,2.52,0,0,1,2.84-.05c3.18,3,6.88,2,10.59,1.86,2.35-.07,4.21-.34,5.39-2.55,1.42-2.67,3.61-2.94,6.31-2.16,2.88.83,3.29,2.88,3.11,5.38A2.58,2.58,0,0,0,133,291.09Z"/><path class="cls-39" d="M164.18,85c-1.87,3.62,2.28,5.35,2.71,8.75,1.1,8.7,3.07,18,14.41,20.12,1.94.36,3.6,2.26,5.35,3.51.67.48,1.15,1.51,1.84,1.63,6.18,1.07,8.23,4.61,8.59,10.85.3,5.09,2.12,9.94-.74,14.91a6.34,6.34,0,0,0-.2,4.88c2.22,5.44-.09,10.53-1.35,15.47-.91,3.56-4.74,5.81-7.69,8.11-1.25,1-1.77-1.19-1.94-2.07a59.61,59.61,0,0,1-.62-6.42c-.09-1-.44-2.54-1.34-2.37-5.29,1-2.82-2.12-2.34-4.15,1.53-6.62-.24-11.31-5.76-14.75-1.74-1.08-2.87-1.75-.31-3.35,3.47-2.18,5.6-5.09,3.41-9.46-1.43-2.85,2.09-6-.61-8.95-1.33-1.46-2.18-3.22-4.24-4a8,8,0,0,1-5.42-7.13c-.23-6.57-5.15-8.68-9.6-11.26-1.41-.81-2.54-1.23-2.3-3.12.1-.76,0-2-.49-2.31-7.64-5.58-4.75-12.83-3.12-19.8.26-1.1,1.05-2.78,2.66-2.54s1,1.86,1.11,2.92c.31,3.18,2.85,4.31,5.13,5.59C163.32,81.24,165.22,82.23,164.18,85Z"/><path class="cls-39" d="M96.11,260.79a5.25,5.25,0,0,1-.09-.55c1.5-2.14,3.69-2.35,5.78-1.51,3.7,1.49,7.8,1.44,11.38,3.58,3.29,2,6.89.1,9.87-1.27,1.9-.86,1.26-3.47-.13-5.23-1.61-2-1.29-3.53,1.14-4.7,3.14-1.52,3.95-4.82,4.84-7.69.74-2.39,1.76-3.81,4.15-4.28,4.51-.9,6.65,3.75,6.14,5.44-1.57,5.28,1.48,9.81,1.5,14.79a15.54,15.54,0,0,1-2.77,9c-3.19,5.11-3.37,10.95-5,16.43-1.11.64-1.83-.41-2.74-.62-3-.7-6.24-2.14-7.31,2.63-.13.59-.82,1.37-1.38,1.34-4.34-.21-8.83,2.9-13-.32-1.5-1.15-2.9-1.73-4.51-.73-3.14,2-5.28.8-7-2-1.75-4.06,1-6.57,3.44-8.8,3.68-3.35,3.79-6.85,0-9.64A10.63,10.63,0,0,1,96.11,260.79Z"/><path class="cls-39" d="M81.22,19.67c-2.87,1.54-5.24,2.36-7,4.19-2.86,2.94-2.86,6-1.75,9.91.94,3.36,1.78,7.53-1.56,10.66a2.2,2.2,0,0,0-.59,1.31c-.54,9-6.16,16.63-7.06,25.53a8.92,8.92,0,0,1-2.08,5.49c-1.44,1.51-2.1,5.29-4.79,3.7a5.39,5.39,0,0,1-1.55-7.58c3.1-4.07,3.32-8.5,3.31-13.17,0-2.89,1.74-6.16-2.66-7.71-1.58-.56-.48-2.22-.1-3.49,1.1-3.7,3.71-7.19,1.75-11.37-.13-.28-.2-.8,0-1C63.59,29.53,62.53,18.23,71.44,13c1.82-1.07,3.15-.48,3.72.86C76.28,16.54,78.65,17.72,81.22,19.67Z"/><path class="cls-40" d="M107,16.33c5.25,4.85,4.32,14.41-1.42,18-.28.18-.54.38-.81.57-6.08,4.31-6.57,4.14-8-2.91-1.08-5.19,1.59-9.75,6.82-10.88C106.29,20.53,105.55,18,107,16.33Z"/></g><path class="cls-41" d="M133.05,239.14c-3.77,1.44-3.09,5.51-4.69,8.23-2,3.39-6.91,5.58-3.71,11.56,1.7,3.18-7.44,5.87-12.27,4.07C107.25,261.09,102,258,96,260.24c1.2-3.65,3-4.16,6.87-2.81,5.44,1.91,10.61,5.4,17.09,3.82,3.42-.83,3.87-2,2.16-4.6-1.93-3-1.71-5.16,1.86-6.66,2.57-1.07,3.25-4,3.75-6.06a8.36,8.36,0,0,1,5.18-6.06Z"/><path class="cls-42" d="M97,285.1c2.41,1,4.58,3.48,7.55,1a2.44,2.44,0,0,1,2.36,0c3.25,3.93,7.49,1.08,11.2,1.74,1.63.29,3.88,0,4.16-1.89,1-6.55,5.13-2.94,8.14-2.66.89.08,1.7,1,2.55,1.48q0,3.15,0,6.3c-1-.91-.73-2.13-.85-3.27-.31-3-2.91-2.62-4.84-3.33-2.26-.82-2.37,1-3.11,2.19-.6,1-1.4,2.65-2.05,2.62-4.59-.23-9.46,3.39-13.74-.54-1.7-1.57-3-1.56-4.76-.43-3.35,2.15-5.85,1-7.71-2.21Z"/><path class="cls-43" d="M126.23,123.9c.56,2.46,2.88,3.85,3.84,5.85,1.48,3.1,2.15,6.32-.21,10-4.09,6.38-5.5,13.88-6.79,21.3-2.29-1.85-1.33-4.31-.75-6.33,1.51-5.22,2.63-10.61,5.59-15.32,2.45-3.87,3.55-7.56-1.44-10.46-.37-.22-.29-1.21-.42-1.84Z"/><path class="cls-44" d="M196,94c4.07,1.07,3.84,5,3.89,7.62.05,2.3-3.17,1.46-5,1.53-1,0-2.12-.26-2.67.79-.84,1.58,1,1.73,1.55,2.57,2.21,3.22,3.38,7,6,10.11.8,1-.43,2.43-1.33,3.43l-1.34-1c2-1.81.14-3.14-.8-4.18-2.59-2.87-3-7-6.25-9.66-1.66-1.35,1.6-3.75,2.57-3.7C200.33,101.89,197.14,97.55,196,94Z"/><path class="cls-45" d="M304.81,320.1c-3.38.53-6.89.52-9.88,2.66a4.75,4.75,0,0,1-3.27,1c-6.61-1.45-11.19,2.87-16.4,5.44-6.63,3.26-9.22,7.77-8.4,15.49.18,1.66-.89,1.23-1.52,1.78-3.48,3-6.85,6.13-10.21,9.27-1.48,1.38-2.82,2.89-2.14,5.19.29.17.38.34.28.51s-.19.24-.29.24c-5.37-3.23-10.34-6.53-13.19-12.74-2.38-5.2-8.95-5.25-12.33-.87-4.33,5.63-11.61,4.41-15.4-3.51-2.35-4.91-6.2-8.4-8.95-12.81q-.41-.21-.3-.45c.07-.18.15-.27.23-.27,2.22-4.87.68-10,1-15,.47-6.86.9-7.35,7.43-6.7,5.23.52,10.39.3,14-4.53a3.4,3.4,0,0,1,2-1.44c7.15-.59,12.34-5.61,18.64-8.09.45-.17.92-.58,1.33-.52,11.51,1.71,23.16-2.78,34.5.38,4.47,1.24,8.74.11,13,1,.09.49.25.76.47.83q1.26.39,5.3-8.16l-16.5,14.16c4.07,1.34,6.25,3.37,7.34,6.44.73,2.05,2.31,2.61,4.34,2.57,3.31-.07,6.63-.07,9.94,0,1.58,0,3.56-.8,4.57,1,1.21,2.15-1.28,2.64-2.12,3.88-.46.68-.83,1.42-1.25,2.14Z"/><g id="amarillo"><path class="cls-46" d="M171,144.06c8.16,3.77,9.78,7.62,6.76,16.61-.41,1.22-1.9,2.74-.33,3.37,4.88,2,4.11,6.59,5.48,10.23s3.28,4,6.48,1.35c1.43-1.2,2.71-4.94,5-2.52,2.62,2.81-1.6,3.23-2.8,4.81-2.67,3.54-7.76,5.16-9.43,8.38-2.62,5.05-6.1,10.37-6.54,16.1-.52,6.7-1.25,8.71-7.54,8.7-3,0-5.11,1.09-6.39,3.74-1.46,3-2.69,3.38-4.61.18-2.6-4.33-7.12-3.81-10.48-.07-2,2.25-5.16,4.73-8.73,3.61-2.74-.86-4.37-6.93-2.73-10,1-1.82.74-2.68-.8-3.6-.28-.17-.82-.22-.87-.43-2.16-7.64-8.39-4.69-13.09-4.65-3.14,0-4.82-1.57-4.88-3.62-.14-4.38-2.55-7.62-4.3-11.2-.86-1.76-.78-2.91,1.26-3.24a2.16,2.16,0,0,0,2-2.38c.08-2.5,1.79-2.6,3.5-2.26,2.81.55,4.51.07,5.24-3.17a5.21,5.21,0,0,0-2.62-6.25c-4.59-2.71-6.36-8.37-11.64-10.51-2.46-1-3.85-3.51-.65-6,.84-.67.9-2.31,1.49-4,.94,2.36,1.6,4.63,4.5,3.84,2.69-.74,2.67-3.6,2.24-4.89-1.46-4.42.6-9.71-3.65-13.5-1.92-1.7.12-2.56,1.67-2.74a14.58,14.58,0,0,0,7.79-3.82c2.59-2.34,2.71,0,3.75,1,5.54,4.06,6.17,6.53,3.19,12.53-3.23,6.49-6.28,13-5.48,20.58.19.43.35.86.52,1.29.84,3.22,3,4.5,6.22,4.27a21.76,21.76,0,0,1,4.42,0c4.21.59,7.3-.84,9.17-4.72a6.22,6.22,0,0,1,1.16-.88c5.11-1.77,6.94-6.92,10.35-10.4C160.06,145.24,165.48,144.86,171,144.06Z"/><path class="cls-46" d="M126.23,123.9a56.15,56.15,0,0,0,6.42-11c2-4.84,9.13-5.51,14-3,3.64,1.89,6,5.36,10,6.79,2,.73,4.69,2.69,1.13,5.45-1.2.93-4.18,1.17-3.48,2.56,1.5,3,.13,6.88,3,9.14,2,1.54,3.62,5,7,1.3,1.21-1.34,3.27-.15,4.75,1.3,2,2,1.59,3.75.08,5.66-.55,2.88-3.18,3.76-5.19,3.64-6.59-.36-8.67,5.26-11.82,8.89-2.18,2.51-4.17,4.89-7.09,6.44l.1-.07c-4.21,7.47-11.32,4.77-17.53,4.82-2.73,0-2.78-3.4-4.53-4.81l0,.05c-.41-8.44,2.79-15.84,6.65-23,1.64-3.05,1.52-6.24-.86-8.51C127.08,127.81,126.71,126,126.23,123.9Z"/><path class="cls-46" d="M193.66,388.52c-9.95,5.71-14.5,4.61-19.79-3.45-.78-1.19-1.37-2.89-3.36-1.48-.34.24-1.15.35-1.37.14-6.82-6.66-16.75-2.55-24.15-7a18,18,0,0,1-4.55-3.76,24.54,24.54,0,0,0-9.93-6.94c-3.23-1.37-4.86.33-5,2-.37,3.27-2.2,2.77-4.1,2.52a43.75,43.75,0,0,0-9.23-.23c-2.92.25-5.38-.54-6-4.82s-2.47-8,1-11.78a3.61,3.61,0,0,0,.58-3.28c-3.59-6,5.75-7.56,4.44-13-.27-1.14,3.21.76,5.09-.38,1.14-.69,2.61.55,2.79,2,.2,1.66.69,3.22,1,4.82,1.27,6.14,4,8.15,10.11,6.4,3.35-1,6-1.42,7.86,2.37a3.6,3.6,0,0,0,3.16,2.2c5-.19,8.41,4.18,13.28,4.21,1.79,0,1.93,1.74,2.28,2.88.67,2.21,1.42,4.13,4.15,4.18a1.73,1.73,0,0,1,1.76,2c0,4.4,3.06,5.48,6.43,6,2.38.37,3.14,1.53,3.66,3.77.91,3.85,2.83,6,7.72,5.68C185.53,383.23,188,388.33,193.66,388.52Z"/><path class="cls-46" d="M197,119.07c-7.76-3.46-15-7.9-22.35-12.09-3.35-1.91-1.85-4.29-2.32-6.47-.7-3.23-4.45-6.17-.94-10,.67-.72-.65-2.52-1.55-2.75-3.92-1-2-3.44-1.6-5.56.37-.76-.07-1.82.46-2.39,5.11-5.52,3.76-12.2,3.43-18.69,2.71-.8,5.17.4,7.75.85,4.94.86,6.8-.65,7.16-5.48a4.89,4.89,0,0,1,7.22-4c3.17,1.81,6.31,1.51,9.55,1.64-1.21,5.51,1.23,10.71,1.38,16.11A9.18,9.18,0,0,1,200.65,79a4.25,4.25,0,0,1-4,.74,1.42,1.42,0,0,1-.73-.61.81.81,0,0,0-.18-.19,7,7,0,0,1-.88,2.81c-3.4,6.39-3.4,6.39,1.39,11.28a8.28,8.28,0,0,1,.89,1.07c2.74,6.12,2.7,6.24-3.22,8.35-2.4.85-3.44,2-1.23,4.18,2.38,2.39,3.19,5.79,5.22,8.45C199.26,116.92,199,117.11,197,119.07Z"/><path class="cls-46" d="M206.25,54.22c4.22.37,7.38-1.25,10.69-4,5.92-5,12.2-9.51,20-11.62a11.83,11.83,0,0,0,8.89-10.35c.34-2.58.53-3.53,3.07-1.58,1.88,1.44,3.69,1.11,4.58-1.43,1-2.78,3.72-6.09,5.23-6.07,4.09.05,8.71,1.12,11.6,4.5,4.28,5,3.46,4.63-1.3,9.41-4.27,4.3-9.27,6.12-14.63,7.4-4.87,1.16-7.22,4-8.46,8.57-1,3.81-2.55,6.81-7.46,7.82-4.47.92-7,5.66-8.4,9.72a28.55,28.55,0,0,1-6.51,10.64,5,5,0,0,1-5.73-.12c.67-3.72-.41-6.57-3.38-9.16-1.7-1.48-3-2.72-5.38-2.62-1.61.07-3.29.13-4.73-.88C202.17,60.49,202.68,57.06,206.25,54.22Z"/><path class="cls-46" d="M218.31,77.06c1.77-1.12,3.46.44,5.21.14.82,3.62-.13,7.1-.44,10.68-.69,8.2-4.53,15-9.56,20.63-4.24,4.8-5.59,9.49-6.1,15.65-.29,3.61-4.46,7.15-1.37,11.19,2.8,3.67,1.93,8.39,4.29,12.18,1.34,2.17.68,5.57-1.62,6.4s-2.58-2.51-3.81-4c-4.85-6-3.34-13.37-4.91-20a80.3,80.3,0,0,1-1.65-9.81c.77-5.62-3.38-9.11-5.92-13.21-1.74-2.81-1.73-4,1.28-4.71,6.16-1.44,6.55-2.86,2.28-8.13l.07.08c-1.89-2.87-5.93-5.15-3.59-9.32,1.11-2,1.91-4.41,4.08-5.73,1.18-.09,2.48.38,3.4-.78,6.49-1.3,4.23-6.87,5.13-10.82.16-.72-.12-1.51.65-2,2.2-.6,4.94-1.9,6.52-.21,2.07,2.21,4.27,4.31,6.25,6.6.8.93-.1,2.13-.74,3.11S216.77,76.69,218.31,77.06Z"/><path class="cls-47" d="M168,80.83c-3.7-2.43-9.32-2.72-9.11-9.3.16-5,7.32-11.58,12.07-10.41C175,68.45,173,74.87,168,80.83Z"/><path class="cls-48" d="M138.26,220.61c4.69,5.3-.09,8.87-1.67,13.2-2.21-1.86-1.36-6.19-5.35-6.72-.5-.07.13-2.51,1.33-3.26C134.5,222.6,136.55,221.56,138.26,220.61Z"/><path class="cls-49" d="M152,241.35c-3.8-1.33-6.92,1.73-10.32-.32-1.22-.73-2.14-1.19-.69-2.32C143.51,236.76,148.8,237.87,152,241.35Z"/><path class="cls-46" d="M284.51,298.14c-3.15,4-3.49,6.87,1.26,8.73a4,4,0,0,1,2,2c2.92,5.22,7.94,6.06,13.22,6.17,1.42,0,2.88-.71,4.31.27-.18.48-.31,1.32-.53,1.34-6,.64-11.2,4.48-17.41,4.12a9.49,9.49,0,0,0-7.29,2.28c-2.56,2.18-5.42,4.37-9.22,4.38-1.57,0-2.59,1-3.33,2.53-1.92,4.05-3.82,8.1-4.53,12.56-.4,2.57-1.07,4.39-3.92,5.58-2.46,1-4.36,3.48-6.43,5.38-3.46,3.19-5.76,3.12-7.43-1.36-2.21-5.9-7-7.87-12.11-9.63-2.48-.87-5.35-.79-7.13,1.84-1.3,1.92-3.51,5.25-4.65,4.36-2.84-2.23-7.4-2.89-8.31-7.16a11.81,11.81,0,0,0-3.69-6.71,7.15,7.15,0,0,1-2.44-6.66,37.89,37.89,0,0,0,0-4c.05-3.82-1.18-8.44.54-11.26,1.83-3,6.75-.28,10.31-1s7.29-.92,9.4-4.62a2.23,2.23,0,0,1,1.54-1.13c6.08.15,10.29-4,15.12-6.63,2.93-1.57,5.8-.4,8.62-.93,7.57-1.42,15.27-1.15,22.85-2C278.78,296.19,280.9,300,284.51,298.14Z"/></g><path class="cls-50" d="M145,161.07c3.18-2.51,5.22-6,7.74-9,3.53-4.33,7.61-8.17,14-7.74,1.42.1,1.32-1.76,2.41-2.18l1.94,2a91.89,91.89,0,0,1-10.57,3.34c-3.49,1-5.54,5.1-7.94,8.07C150.46,158,148.87,161,145,161.07Z"/><path class="cls-51" d="M206,65.92c1.94,6.14-.63,11.41-6,12.34,5.23-3.26,4.84-8.37,3.32-13a14.38,14.38,0,0,1,.55-11.08l2.43,0c-1.58,3.23-3.74,6.39-1.2,10.11C205.81,64.6,206.3,65,206,65.92Z"/><path class="cls-52" d="M168,80.83c1.1-4.81,5.69-8.65,3.8-14.32a30.75,30.75,0,0,1-.84-5.39l1.18,0c1.52,5.45,3.51,10.89-.76,16.12a47.68,47.68,0,0,0-3.13,5C168.16,81.77,168.08,81.3,168,80.83Z"/><path class="cls-53" d="M198,389c6.19-1.41,10.47,4.76,16.49,4.21.44,0,1,1.16,1.49,1.78l.05-.07c-4.08-.57-8.45.13-11.84-3.23-1.73-1.71-4.14-.2-6.17-.73C198,390.31,198,389.65,198,389Z"/><path class="cls-54" d="M152.07,246.15c-2.94,3.19-1.86,8.38-5.86,11.09l4.56-13.07C151.92,244.36,152.05,245.22,152.07,246.15Z"/><path class="cls-55" d="M208.2,132.9c1.25.45,2.85-.32,3.85,1.07-1.51.27-.57,3-2.22,2.61S209,134.06,208.2,132.9Z"/><path class="cls-56" d="M136,332.86l3.62-4.59c.37,3-1.31,4.55-3.62,5.7Z"/><path class="cls-57" d="M314,329c4.35-1,8.54-1.91,13.24-1.61,11.24.72,22.56,1.48,33.8-.44,1.54-3.21,1.54-3.21,2.88-1.89-.88,4.42-3.71,5.31-7.88,5-10.58-.7-21.25.94-31.82-1-2.09-.38-4.08,1.48-6.32.75C316.84,328.53,315.34,329.15,314,329Z"/><path class="cls-58" d="M312,202c2.77,0,5.55.06,8.32,0,1.87,0,3.72-.27,3.56-2.89l2.24,2.05a8.18,8.18,0,0,1-7.49,2.45c-3.06-.73-4.89.3-6.64,2.38l.07.06Z"/><path class="cls-59" d="M311.8,409c3.56-1.3,6.9-2,9.62,1.82a3.49,3.49,0,0,0,3.53,1.12c.58,1.07,2.31,1.39,2,3-2-1-3.76-2.79-6.27-1.31a1.08,1.08,0,0,1-1.58-.66c-1.33-3.16-3.74-2.92-6.43-2.25-1.31.33-1.76-.5-1.43-1.74Z"/><path class="cls-60" d="M217.94,438c-3.07-.32-4.86-2.19-5.94-4.93C215.7,432.61,218.93,432.74,217.94,438Z"/><path class="cls-61" d="M154.26,312.4c1.85,6.62-6.87,6.63-7.41,11.91C147.12,319.05,152.59,316.93,154.26,312.4Z"/><path class="cls-62" d="M231.05,394.89c-5,.61-10,2.25-15,0L216,395c2-.32,4.28.56,6-1.42.34-.39,1.53-.68,1.74-.46,2.07,2.22,5,.87,7.32,1.87Z"/><path class="cls-43" d="M123,161c3.29,4.28,8.11,3.4,12.62,4.29,4.83.95,6.09-3.45,9.44-4.3-1.23,4.91-4,7.21-9.31,6a18.67,18.67,0,0,0-5.44-.1C126,167.2,123.43,165.51,123,161Z"/><path class="cls-63" d="M196.55,79.05a13.31,13.31,0,0,1-1.51,3.1c-3.1,3.62-3.54,6.93.64,10.09.38.29.26,1.23.38,1.86-2.91-1.72-5.85-3.65-5.06-7.56C191.65,83.35,193,80.26,196.55,79.05Z"/><path class="cls-64" d="M206,65.92l-.93-1.59c6.68-2.65,10.1,2.57,14.11,6,2.71,2.34-1.51,4.32-.85,6.7-.18.88-.49,1.68-1.57,1a1.52,1.52,0,0,1-.4-2.51c3.09-3.11.39-3.84-1.5-6.11C212.18,66.22,210.07,64.32,206,65.92Z"/><path class="cls-65" d="M272.13,197.11l-1.09-1c1.14-.66,2.25-1.38,3.69-.93,7,2.22,14.15,1.54,21.28.78-.56,2.14-2.31,1.84-3.94,2C285.37,198.81,278.78,197.25,272.13,197.11Z"/><path class="cls-66" d="M295.94,196a11.93,11.93,0,0,1,16.07,6C307.06,199,302.38,195.17,295.94,196Z"/><path class="cls-67" d="M304.81,320.1,307,319c-1.57,4.59.05,7.4,5.3,8.42-1.7,1-3.05.72-4.37.62C305.89,325.79,303.53,323.67,304.81,320.1Z"/></g></g></svg>